<?xml version="1.0" encoding="utf-8"?>
<!-- Generator: Adobe Illustrator 16.0.0, SVG Export Plug-In . SVG Version: 6.00 Build 0)  -->
<!DOCTYPE svg PUBLIC "-//W3C//DTD SVG 1.1//EN" "http://www.w3.org/Graphics/SVG/1.1/DTD/svg11.dtd">
<svg version="1.1" id="Layer_1" xmlns="http://www.w3.org/2000/svg" xmlns:xlink="http://www.w3.org/1999/xlink" x="0px" y="0px"
	 width="274.24px" height="90px" viewBox="0 0 274.24 90" enable-background="new 0 0 274.24 90" xml:space="preserve">
<g>
	<path fill="#9F3224" stroke="#9F3224" stroke-width="1.5" d="M1.834,11.954C1.689,8.749,1.529,5.48,1.354,2.149
		c1.394,0.103,2.797,0.189,4.218,0.265C6.991,2.49,8.395,2.528,9.789,2.528c0.694,0,1.534-0.026,2.519-0.075
		c0.984-0.05,1.985-0.088,3-0.114c1.014-0.025,1.983-0.063,2.912-0.114c0.926-0.049,1.709-0.075,2.349-0.075
		c0.87,0,1.939,0.026,3.214,0.075c1.274,0.051,2.625,0.203,4.044,0.456c1.419,0.252,2.825,0.631,4.216,1.136
		c1.39,0.505,2.652,1.235,3.783,2.194c1.13,0.96,2.042,2.159,2.737,3.596c0.697,1.438,1.042,3.217,1.042,5.338
		c0,3.332-0.824,6.032-2.476,8.101c-1.651,2.07-3.68,3.684-6.084,4.846c-2.406,1.16-4.957,1.942-7.651,2.346
		c-2.694,0.405-5.086,0.605-7.172,0.605c-1.334,0-2.551-0.012-3.653-0.037c-1.1-0.025-2.229-0.088-3.389-0.189v4.163
		c0,3.332,0.072,6.613,0.219,9.842c0.143,3.229,0.302,6.412,0.476,9.541c-1.334-0.103-2.753-0.153-4.258-0.153
		c-1.509,0-2.928,0.053-4.262,0.153c0.175-3.129,0.335-6.312,0.48-9.541c0.145-3.229,0.216-6.51,0.216-9.842V21.76
		C2.051,18.427,1.979,15.158,1.834,11.954z M15.351,28.042c1.795,0,3.651-0.178,5.562-0.531c1.914-0.352,3.667-0.995,5.262-1.931
		c1.593-0.934,2.897-2.22,3.912-3.861c1.013-1.64,1.521-3.747,1.521-6.322c0-2.168-0.348-3.937-1.044-5.298
		c-0.695-1.363-1.664-2.423-2.91-3.181c-1.247-0.756-2.77-1.273-4.566-1.551c-1.796-0.276-3.823-0.416-6.084-0.416H9.179v22.485
		C11.148,27.84,13.208,28.042,15.351,28.042z"/>
	<path fill="#9F3224" stroke="#9F3224" stroke-width="1.5" d="M92.852,52.382c-1.129,0.479-2.493,0.907-4.087,1.285
		c-1.594,0.381-3.376,0.718-5.345,1.024c-1.972,0.302-4.029,0.451-6.173,0.451c-4.579,0-8.81-0.566-12.691-1.703
		c-3.884-1.135-7.23-2.861-10.041-5.184s-5.015-5.162-6.607-8.519c-1.596-3.356-2.392-7.18-2.392-11.47
		c0-4.289,0.796-8.113,2.392-11.47c1.592-3.355,3.826-6.195,6.694-8.518c2.868-2.319,6.301-4.087,10.3-5.299
		c4-1.211,8.403-1.816,13.214-1.816c3.825,0,7.315,0.34,10.476,1.022c3.158,0.681,5.954,1.501,8.389,2.459
		c-0.464,0.708-0.84,1.667-1.13,2.877c-0.29,1.212-0.521,2.221-0.696,3.027l-0.521,0.152c-0.58-0.604-1.392-1.287-2.434-2.043
		c-1.044-0.757-2.262-1.488-3.652-2.195c-1.391-0.708-2.956-1.299-4.693-1.78c-1.739-0.48-3.652-0.718-5.738-0.718
		c-3.42,0-6.593,0.479-9.519,1.437c-2.926,0.96-5.476,2.436-7.649,4.429c-2.173,1.994-3.869,4.519-5.088,7.572
		c-1.215,3.054-1.824,6.674-1.824,10.864s0.609,7.812,1.824,10.863c1.219,3.055,2.915,5.578,5.088,7.573
		c2.174,1.992,4.723,3.47,7.649,4.427c2.926,0.959,6.099,1.438,9.519,1.438c2.086,0,4.012-0.229,5.78-0.682
		c1.77-0.453,3.391-0.994,4.868-1.63c1.479-0.629,2.812-1.31,4-2.042c1.188-0.729,2.188-1.374,3-1.93l0.346,0.302l-0.781,4.47
		C94.808,51.463,93.981,51.902,92.852,52.382z"/>
	<path fill="#9F3224" stroke="#9F3224" stroke-width="1.5" d="M156.79,54.161c-0.812-0.103-1.58-0.153-2.305-0.153
		c-0.726,0-1.489,0-2.303,0c-0.811,0-1.58,0-2.306,0s-1.491,0.053-2.303,0.153c-0.405-1.161-0.955-2.562-1.652-4.203
		c-0.694-1.64-1.465-3.354-2.303-5.147c-0.845-1.79-1.695-3.606-2.563-5.451c-0.869-1.841-1.683-3.596-2.435-5.261
		c-1.856-0.051-3.738-0.088-5.651-0.115c-1.912-0.024-3.826-0.036-5.737-0.036c-1.797,0-3.564,0.012-5.303,0.036
		c-1.739,0.027-3.508,0.064-5.305,0.115c-1.854,3.935-3.534,7.685-5.041,11.242c-1.508,3.558-2.638,6.499-3.391,8.82
		c-0.985-0.103-2.058-0.153-3.217-0.153c-1.159,0-2.23,0.053-3.215,0.153c4.693-8.832,9.271-17.614,13.734-26.347
		c4.462-8.732,8.955-17.614,13.475-26.649h1.652c1.39,2.928,2.897,6.094,4.52,9.502c1.622,3.407,3.273,6.85,4.955,10.334
		c1.68,3.482,3.361,6.939,5.043,10.371c1.68,3.434,3.262,6.625,4.736,9.576c1.479,2.953,2.812,5.594,4.002,7.911
		C155.065,51.186,156.036,52.948,156.79,54.161z M118.279,30.615c1.506,0,3.069,0.026,4.693,0.075
		c1.622,0.053,3.188,0.075,4.695,0.075c1.622,0,3.245-0.012,4.868-0.036c1.621-0.026,3.245-0.062,4.869-0.114l-9.65-19.229
		L118.279,30.615z"/>
	<path fill="#9F3224" stroke="#9F3224" stroke-width="1.5" d="M160.834,16.798c1.592-3.355,3.827-6.195,6.692-8.518
		c2.871-2.319,6.303-4.087,10.301-5.299c3.998-1.211,8.377-1.816,13.13-1.816c4.808,0,9.215,0.605,13.213,1.816
		c3.998,1.212,7.433,2.98,10.299,5.299c2.871,2.323,5.099,5.163,6.696,8.518c1.59,3.357,2.391,7.181,2.391,11.47
		c0,4.29-0.801,8.113-2.391,11.47c-1.6,3.356-3.825,6.196-6.696,8.519c-2.866,2.321-6.301,4.048-10.299,5.185
		c-3.998,1.136-8.405,1.703-13.213,1.703c-4.753,0-9.132-0.567-13.13-1.703c-3.998-1.137-7.43-2.862-10.301-5.185
		c-2.865-2.321-5.102-5.162-6.692-8.519c-1.596-3.356-2.392-7.18-2.392-11.47C158.442,23.979,159.238,20.155,160.834,16.798z
		 M213.21,17.405c-1.219-3.053-2.914-5.578-5.086-7.572c-2.176-1.993-4.725-3.469-7.648-4.429c-2.928-0.958-6.101-1.437-9.519-1.437
		c-3.363,0-6.508,0.479-9.435,1.437c-2.926,0.96-5.479,2.436-7.646,4.429c-2.176,1.994-3.871,4.519-5.09,7.572
		c-1.219,3.054-1.822,6.674-1.822,10.864s0.604,7.812,1.822,10.863c1.219,3.055,2.914,5.578,5.09,7.573
		c2.168,1.993,4.721,3.47,7.646,4.427c2.927,0.959,6.07,1.438,9.435,1.438c3.418,0,6.591-0.479,9.519-1.438
		c2.924-0.957,5.474-2.434,7.648-4.427c2.172-1.995,3.867-4.519,5.086-7.573c1.221-3.052,1.825-6.674,1.825-10.863
		S214.431,20.459,213.21,17.405z"/>
	<path fill="#9F3224" stroke="#9F3224" stroke-width="1.5" d="M234.64,11.839c-0.147-3.23-0.305-6.459-0.479-9.69
		c1.507,0.103,3.043,0.189,4.606,0.265c1.564,0.076,3.1,0.114,4.607,0.114c1.505,0,3.043-0.062,4.607-0.189
		c1.563-0.126,3.099-0.189,4.606-0.189c2.491,0,4.838,0.165,7.042,0.492c2.199,0.33,4.143,0.909,5.822,1.742
		c1.682,0.832,3.016,1.956,4,3.369c0.984,1.414,1.477,3.179,1.477,5.299c0,3.736-1.348,6.662-4.041,8.782
		c-2.695,2.12-6.218,3.609-10.562,4.466v0.151c5.157,0.202,9.227,1.287,12.213,3.256c2.985,1.969,4.479,5.122,4.479,9.463
		c0,2.828-0.668,5.2-2,7.118c-1.336,1.919-3.072,3.472-5.217,4.655c-2.145,1.187-4.509,2.017-7.085,2.496
		c-2.581,0.482-5.146,0.722-7.692,0.722c-1.395,0-2.797-0.026-4.219-0.077c-1.422-0.048-2.822-0.076-4.217-0.076
		c-1.39,0-2.797,0-4.213,0c-1.425,0-2.828,0.053-4.218,0.153c0.175-3.229,0.331-6.448,0.479-9.652
		c0.144-3.207,0.216-6.476,0.216-9.806V21.682C234.854,18.352,234.781,15.071,234.64,11.839z M252.719,24.861
		c2.001-0.353,3.78-0.945,5.349-1.779c1.564-0.833,2.822-1.942,3.779-3.331c0.957-1.388,1.435-3.143,1.435-5.262
		c0-2.068-0.433-3.721-1.304-4.959c-0.869-1.235-1.971-2.195-3.303-2.876c-1.334-0.682-2.841-1.135-4.521-1.363
		c-1.682-0.228-3.362-0.34-5.041-0.34c-1.508,0-2.783,0.037-3.825,0.112c-1.043,0.076-1.972,0.166-2.781,0.266
		c-0.116,2.423-0.231,4.821-0.351,7.192c-0.114,2.373-0.172,4.771-0.172,7.192v5.678h4.694
		C248.707,25.392,250.722,25.214,252.719,24.861z M242.156,43.562c0.116,2.522,0.231,5.071,0.35,7.645
		c1.101,0.104,2.403,0.188,3.912,0.268c1.505,0.074,3.041,0.111,4.606,0.111c1.854,0,3.636-0.275,5.346-0.832
		c1.709-0.554,3.202-1.375,4.477-2.461c1.274-1.082,2.291-2.422,3.043-4.012c0.754-1.59,1.131-3.396,1.131-5.413
		c0-2.17-0.449-3.949-1.348-5.338c-0.896-1.388-2.188-2.473-3.871-3.256c-1.679-0.782-3.691-1.324-6.037-1.628
		c-2.348-0.304-4.973-0.453-7.869-0.453h-3.912v7.721C241.983,38.488,242.041,41.037,242.156,43.562z"/>
</g>
<line fill="none" stroke="#9F3224" x1="0" y1="62.197" x2="274.24" y2="62.197"/>
<g>
	<path fill="#231F20" d="M6.293,75.754c0,0.585-0.069,1.131-0.205,1.63c-0.139,0.498-0.331,0.931-0.576,1.298
		c-0.306,0.455-0.667,0.799-1.084,1.026c-0.418,0.228-0.945,0.342-1.58,0.342H1.669v4.923h-1.18V71.762h2.407
		c0.532,0,0.983,0.069,1.354,0.2c0.368,0.136,0.697,0.343,0.983,0.623c0.337,0.338,0.598,0.759,0.782,1.263
		C6.2,74.348,6.293,74.982,6.293,75.754z M5.066,75.797c0-0.454-0.055-0.85-0.161-1.188c-0.109-0.338-0.272-0.61-0.49-0.825
		c-0.188-0.183-0.407-0.313-0.651-0.394c-0.244-0.08-0.554-0.123-0.927-0.123H1.669v5.28h0.995c0.477,0,0.864-0.063,1.163-0.19
		c0.296-0.127,0.54-0.33,0.725-0.606c0.188-0.286,0.32-0.584,0.397-0.897C5.026,76.54,5.066,76.188,5.066,75.797z"/>
	<path fill="#231F20" d="M13.277,84.973h-1.121v-1.1c-0.376,0.439-0.738,0.782-1.084,1.021c-0.347,0.233-0.728,0.354-1.145,0.354
		c-0.699,0-1.243-0.318-1.632-0.953c-0.389-0.636-0.584-1.568-0.584-2.8v-6.433h1.121v5.643c0,0.503,0.016,0.934,0.047,1.293
		c0.032,0.359,0.1,0.661,0.203,0.915c0.107,0.262,0.246,0.452,0.417,0.567c0.171,0.119,0.42,0.179,0.745,0.179
		c0.29,0,0.607-0.111,0.951-0.337c0.343-0.225,0.665-0.514,0.962-0.862v-7.396h1.121L13.277,84.973L13.277,84.973z"/>
	<path fill="#231F20" d="M21.338,79.941c0,0.826-0.077,1.572-0.236,2.235c-0.157,0.663-0.368,1.22-0.635,1.667
		c-0.28,0.469-0.591,0.818-0.927,1.053c-0.339,0.234-0.711,0.351-1.116,0.351c-0.377,0-0.707-0.063-0.989-0.199
		c-0.284-0.131-0.562-0.313-0.833-0.536l-0.072,0.461h-1.05V71.168h1.122V76.1c0.312-0.386,0.647-0.699,1-0.94
		c0.353-0.246,0.75-0.371,1.191-0.371c0.787,0,1.408,0.45,1.862,1.348C21.11,77.034,21.338,78.303,21.338,79.941z M20.183,79.986
		c0-1.185-0.133-2.081-0.394-2.692c-0.261-0.61-0.684-0.919-1.27-0.919c-0.326,0-0.655,0.105-0.989,0.314
		c-0.333,0.211-0.645,0.48-0.929,0.811v5.678c0.317,0.215,0.59,0.361,0.818,0.445c0.23,0.083,0.488,0.123,0.778,0.123
		c0.62,0,1.104-0.303,1.458-0.905C20.006,82.232,20.183,81.28,20.183,79.986z"/>
	<path fill="#231F20" d="M24.217,84.973h-1.12V71.168h1.12V84.973z"/>
	<path fill="#231F20" d="M27.635,73.402h-1.262v-1.73h1.262V73.402z M27.564,84.973h-1.12v-9.91h1.12V84.973z"/>
	<path fill="#231F20" d="M34.703,84.35c-0.373,0.267-0.727,0.476-1.062,0.623c-0.336,0.146-0.693,0.223-1.072,0.223
		c-0.48,0-0.921-0.104-1.322-0.313s-0.745-0.53-1.03-0.956c-0.29-0.425-0.514-0.965-0.673-1.615
		c-0.159-0.649-0.238-1.41-0.238-2.279c0-1.619,0.297-2.891,0.897-3.815c0.598-0.921,1.387-1.382,2.366-1.382
		c0.382,0,0.756,0.08,1.124,0.238c0.367,0.158,0.705,0.354,1.01,0.586v1.854h-0.06c-0.341-0.396-0.695-0.701-1.058-0.914
		c-0.362-0.212-0.717-0.318-1.063-0.318c-0.636,0-1.137,0.318-1.504,0.955c-0.368,0.638-0.552,1.565-0.552,2.797
		c0,1.195,0.179,2.115,0.54,2.756c0.359,0.643,0.865,0.961,1.516,0.961c0.226,0,0.458-0.044,0.692-0.131
		c0.234-0.09,0.443-0.205,0.631-0.346c0.163-0.125,0.315-0.254,0.458-0.395c0.143-0.139,0.256-0.262,0.339-0.361h0.06L34.703,84.35
		L34.703,84.35z"/>
	<path fill="#231F20" d="M47.37,84.012c-0.219,0.144-0.415,0.278-0.592,0.401c-0.179,0.123-0.409,0.254-0.695,0.389
		c-0.242,0.115-0.504,0.212-0.788,0.29c-0.284,0.079-0.598,0.119-0.939,0.119c-0.643,0-1.229-0.131-1.756-0.4
		c-0.527-0.271-0.984-0.692-1.374-1.268c-0.38-0.562-0.678-1.273-0.893-2.141c-0.214-0.866-0.324-1.875-0.324-3.022
		c0-1.09,0.104-2.062,0.312-2.92c0.207-0.856,0.504-1.58,0.892-2.172c0.378-0.576,0.835-1.013,1.368-1.313
		c0.533-0.303,1.127-0.453,1.78-0.453c0.476,0,0.951,0.088,1.425,0.259c0.476,0.171,1.002,0.473,1.583,0.905v2.084h-0.087
		c-0.49-0.609-0.975-1.053-1.455-1.33s-0.996-0.418-1.542-0.418c-0.451,0-0.854,0.107-1.213,0.326
		c-0.361,0.215-0.68,0.549-0.963,1.004c-0.274,0.445-0.488,1.006-0.639,1.685c-0.155,0.675-0.23,1.457-0.23,2.345
		c0,0.928,0.085,1.729,0.254,2.396c0.168,0.666,0.385,1.211,0.651,1.632c0.278,0.437,0.604,0.762,0.975,0.973
		c0.371,0.21,0.762,0.313,1.177,0.313c0.568,0,1.1-0.146,1.596-0.436c0.496-0.29,0.962-0.725,1.396-1.305h0.082L47.37,84.012
		L47.37,84.012z"/>
	<path fill="#231F20" d="M54.622,80.021c0,1.615-0.278,2.891-0.833,3.822c-0.558,0.934-1.3,1.402-2.235,1.402
		c-0.941,0-1.689-0.469-2.243-1.402c-0.554-0.933-0.832-2.207-0.832-3.822c0-1.616,0.278-2.892,0.832-3.828
		c0.554-0.938,1.302-1.406,2.243-1.406c0.935,0,1.677,0.47,2.235,1.406C54.344,77.131,54.622,78.405,54.622,80.021z M53.466,80.021
		c0-1.282-0.168-2.235-0.508-2.858c-0.337-0.627-0.806-0.938-1.405-0.938c-0.607,0-1.08,0.312-1.416,0.938
		c-0.335,0.623-0.502,1.576-0.502,2.858c0,1.242,0.169,2.184,0.505,2.826c0.338,0.645,0.809,0.961,1.413,0.961
		c0.596,0,1.064-0.316,1.403-0.953C53.295,82.223,53.466,81.275,53.466,80.021z"/>
	<path fill="#231F20" d="M66.068,84.973h-1.12v-5.642c0-0.429-0.014-0.838-0.04-1.235c-0.025-0.396-0.079-0.712-0.164-0.947
		c-0.092-0.256-0.221-0.449-0.394-0.576c-0.169-0.131-0.417-0.196-0.736-0.196c-0.316,0-0.629,0.117-0.943,0.353
		c-0.313,0.233-0.627,0.526-0.941,0.889c0.012,0.138,0.022,0.298,0.03,0.477c0.008,0.184,0.012,0.357,0.012,0.536v6.345h-1.12
		v-5.642c0-0.44-0.014-0.854-0.04-1.247c-0.026-0.393-0.08-0.711-0.163-0.943c-0.092-0.256-0.224-0.445-0.393-0.572
		c-0.173-0.127-0.418-0.192-0.741-0.192c-0.306,0-0.611,0.113-0.919,0.335c-0.31,0.227-0.615,0.514-0.921,0.862v7.399h-1.122v-9.91
		h1.122v1.101c0.349-0.433,0.697-0.771,1.044-1.013c0.349-0.241,0.719-0.362,1.113-0.362c0.453,0,0.837,0.142,1.153,0.427
		c0.314,0.281,0.551,0.676,0.706,1.18c0.453-0.567,0.866-0.978,1.239-1.228c0.375-0.252,0.774-0.379,1.197-0.379
		c0.73,0,1.271,0.331,1.618,0.99c0.348,0.659,0.522,1.579,0.522,2.764L66.068,84.973L66.068,84.973z"/>
	<path fill="#231F20" d="M74.082,79.898c0,0.802-0.077,1.541-0.232,2.203c-0.154,0.668-0.373,1.228-0.654,1.69
		c-0.263,0.438-0.572,0.776-0.928,1.017c-0.355,0.238-0.73,0.357-1.129,0.357c-0.346,0-0.657-0.057-0.939-0.169
		c-0.279-0.112-0.563-0.287-0.854-0.521v4.147h-1.122V75.062h1.122v1.035c0.298-0.373,0.633-0.683,1.004-0.933
		c0.371-0.252,0.767-0.379,1.188-0.379c0.803,0,1.427,0.45,1.873,1.354C73.86,77.044,74.082,78.295,74.082,79.898z M72.927,79.941
		c0-1.194-0.137-2.088-0.411-2.68c-0.275-0.592-0.694-0.888-1.262-0.888c-0.324,0-0.647,0.104-0.974,0.312
		c-0.325,0.207-0.637,0.478-0.936,0.813v5.618c0.317,0.211,0.592,0.357,0.819,0.433c0.229,0.08,0.487,0.115,0.776,0.115
		c0.626,0,1.112-0.313,1.46-0.94C72.752,82.102,72.927,81.173,72.927,79.941z"/>
	<path fill="#231F20" d="M81.001,84.973h-1.114v-1.056c-0.101,0.099-0.234,0.242-0.402,0.42c-0.169,0.183-0.332,0.324-0.493,0.431
		c-0.186,0.139-0.399,0.254-0.643,0.344c-0.242,0.093-0.526,0.137-0.852,0.137c-0.6,0-1.108-0.296-1.526-0.887
		c-0.416-0.592-0.625-1.346-0.625-2.264c0-0.75,0.108-1.356,0.325-1.822c0.216-0.463,0.525-0.828,0.927-1.096
		c0.405-0.268,0.892-0.447,1.46-0.544c0.567-0.093,1.177-0.163,1.829-0.21v-0.258c0-0.38-0.046-0.693-0.135-0.941
		c-0.089-0.25-0.217-0.443-0.384-0.586c-0.158-0.137-0.349-0.228-0.573-0.274c-0.222-0.048-0.453-0.071-0.696-0.071
		c-0.294,0-0.622,0.061-0.983,0.174c-0.362,0.115-0.734,0.282-1.12,0.501h-0.059v-1.694c0.219-0.088,0.533-0.186,0.947-0.291
		c0.412-0.106,0.819-0.162,1.221-0.162c0.469,0,0.877,0.06,1.225,0.175c0.348,0.114,0.647,0.312,0.902,0.592
		c0.251,0.271,0.441,0.623,0.572,1.054c0.132,0.432,0.197,0.967,0.197,1.606V84.973z M79.887,82.531v-2.76
		c-0.341,0.031-0.744,0.074-1.207,0.135c-0.462,0.06-0.829,0.144-1.1,0.259c-0.321,0.135-0.582,0.347-0.78,0.635
		c-0.198,0.286-0.298,0.679-0.298,1.185c0,0.566,0.115,0.996,0.346,1.281c0.23,0.285,0.582,0.43,1.054,0.43
		c0.395,0,0.754-0.111,1.078-0.342C79.306,83.126,79.609,82.854,79.887,82.531z"/>
	<path fill="#231F20" d="M88.723,84.973h-1.119v-5.642c0-0.457-0.018-0.882-0.054-1.282c-0.036-0.398-0.102-0.713-0.196-0.938
		c-0.1-0.25-0.242-0.434-0.43-0.553c-0.187-0.123-0.429-0.185-0.727-0.185c-0.306,0-0.627,0.112-0.958,0.335
		c-0.336,0.227-0.655,0.514-0.961,0.861v7.4h-1.121v-9.91h1.121v1.101c0.35-0.433,0.712-0.771,1.084-1.013
		c0.375-0.241,0.757-0.362,1.151-0.362c0.719,0,1.267,0.323,1.644,0.967c0.379,0.644,0.565,1.572,0.565,2.787L88.723,84.973
		L88.723,84.973z"/>
	<path fill="#231F20" d="M96.517,75.062l-3.885,13.562h-1.198l1.239-4.133l-2.651-9.431h1.216l2.044,7.347l2.061-7.347h1.174V75.062
		z"/>
	<path fill="#231F20" d="M109.358,84.973H108.1l-0.869-3.685h-3.837l-0.87,3.685h-1.197l3.229-13.211h1.573L109.358,84.973z
		 M106.867,79.781l-1.555-6.485l-1.562,6.485H106.867z"/>
	<path fill="#231F20" d="M115.536,84.35c-0.374,0.267-0.729,0.476-1.063,0.623c-0.336,0.146-0.691,0.223-1.07,0.223
		c-0.48,0-0.921-0.104-1.322-0.313s-0.744-0.53-1.03-0.956c-0.29-0.425-0.514-0.965-0.675-1.615
		c-0.158-0.649-0.238-1.41-0.238-2.279c0-1.619,0.3-2.891,0.898-3.815c0.598-0.921,1.387-1.382,2.367-1.382
		c0.381,0,0.757,0.08,1.124,0.238c0.367,0.158,0.704,0.354,1.01,0.586v1.854h-0.06c-0.341-0.396-0.694-0.701-1.058-0.914
		c-0.363-0.212-0.718-0.318-1.064-0.318c-0.635,0-1.138,0.318-1.503,0.955c-0.369,0.638-0.552,1.565-0.552,2.797
		c0,1.195,0.179,2.115,0.54,2.756c0.359,0.643,0.865,0.961,1.515,0.961c0.227,0,0.457-0.044,0.693-0.131
		c0.233-0.09,0.442-0.205,0.631-0.346c0.163-0.125,0.314-0.254,0.459-0.395c0.143-0.139,0.255-0.262,0.339-0.361h0.06L115.536,84.35
		L115.536,84.35z"/>
	<path fill="#231F20" d="M121.895,84.35c-0.375,0.267-0.729,0.476-1.063,0.623c-0.336,0.146-0.692,0.223-1.07,0.223
		c-0.479,0-0.921-0.104-1.322-0.313s-0.745-0.53-1.03-0.956c-0.29-0.425-0.514-0.965-0.675-1.615
		c-0.158-0.649-0.238-1.41-0.238-2.279c0-1.619,0.3-2.891,0.898-3.815c0.597-0.921,1.387-1.382,2.367-1.382
		c0.381,0,0.756,0.08,1.124,0.238c0.367,0.158,0.703,0.354,1.01,0.586v1.854h-0.06c-0.341-0.396-0.694-0.701-1.058-0.914
		c-0.363-0.212-0.719-0.318-1.064-0.318c-0.635,0-1.137,0.318-1.504,0.955c-0.368,0.638-0.551,1.565-0.551,2.797
		c0,1.195,0.179,2.115,0.539,2.756c0.359,0.643,0.865,0.961,1.516,0.961c0.227,0,0.457-0.044,0.693-0.131
		c0.232-0.09,0.442-0.205,0.631-0.346c0.163-0.125,0.314-0.254,0.459-0.395c0.143-0.139,0.255-0.262,0.339-0.361h0.06L121.895,84.35
		L121.895,84.35z"/>
	<path fill="#231F20" d="M129.002,80.021c0,1.615-0.278,2.891-0.834,3.822c-0.557,0.934-1.3,1.402-2.235,1.402
		c-0.94,0-1.689-0.469-2.243-1.402c-0.553-0.933-0.831-2.207-0.831-3.822c0-1.616,0.278-2.892,0.831-3.828
		c0.554-0.938,1.303-1.406,2.243-1.406c0.936,0,1.679,0.47,2.235,1.406C128.724,77.131,129.002,78.405,129.002,80.021z
		 M127.847,80.021c0-1.282-0.169-2.235-0.509-2.858c-0.336-0.627-0.805-0.938-1.405-0.938c-0.607,0-1.08,0.312-1.415,0.938
		c-0.336,0.623-0.503,1.576-0.503,2.858c0,1.242,0.169,2.184,0.507,2.826c0.337,0.645,0.808,0.961,1.411,0.961
		c0.596,0,1.064-0.316,1.403-0.953C127.676,82.223,127.847,81.275,127.847,80.021z"/>
	<path fill="#231F20" d="M136.254,84.973h-1.121v-1.1c-0.377,0.439-0.737,0.782-1.084,1.021c-0.346,0.233-0.728,0.354-1.145,0.354
		c-0.698,0-1.243-0.318-1.632-0.953c-0.389-0.636-0.584-1.568-0.584-2.8v-6.433h1.12v5.643c0,0.503,0.016,0.934,0.048,1.293
		c0.032,0.359,0.1,0.661,0.202,0.915c0.107,0.262,0.246,0.452,0.417,0.567c0.172,0.119,0.42,0.179,0.746,0.179
		c0.289,0,0.606-0.111,0.949-0.337c0.344-0.225,0.665-0.514,0.962-0.862v-7.396h1.121L136.254,84.973L136.254,84.973z"/>
	<path fill="#231F20" d="M144.022,84.973h-1.119v-5.642c0-0.457-0.017-0.882-0.053-1.282c-0.037-0.398-0.103-0.713-0.197-0.938
		c-0.1-0.25-0.242-0.434-0.43-0.553c-0.187-0.123-0.429-0.185-0.727-0.185c-0.307,0-0.627,0.112-0.959,0.335
		c-0.335,0.227-0.652,0.514-0.96,0.861v7.4h-1.12v-9.91h1.12v1.101c0.349-0.433,0.712-0.771,1.084-1.013
		c0.375-0.241,0.758-0.362,1.151-0.362c0.718,0,1.266,0.323,1.644,0.967c0.379,0.644,0.565,1.572,0.565,2.787V84.973L144.022,84.973
		z"/>
	<path fill="#231F20" d="M149.638,84.881c-0.211,0.084-0.439,0.151-0.688,0.207c-0.248,0.053-0.468,0.079-0.665,0.079
		c-0.68,0-1.194-0.272-1.549-0.817c-0.354-0.543-0.529-1.416-0.529-2.617v-5.269h-0.756v-1.401h0.756v-2.851h1.12v2.851h2.312v1.401
		h-2.312v4.515c0,0.521,0.01,0.93,0.022,1.224c0.017,0.294,0.071,0.563,0.168,0.817c0.086,0.238,0.205,0.414,0.36,0.521
		c0.151,0.11,0.385,0.163,0.698,0.163c0.185,0,0.376-0.038,0.572-0.119c0.199-0.079,0.343-0.146,0.429-0.198h0.062V84.881z"/>
	<path fill="#231F20" d="M152.192,73.402h-1.264v-1.73h1.264V73.402z M152.121,84.973h-1.118v-9.91h1.118V84.973z"/>
	<path fill="#231F20" d="M159.905,84.973h-1.12v-5.642c0-0.457-0.019-0.882-0.056-1.282c-0.035-0.398-0.101-0.713-0.196-0.938
		c-0.099-0.25-0.242-0.434-0.429-0.553c-0.188-0.123-0.43-0.185-0.728-0.185c-0.306,0-0.626,0.112-0.959,0.335
		c-0.334,0.227-0.655,0.514-0.961,0.861v7.4h-1.119v-9.91h1.119v1.101c0.351-0.433,0.713-0.771,1.084-1.013
		c0.375-0.241,0.759-0.362,1.151-0.362c0.719,0,1.267,0.323,1.644,0.967c0.379,0.644,0.567,1.572,0.567,2.787v6.433H159.905z"/>
	<path fill="#231F20" d="M167.458,83.845c0,1.681-0.256,2.915-0.768,3.7c-0.514,0.786-1.299,1.18-2.366,1.18
		c-0.354,0-0.695-0.035-1.033-0.108c-0.333-0.073-0.667-0.181-0.992-0.315v-1.703h0.06c0.184,0.105,0.474,0.238,0.869,0.396
		c0.397,0.157,0.795,0.231,1.191,0.231c0.381,0,0.699-0.066,0.949-0.201s0.443-0.326,0.583-0.568
		c0.14-0.229,0.237-0.508,0.298-0.833c0.061-0.326,0.092-0.69,0.092-1.093v-0.904c-0.342,0.4-0.663,0.702-0.971,0.9
		c-0.309,0.199-0.701,0.298-1.178,0.298c-0.795,0-1.426-0.427-1.891-1.282c-0.469-0.854-0.701-2.061-0.701-3.616
		c0-0.851,0.08-1.585,0.241-2.204c0.162-0.615,0.382-1.15,0.658-1.6c0.259-0.421,0.572-0.747,0.94-0.98
		c0.369-0.233,0.738-0.352,1.104-0.352c0.384,0,0.707,0.059,0.97,0.173c0.258,0.116,0.535,0.289,0.825,0.527l0.071-0.425h1.046
		L167.458,83.845L167.458,83.845z M166.341,82.249v-5.403c-0.302-0.203-0.578-0.344-0.834-0.429
		c-0.254-0.088-0.512-0.132-0.767-0.132c-0.615,0-1.101,0.311-1.453,0.924c-0.353,0.615-0.527,1.507-0.527,2.678
		c0,1.111,0.13,1.957,0.394,2.529c0.26,0.575,0.695,0.861,1.303,0.861c0.327,0,0.654-0.092,0.98-0.278
		S166.062,82.562,166.341,82.249z"/>
	<path fill="#231F20" d="M180.658,73.28c0.358,0.589,0.637,1.312,0.829,2.172c0.191,0.856,0.289,1.83,0.289,2.918
		s-0.1,2.063-0.295,2.926c-0.196,0.862-0.472,1.576-0.823,2.147c-0.366,0.601-0.802,1.049-1.3,1.351s-1.067,0.453-1.707,0.453
		c-0.623,0-1.188-0.155-1.7-0.461c-0.511-0.31-0.943-0.755-1.302-1.343c-0.356-0.584-0.633-1.303-0.824-2.155
		c-0.193-0.851-0.29-1.822-0.29-2.918c0-1.076,0.095-2.041,0.288-2.896c0.191-0.854,0.47-1.588,0.833-2.194
		c0.35-0.58,0.784-1.024,1.301-1.335c0.521-0.305,1.084-0.461,1.694-0.461c0.64,0,1.207,0.16,1.716,0.47
		C179.874,72.264,180.306,72.704,180.658,73.28z M180.551,78.37c0-1.715-0.259-3.037-0.774-3.968c-0.519-0.933-1.223-1.4-2.115-1.4
		c-0.901,0-1.612,0.469-2.126,1.4c-0.515,0.931-0.769,2.253-0.769,3.968c0,1.735,0.26,3.062,0.783,3.981
		c0.526,0.92,1.229,1.377,2.11,1.377c0.881,0,1.582-0.457,2.104-1.377C180.288,81.432,180.551,80.105,180.551,78.37z"/>
	<path fill="#231F20" d="M189.313,75.062l-2.69,9.91h-1.128l-2.674-9.91h1.215l2.061,7.886l2.045-7.886H189.313z"/>
	<path fill="#231F20" d="M196.243,80.188h-4.901c0,0.611,0.058,1.145,0.185,1.597c0.121,0.452,0.291,0.821,0.505,1.112
		c0.206,0.28,0.452,0.496,0.737,0.639c0.282,0.142,0.594,0.211,0.938,0.211c0.453,0,0.906-0.131,1.368-0.401
		c0.458-0.27,0.786-0.536,0.979-0.794h0.062v1.818c-0.38,0.234-0.763,0.433-1.157,0.594c-0.395,0.16-0.809,0.24-1.239,0.24
		c-1.104,0-1.967-0.445-2.586-1.334c-0.62-0.891-0.93-2.156-0.93-3.796c0-1.62,0.296-2.906,0.892-3.859
		c0.594-0.953,1.374-1.427,2.346-1.427c0.896,0,1.588,0.391,2.076,1.169c0.485,0.782,0.729,1.89,0.729,3.327v0.904H196.243z
		 M195.155,78.912c-0.006-0.876-0.152-1.553-0.444-2.031c-0.294-0.48-0.735-0.719-1.332-0.719c-0.601,0-1.078,0.263-1.435,0.79
		c-0.356,0.524-0.558,1.18-0.604,1.96H195.155z"/>
	<path fill="#231F20" d="M202.097,76.881h-0.061c-0.169-0.061-0.33-0.101-0.486-0.127c-0.156-0.027-0.344-0.044-0.556-0.044
		c-0.347,0-0.683,0.115-1.003,0.347c-0.321,0.227-0.629,0.521-0.93,0.881v7.035h-1.121v-9.91h1.121v1.463
		c0.444-0.532,0.836-0.906,1.178-1.129c0.34-0.223,0.687-0.334,1.037-0.334c0.195,0,0.336,0.008,0.426,0.024
		c0.086,0.013,0.219,0.039,0.395,0.081V76.881z"/>
	<path fill="#231F20" d="M207.903,82.114c0,0.905-0.252,1.646-0.752,2.228c-0.502,0.579-1.19,0.869-2.062,0.869
		c-0.489,0-0.942-0.085-1.354-0.26c-0.409-0.174-0.758-0.367-1.034-0.574v-1.872h0.062c0.355,0.396,0.748,0.713,1.18,0.947
		c0.433,0.233,0.848,0.35,1.246,0.35c0.492,0,0.875-0.118,1.153-0.356c0.278-0.234,0.417-0.607,0.417-1.116
		c0-0.392-0.072-0.687-0.225-0.89c-0.15-0.198-0.44-0.371-0.869-0.513c-0.159-0.056-0.367-0.114-0.624-0.187
		c-0.254-0.071-0.488-0.146-0.7-0.23c-0.584-0.23-0.999-0.566-1.242-1.017c-0.244-0.444-0.365-0.996-0.365-1.647
		c0-0.404,0.058-0.789,0.168-1.15c0.113-0.361,0.287-0.684,0.52-0.969c0.221-0.277,0.504-0.496,0.848-0.66
		c0.344-0.162,0.729-0.246,1.153-0.246c0.396,0,0.798,0.076,1.207,0.222c0.406,0.146,0.744,0.319,1.015,0.526v1.781h-0.061
		c-0.285-0.312-0.633-0.576-1.044-0.789c-0.407-0.22-0.81-0.326-1.203-0.326c-0.408,0-0.754,0.117-1.036,0.35
		c-0.281,0.234-0.423,0.58-0.423,1.043c0,0.406,0.088,0.716,0.256,0.923c0.167,0.206,0.438,0.375,0.812,0.504
		c0.205,0.071,0.438,0.145,0.693,0.216c0.258,0.07,0.471,0.135,0.643,0.193c0.52,0.18,0.921,0.482,1.203,0.913
		C207.765,80.812,207.903,81.395,207.903,82.114z"/>
	<path fill="#231F20" d="M210.711,73.402h-1.263v-1.73h1.263V73.402z M210.64,84.973h-1.119v-9.91h1.119V84.973z"/>
	<path fill="#231F20" d="M218.255,83.845c0,1.681-0.254,2.915-0.767,3.7c-0.515,0.786-1.302,1.18-2.366,1.18
		c-0.354,0-0.698-0.035-1.034-0.108s-0.665-0.181-0.989-0.315v-1.703h0.058c0.183,0.105,0.474,0.238,0.868,0.396
		c0.396,0.157,0.797,0.231,1.193,0.231c0.381,0,0.696-0.066,0.946-0.201s0.444-0.326,0.584-0.568
		c0.14-0.229,0.237-0.508,0.298-0.833c0.062-0.326,0.089-0.69,0.089-1.093v-0.904c-0.339,0.4-0.661,0.702-0.967,0.9
		c-0.31,0.199-0.702,0.298-1.179,0.298c-0.792,0-1.426-0.427-1.891-1.282c-0.467-0.854-0.701-2.061-0.701-3.616
		c0-0.851,0.082-1.585,0.24-2.204c0.161-0.615,0.381-1.15,0.659-1.6c0.259-0.421,0.573-0.747,0.94-0.98
		c0.369-0.233,0.738-0.352,1.104-0.352c0.385,0,0.708,0.059,0.967,0.173c0.262,0.116,0.536,0.289,0.825,0.527l0.072-0.425h1.048
		v8.78H218.255z M217.135,82.249v-5.403c-0.298-0.203-0.573-0.344-0.829-0.429c-0.259-0.088-0.513-0.132-0.767-0.132
		c-0.617,0-1.101,0.311-1.455,0.924c-0.354,0.615-0.53,1.507-0.53,2.678c0,1.111,0.133,1.957,0.395,2.529
		c0.264,0.575,0.695,0.861,1.306,0.861c0.326,0,0.651-0.092,0.979-0.278S216.86,82.562,217.135,82.249z"/>
	<path fill="#231F20" d="M226.022,84.973h-1.117v-5.642c0-0.457-0.02-0.882-0.055-1.282c-0.035-0.398-0.104-0.713-0.197-0.938
		c-0.101-0.25-0.242-0.434-0.43-0.553c-0.186-0.123-0.43-0.185-0.728-0.185c-0.304,0-0.627,0.112-0.958,0.335
		c-0.334,0.227-0.653,0.514-0.959,0.861v7.4h-1.122V71.168h1.122v4.994c0.35-0.434,0.711-0.77,1.082-1.012
		c0.375-0.242,0.758-0.363,1.15-0.363c0.72,0,1.27,0.322,1.645,0.967c0.379,0.643,0.564,1.572,0.564,2.787v6.432H226.022z"/>
	<path fill="#231F20" d="M231.64,84.881c-0.214,0.084-0.44,0.151-0.688,0.207c-0.249,0.053-0.47,0.079-0.663,0.079
		c-0.682,0-1.197-0.272-1.551-0.817c-0.354-0.543-0.53-1.416-0.53-2.617v-5.269h-0.756v-1.401h0.756v-2.851h1.12v2.851h2.312v1.401
		h-2.312v4.515c0,0.521,0.01,0.93,0.023,1.224c0.016,0.294,0.07,0.563,0.166,0.817c0.088,0.238,0.207,0.414,0.361,0.521
		c0.152,0.11,0.387,0.163,0.698,0.163c0.187,0,0.374-0.038,0.571-0.119c0.201-0.079,0.345-0.146,0.43-0.198h0.062V84.881z"/>
	<path fill="#231F20" d="M244.06,80.907c0,0.659-0.08,1.237-0.248,1.739c-0.168,0.504-0.391,0.916-0.672,1.242
		c-0.334,0.391-0.703,0.668-1.101,0.834c-0.401,0.166-0.907,0.25-1.522,0.25h-3.146V71.762h2.628c0.646,0,1.132,0.033,1.453,0.104
		c0.324,0.071,0.63,0.219,0.925,0.444c0.326,0.254,0.562,0.584,0.707,0.98c0.149,0.4,0.222,0.877,0.222,1.434
		c0,0.627-0.105,1.161-0.322,1.603c-0.213,0.44-0.5,0.792-0.857,1.059v0.071c0.6,0.184,1.074,0.575,1.42,1.177
		C243.887,79.234,244.06,79.99,244.06,80.907z M242.076,74.955c0-0.319-0.035-0.587-0.104-0.807
		c-0.072-0.221-0.187-0.396-0.348-0.533c-0.188-0.16-0.413-0.256-0.68-0.297c-0.267-0.038-0.596-0.06-0.988-0.06h-1.405v3.815h1.522
		c0.369,0,0.664-0.027,0.884-0.083c0.217-0.056,0.421-0.175,0.606-0.353c0.187-0.177,0.317-0.404,0.397-0.685
		C242.039,75.674,242.076,75.341,242.076,74.955z M242.833,80.979c0-0.531-0.052-0.953-0.161-1.267
		c-0.106-0.313-0.302-0.58-0.583-0.8c-0.189-0.148-0.421-0.242-0.695-0.288c-0.27-0.044-0.604-0.067-0.99-0.067h-1.853v4.916h1.562
		c0.517,0,0.938-0.037,1.269-0.119c0.329-0.08,0.601-0.228,0.812-0.44c0.222-0.229,0.385-0.492,0.486-0.788
		C242.783,81.828,242.833,81.447,242.833,80.979z"/>
	<path fill="#231F20" d="M251.319,80.021c0,1.615-0.277,2.891-0.834,3.822c-0.559,0.934-1.303,1.402-2.235,1.402
		c-0.94,0-1.688-0.469-2.243-1.402c-0.554-0.933-0.831-2.207-0.831-3.822c0-1.616,0.277-2.892,0.831-3.828
		c0.555-0.938,1.303-1.406,2.243-1.406c0.935,0,1.678,0.47,2.235,1.406C251.042,77.131,251.319,78.405,251.319,80.021z
		 M250.164,80.021c0-1.282-0.171-2.235-0.508-2.858c-0.337-0.627-0.808-0.938-1.406-0.938c-0.608,0-1.079,0.312-1.415,0.938
		c-0.335,0.623-0.504,1.576-0.504,2.858c0,1.242,0.171,2.184,0.508,2.826c0.338,0.645,0.809,0.961,1.411,0.961
		c0.597,0,1.063-0.316,1.403-0.953C249.993,82.223,250.164,81.275,250.164,80.021z"/>
	<path fill="#231F20" d="M258.224,84.973h-1.113v-1.056c-0.102,0.099-0.231,0.242-0.402,0.42c-0.169,0.183-0.331,0.324-0.49,0.431
		c-0.187,0.139-0.402,0.254-0.645,0.344c-0.242,0.093-0.526,0.137-0.852,0.137c-0.601,0-1.111-0.296-1.527-0.887
		c-0.418-0.592-0.625-1.346-0.625-2.264c0-0.75,0.108-1.356,0.324-1.822c0.217-0.463,0.526-0.828,0.926-1.096
		c0.406-0.268,0.894-0.447,1.462-0.544c0.567-0.093,1.179-0.163,1.829-0.21v-0.258c0-0.38-0.045-0.693-0.135-0.941
		c-0.088-0.25-0.217-0.443-0.386-0.586c-0.155-0.137-0.347-0.228-0.569-0.274c-0.222-0.048-0.455-0.071-0.696-0.071
		c-0.296,0-0.623,0.061-0.984,0.174c-0.36,0.115-0.733,0.282-1.121,0.501h-0.06v-1.694c0.22-0.088,0.533-0.186,0.947-0.291
		c0.414-0.106,0.82-0.162,1.222-0.162c0.471,0,0.878,0.06,1.226,0.175c0.348,0.114,0.648,0.312,0.903,0.592
		c0.25,0.271,0.44,0.623,0.571,1.054c0.131,0.432,0.195,0.967,0.195,1.606V84.973z M257.11,82.531v-2.76
		c-0.342,0.031-0.742,0.074-1.207,0.135c-0.463,0.06-0.83,0.144-1.101,0.259c-0.321,0.135-0.579,0.347-0.78,0.635
		c-0.197,0.286-0.297,0.679-0.297,1.185c0,0.566,0.114,0.996,0.348,1.281c0.228,0.285,0.578,0.43,1.054,0.43
		c0.394,0,0.753-0.111,1.078-0.342C256.53,83.126,256.832,82.854,257.11,82.531z"/>
	<path fill="#231F20" d="M264.535,76.881h-0.06c-0.168-0.061-0.328-0.101-0.486-0.127c-0.157-0.027-0.342-0.044-0.557-0.044
		c-0.346,0-0.68,0.115-1,0.347c-0.324,0.227-0.633,0.521-0.932,0.881v7.035h-1.122v-9.91h1.122v1.463
		c0.443-0.532,0.837-0.906,1.177-1.129c0.343-0.223,0.688-0.334,1.04-0.334c0.194,0,0.336,0.008,0.424,0.024
		c0.088,0.013,0.219,0.039,0.394,0.081V76.881z"/>
	<path fill="#231F20" d="M270.985,84.973h-1.116v-1.039c-0.322,0.416-0.659,0.737-1.007,0.969c-0.353,0.229-0.73,0.346-1.141,0.346
		c-0.794,0-1.425-0.457-1.892-1.366c-0.468-0.911-0.701-2.174-0.701-3.788c0-0.842,0.082-1.588,0.242-2.246
		c0.161-0.656,0.378-1.216,0.653-1.676c0.269-0.449,0.584-0.793,0.942-1.027c0.359-0.238,0.732-0.355,1.117-0.355
		c0.351,0,0.661,0.059,0.931,0.164c0.27,0.111,0.553,0.277,0.854,0.509V71.17h1.117V84.973L270.985,84.973z M269.869,82.531v-5.687
		c-0.302-0.202-0.574-0.342-0.812-0.417c-0.24-0.076-0.498-0.115-0.781-0.115c-0.629,0-1.115,0.326-1.465,0.978
		c-0.351,0.649-0.523,1.571-0.523,2.769c0,1.174,0.133,2.071,0.404,2.684c0.271,0.611,0.701,0.917,1.299,0.917
		c0.316,0,0.639-0.103,0.965-0.313C269.281,83.135,269.585,82.864,269.869,82.531z"/>
</g>
</svg>
