<!-- Generator: Adobe Illustrator 21.0.0, SVG Export Plug-In  -->
<svg version="1.1"
	 xmlns="http://www.w3.org/2000/svg" xmlns:xlink="http://www.w3.org/1999/xlink" xmlns:a="http://ns.adobe.com/AdobeSVGViewerExtensions/3.0/"
	 x="0px" y="0px" width="349.3px" height="76.6px" viewBox="0 0 349.3 76.6" style="enable-background:new 0 0 349.3 76.6;"
	 xml:space="preserve">
<style type="text/css">
	.st0{fill:#7A1600;}
</style>
<defs>
</defs>
<g>
	<g>
		<g>
			<path d="M9.6,68.1c-0.1-0.4-0.3-0.7-0.4-1.1c-0.2-0.4-0.4-0.8-0.6-1.1c-0.3-0.3-0.6-0.6-1-0.8c-0.4-0.2-0.9-0.3-1.5-0.3
				c-0.8,0-1.4,0.1-1.9,0.4c-0.5,0.3-0.8,0.7-1,1.2c-0.2,0.5-0.4,1.1-0.4,1.9c-0.1,0.7-0.1,1.5-0.1,2.4c0,1.1,0.1,2.1,0.2,2.8
				c0.1,0.7,0.3,1.3,0.6,1.8s0.6,0.7,1.1,0.9c0.4,0.2,1,0.3,1.6,0.3c0.5,0,0.9-0.1,1.3-0.3c0.4-0.2,0.7-0.5,1-0.8
				C8.8,75,9,74.6,9.2,74.2c0.2-0.4,0.4-0.8,0.5-1.3h0.3v3.4H9.7c-0.1-0.1-0.1-0.2-0.2-0.3C9.4,76,9.3,76,9.1,76
				c-0.1,0-0.3,0-0.5,0.1c-0.2,0.1-0.4,0.1-0.7,0.2c-0.3,0.1-0.6,0.1-0.9,0.2c-0.3,0.1-0.6,0.1-1,0.1c-0.8,0-1.6-0.2-2.3-0.5
				c-0.7-0.3-1.4-0.7-1.9-1.3c-0.6-0.5-1-1.2-1.3-1.9C0.2,72.2,0,71.4,0,70.6c0-0.9,0.2-1.8,0.6-2.5c0.4-0.7,0.9-1.4,1.4-1.9
				s1.2-0.9,2-1.2c0.7-0.3,1.4-0.4,2.1-0.4c0.3,0,0.7,0,1,0.1c0.3,0.1,0.6,0.1,0.8,0.2C8.1,64.9,8.3,65,8.6,65
				c0.2,0.1,0.4,0.1,0.5,0.1c0.2,0,0.3,0,0.3-0.1c0.1,0,0.1-0.1,0.2-0.3h0.3v3.3H9.6z"/>
			<path d="M23.1,64.8v2.8h-0.2c-0.1-0.2-0.1-0.4-0.3-0.7c-0.1-0.3-0.3-0.6-0.5-0.8c-0.2-0.3-0.5-0.5-0.9-0.7
				c-0.4-0.2-0.8-0.3-1.3-0.3h-2.6v5h0.9c0.4,0,0.7-0.1,1-0.2c0.3-0.1,0.5-0.3,0.7-0.5c0.2-0.2,0.3-0.5,0.5-0.8
				c0.1-0.3,0.2-0.6,0.3-1h0.2v5h-0.2c-0.1-0.3-0.2-0.6-0.3-0.9c-0.1-0.3-0.2-0.5-0.4-0.8c-0.2-0.2-0.4-0.4-0.6-0.5
				c-0.3-0.1-0.6-0.2-0.9-0.2h-1.1v5.9h2.7c0.5,0,0.9-0.1,1.3-0.3c0.4-0.2,0.8-0.4,1.1-0.7c0.3-0.3,0.6-0.7,0.8-1.1
				c0.2-0.4,0.4-0.8,0.5-1.3h0.2v3.6H13.4v-0.2h1.5V65h-1.5v-0.2H23.1z"/>
			<path d="M26.9,65v-0.2h2.5c0.5,0,0.9,0,1.3,0c0.4,0,0.9,0,1.3,0c0.4,0,0.9,0,1.3,0.1c0.5,0.1,0.9,0.2,1.3,0.4
				c0.4,0.2,0.7,0.5,1,0.9c0.3,0.4,0.4,0.8,0.4,1.3c0,0.4-0.1,0.8-0.3,1.1s-0.4,0.6-0.8,0.8c-0.3,0.2-0.7,0.3-1,0.4
				c-0.4,0.1-0.8,0.2-1.1,0.2v0.1c0.5,0.1,1,0.2,1.4,0.3c0.4,0.1,0.8,0.2,1.1,0.4c0.3,0.2,0.5,0.5,0.7,0.8c0.2,0.3,0.3,0.8,0.3,1.4
				c0.1,0.7,0.1,1.2,0.1,1.6s0.1,0.7,0.1,1c0.1,0.2,0.1,0.4,0.2,0.5c0.1,0.1,0.3,0.1,0.4,0.1c0.2,0,0.4-0.1,0.5-0.2
				c0.1-0.1,0.3-0.2,0.4-0.3l0.2,0.1c-0.1,0.1-0.2,0.2-0.3,0.3c-0.1,0.1-0.2,0.2-0.4,0.2c-0.1,0.1-0.3,0.1-0.5,0.2
				c-0.2,0-0.4,0.1-0.7,0.1c-0.6,0-1.1-0.1-1.4-0.3c-0.3-0.2-0.6-0.4-0.7-0.7c-0.2-0.3-0.3-0.6-0.3-0.9c0-0.3-0.1-0.6-0.1-0.9
				c0-0.4-0.1-0.9-0.1-1.3c0-0.4-0.1-0.8-0.3-1.1c-0.1-0.3-0.4-0.6-0.6-0.8c-0.3-0.2-0.7-0.3-1.2-0.3h-1.1v5.9h1.5v0.2h-5.3v-0.2
				h1.5V65H26.9z M31.4,70c0.5,0,0.9-0.1,1.2-0.2s0.5-0.3,0.6-0.5c0.1-0.2,0.2-0.5,0.3-0.8c0-0.3,0.1-0.6,0.1-0.9
				c0-0.5,0-0.9-0.1-1.2c-0.1-0.3-0.2-0.6-0.3-0.8c-0.2-0.2-0.4-0.4-0.6-0.5c-0.3-0.1-0.6-0.2-1-0.2c-0.1,0-0.2,0-0.4,0
				c-0.1,0-0.2,0-0.4,0v5H31.4z"/>
			<path d="M43.9,65c-0.4,0-0.8,0-1.1,0.1c-0.3,0.1-0.6,0.2-0.8,0.4c-0.2,0.2-0.5,0.5-0.7,0.8c-0.2,0.4-0.4,0.8-0.5,1.4h-0.2v-3
				h10.2v3h-0.2c-0.2-0.6-0.3-1-0.5-1.4c-0.2-0.4-0.4-0.6-0.7-0.8c-0.2-0.2-0.5-0.3-0.8-0.4c-0.3-0.1-0.7-0.1-1.1-0.1h-0.6v11.1h1.5
				v0.2H43v-0.2h1.5V65H43.9z"/>
			<path d="M59.2,64.8V65h-1.5v11.1h1.5v0.2h-5.3v-0.2h1.5V65h-1.5v-0.2H59.2z"/>
			<path d="M62.3,65v-0.2h9.6v2.8h-0.2c-0.2-0.4-0.3-0.7-0.5-1.1c-0.2-0.3-0.4-0.6-0.6-0.8c-0.2-0.2-0.5-0.4-0.8-0.5
				C69.4,65.1,69,65,68.6,65h-2.5v5.2h0.9c0.4,0,0.7-0.1,1-0.2c0.3-0.1,0.5-0.3,0.7-0.5c0.2-0.2,0.3-0.5,0.5-0.8
				c0.1-0.3,0.2-0.6,0.3-1h0.2v5h-0.2c-0.1-0.3-0.2-0.6-0.3-0.9c-0.1-0.3-0.2-0.5-0.4-0.8c-0.2-0.2-0.4-0.4-0.6-0.5
				c-0.3-0.1-0.6-0.2-0.9-0.2h-1.1v5.6h1.5v0.2h-5.4v-0.2h1.5V65H62.3z"/>
			<path d="M80.7,64.8V65h-1.5v11.1h1.5v0.2h-5.3v-0.2h1.5V65h-1.5v-0.2H80.7z"/>
			<path d="M93.5,64.8v2.8h-0.2c-0.1-0.2-0.1-0.4-0.3-0.7c-0.1-0.3-0.3-0.6-0.5-0.8c-0.2-0.3-0.5-0.5-0.9-0.7
				c-0.4-0.2-0.8-0.3-1.3-0.3h-2.6v5h0.9c0.4,0,0.7-0.1,1-0.2c0.3-0.1,0.5-0.3,0.7-0.5c0.2-0.2,0.3-0.5,0.5-0.8
				c0.1-0.3,0.2-0.6,0.3-1h0.2v5H91c-0.1-0.3-0.2-0.6-0.3-0.9c-0.1-0.3-0.2-0.5-0.4-0.8c-0.2-0.2-0.4-0.4-0.6-0.5
				c-0.3-0.1-0.6-0.2-0.9-0.2h-1.1v5.9h2.7c0.5,0,0.9-0.1,1.3-0.3c0.4-0.2,0.8-0.4,1.1-0.7c0.3-0.3,0.6-0.7,0.8-1.1
				c0.2-0.4,0.4-0.8,0.5-1.3h0.2v3.6H83.8v-0.2h1.5V65h-1.5v-0.2H93.5z"/>
			<path d="M97.3,65v-0.2h1.5c0.6,0,1.1,0,1.7,0c0.6,0,1.1,0,1.7,0c0.5,0,1,0,1.5,0.1c0.5,0.1,1.1,0.2,1.6,0.3
				c0.5,0.2,1,0.4,1.5,0.7c0.5,0.3,0.9,0.6,1.3,1.1c0.4,0.4,0.7,0.9,0.9,1.5c0.2,0.6,0.3,1.3,0.3,2.1c0,0.8-0.1,1.5-0.3,2.1
				c-0.2,0.6-0.5,1.1-0.9,1.5c-0.4,0.4-0.8,0.8-1.2,1.1c-0.5,0.3-0.9,0.5-1.5,0.7c-0.5,0.2-1,0.3-1.5,0.3c-0.5,0.1-0.9,0.1-1.4,0.1
				c-0.6,0-1.2,0-1.8,0c-0.6,0-1.2,0-1.8,0h-1.5v-0.2h1.5V65H97.3z M102,76.2c0.7,0,1.3-0.1,1.8-0.3c0.5-0.2,0.9-0.4,1.3-0.7
				c0.3-0.3,0.6-0.6,0.8-1s0.4-0.8,0.5-1.2c0.1-0.4,0.2-0.8,0.2-1.2c0-0.4,0-0.8,0-1.1c0-0.9-0.1-1.7-0.2-2.4
				c-0.1-0.7-0.3-1.3-0.6-1.8c-0.3-0.5-0.8-0.9-1.3-1.2c-0.6-0.3-1.3-0.4-2.3-0.4c-0.2,0-0.4,0-0.6,0c-0.2,0-0.3,0-0.4,0v11.1
				C101.4,76.1,101.7,76.2,102,76.2z"/>
			<path d="M124.1,76.1v0.2h-5.3v-0.2h1.5V65h-1.5v-0.2h1.5c0.6,0,1.1,0,1.7,0c0.6,0,1.1,0,1.7,0c0.5,0,1,0,1.6,0.1
				c0.6,0.1,1.1,0.2,1.6,0.5c0.5,0.2,0.9,0.5,1.2,0.9c0.3,0.4,0.5,0.9,0.5,1.5c0,0.4-0.1,0.8-0.3,1.2c-0.2,0.4-0.5,0.7-0.9,1
				c-0.4,0.3-1,0.5-1.6,0.7c-0.6,0.2-1.4,0.2-2.3,0.2h-0.7v5.3H124.1z M123.1,70.6c0.9,0,1.6-0.2,2-0.6c0.4-0.4,0.6-1.1,0.6-2.1
				c0-0.9-0.2-1.7-0.5-2.2c-0.4-0.5-1-0.7-1.9-0.7c-0.1,0-0.2,0-0.3,0c-0.1,0-0.2,0-0.3,0v5.6H123.1z"/>
			<path d="M136.5,64.8V65H135v7.3c0,0.5,0,1,0.1,1.5c0,0.5,0.2,0.9,0.3,1.3s0.4,0.7,0.8,0.9c0.4,0.2,0.8,0.3,1.4,0.3
				c0.6,0,1.1-0.1,1.5-0.2c0.4-0.1,0.7-0.3,1-0.5c0.3-0.2,0.5-0.5,0.6-0.7c0.1-0.3,0.2-0.6,0.3-0.8c0.1-0.3,0.1-0.5,0.1-0.8
				c0-0.2,0-0.4,0-0.6V65h-1.5v-0.2h3.2V65h-1.5v7.6c0,0.2,0,0.4,0,0.7c0,0.3-0.1,0.5-0.1,0.8c-0.1,0.3-0.2,0.6-0.3,0.9
				c-0.2,0.3-0.4,0.6-0.7,0.8c-0.3,0.2-0.7,0.4-1.1,0.6c-0.4,0.1-1,0.2-1.6,0.2c-1,0-1.9-0.1-2.5-0.3c-0.6-0.2-1.1-0.5-1.5-0.9
				c-0.3-0.4-0.6-0.8-0.7-1.3c-0.1-0.5-0.2-1-0.2-1.4V65h-1.5v-0.2H136.5z"/>
			<path d="M145.7,65v-0.2h2.5c0.5,0,0.9,0,1.3,0c0.4,0,0.9,0,1.3,0c0.4,0,0.9,0,1.3,0.1c0.5,0.1,0.9,0.2,1.3,0.4
				c0.4,0.2,0.7,0.5,0.9,0.8c0.2,0.3,0.4,0.8,0.4,1.3c0,0.5-0.1,0.9-0.4,1.2c-0.2,0.3-0.5,0.6-0.9,0.8c-0.3,0.2-0.7,0.4-1.1,0.5
				c-0.4,0.1-0.7,0.2-0.9,0.2v0.1c0.4,0,0.9,0.1,1.3,0.2s0.9,0.3,1.2,0.5s0.7,0.5,0.9,0.9c0.2,0.4,0.4,0.9,0.4,1.4
				c0,0.6-0.2,1.1-0.5,1.6c-0.3,0.4-0.7,0.7-1.2,1c-0.5,0.2-0.9,0.4-1.5,0.5c-0.5,0.1-1,0.1-1.4,0.1c-0.5,0-0.9,0-1.4,0
				c-0.4,0-0.9,0-1.4,0h-2.5v-0.2h1.5V65H145.7z M150.2,70c0.5,0,0.9-0.1,1.2-0.2s0.5-0.3,0.6-0.5c0.1-0.2,0.2-0.5,0.3-0.8
				c0-0.3,0.1-0.6,0.1-0.9c0-0.5,0-0.9-0.1-1.2c-0.1-0.3-0.2-0.6-0.3-0.8c-0.2-0.2-0.4-0.4-0.6-0.5c-0.3-0.1-0.6-0.2-1-0.2
				c-0.1,0-0.2,0-0.4,0c-0.1,0-0.2,0-0.4,0v5H150.2z M150.4,76.2c0.3,0,0.7,0,0.9-0.1c0.3-0.1,0.5-0.2,0.7-0.5
				c0.2-0.2,0.3-0.5,0.4-0.9c0.1-0.4,0.2-0.9,0.2-1.6c0-0.2,0-0.4,0-0.7c0-0.3-0.1-0.6-0.3-0.9c-0.1-0.3-0.4-0.6-0.7-0.8
				c-0.3-0.2-0.7-0.3-1.3-0.3h-0.9v5.9C149.8,76.1,150.1,76.2,150.4,76.2z"/>
			<path d="M164.2,64.8V65h-1.5v11.1h2.7c0.4,0,0.7-0.1,1.1-0.2c0.4-0.1,0.7-0.3,1-0.6c0.3-0.3,0.6-0.6,0.9-1.1
				c0.3-0.4,0.5-1,0.6-1.6h0.2v3.7h-10.3v-0.2h1.5V65h-1.5v-0.2H164.2z"/>
			<path d="M177.6,64.8V65h-1.5v11.1h1.5v0.2h-5.3v-0.2h1.5V65h-1.5v-0.2H177.6z"/>
			<path d="M190.6,68.1c-0.1-0.4-0.3-0.7-0.4-1.1c-0.2-0.4-0.4-0.8-0.6-1.1c-0.3-0.3-0.6-0.6-1-0.8c-0.4-0.2-0.9-0.3-1.5-0.3
				c-0.8,0-1.4,0.1-1.9,0.4c-0.5,0.3-0.8,0.7-1,1.2s-0.4,1.1-0.4,1.9c-0.1,0.7-0.1,1.5-0.1,2.4c0,1.1,0.1,2.1,0.2,2.8
				c0.1,0.7,0.3,1.3,0.6,1.8c0.3,0.4,0.6,0.7,1.1,0.9c0.4,0.2,1,0.3,1.6,0.3c0.5,0,0.9-0.1,1.3-0.3c0.4-0.2,0.7-0.5,1-0.8
				c0.3-0.3,0.6-0.7,0.8-1.1c0.2-0.4,0.4-0.8,0.5-1.3h0.3v3.4h-0.3c-0.1-0.1-0.1-0.2-0.2-0.3c-0.1,0-0.2-0.1-0.3-0.1
				c-0.1,0-0.3,0-0.5,0.1c-0.2,0.1-0.4,0.1-0.7,0.2c-0.3,0.1-0.6,0.1-0.9,0.2c-0.3,0.1-0.6,0.1-1,0.1c-0.8,0-1.6-0.2-2.3-0.5
				c-0.7-0.3-1.4-0.7-1.9-1.3c-0.6-0.5-1-1.2-1.3-1.9c-0.3-0.7-0.5-1.5-0.5-2.4c0-0.9,0.2-1.8,0.6-2.5c0.4-0.7,0.9-1.4,1.4-1.9
				s1.2-0.9,2-1.2c0.7-0.3,1.4-0.4,2.1-0.4c0.3,0,0.7,0,1,0.1s0.6,0.1,0.8,0.2c0.3,0.1,0.5,0.1,0.7,0.2c0.2,0.1,0.4,0.1,0.5,0.1
				c0.2,0,0.3,0,0.3-0.1c0.1,0,0.1-0.1,0.2-0.3h0.3v3.3H190.6z"/>
			<path d="M201,76.1l4.8-11.8h0.4l5.1,11.8h1.4v0.2h-5.5v-0.2h1.5l-1.9-4.3h-3.9l-1.8,4.3h1.4v0.2h-3.1v-0.2H201z M203.2,71.5h3.7
				l-1.9-4.4L203.2,71.5z"/>
			<path d="M224.7,68.1c-0.1-0.4-0.3-0.7-0.4-1.1c-0.2-0.4-0.4-0.8-0.6-1.1c-0.3-0.3-0.6-0.6-1-0.8c-0.4-0.2-0.9-0.3-1.5-0.3
				c-0.8,0-1.4,0.1-1.9,0.4c-0.5,0.3-0.8,0.7-1,1.2s-0.4,1.1-0.4,1.9c-0.1,0.7-0.1,1.5-0.1,2.4c0,1.1,0.1,2.1,0.2,2.8
				c0.1,0.7,0.3,1.3,0.6,1.8c0.3,0.4,0.6,0.7,1.1,0.9c0.4,0.2,1,0.3,1.6,0.3c0.5,0,0.9-0.1,1.3-0.3c0.4-0.2,0.7-0.5,1-0.8
				c0.3-0.3,0.6-0.7,0.8-1.1c0.2-0.4,0.4-0.8,0.5-1.3h0.3v3.4h-0.3c-0.1-0.1-0.1-0.2-0.2-0.3c-0.1,0-0.2-0.1-0.3-0.1
				c-0.1,0-0.3,0-0.5,0.1c-0.2,0.1-0.4,0.1-0.7,0.2c-0.3,0.1-0.6,0.1-0.9,0.2c-0.3,0.1-0.6,0.1-1,0.1c-0.8,0-1.6-0.2-2.3-0.5
				c-0.7-0.3-1.4-0.7-1.9-1.3c-0.6-0.5-1-1.2-1.3-1.9c-0.3-0.7-0.5-1.5-0.5-2.4c0-0.9,0.2-1.8,0.6-2.5c0.4-0.7,0.9-1.4,1.4-1.9
				s1.2-0.9,2-1.2c0.7-0.3,1.4-0.4,2.1-0.4c0.3,0,0.7,0,1,0.1s0.6,0.1,0.8,0.2c0.3,0.1,0.5,0.1,0.7,0.2c0.2,0.1,0.4,0.1,0.5,0.1
				c0.2,0,0.3,0,0.3-0.1c0.1,0,0.1-0.1,0.2-0.3h0.3v3.3H224.7z"/>
			<path d="M238.3,68.1c-0.1-0.4-0.3-0.7-0.4-1.1c-0.2-0.4-0.4-0.8-0.6-1.1c-0.3-0.3-0.6-0.6-1-0.8c-0.4-0.2-0.9-0.3-1.5-0.3
				c-0.8,0-1.4,0.1-1.9,0.4c-0.5,0.3-0.8,0.7-1,1.2c-0.2,0.5-0.4,1.1-0.4,1.9c-0.1,0.7-0.1,1.5-0.1,2.4c0,1.1,0.1,2.1,0.2,2.8
				c0.1,0.7,0.3,1.3,0.6,1.8c0.3,0.4,0.6,0.7,1.1,0.9c0.4,0.2,1,0.3,1.6,0.3c0.5,0,0.9-0.1,1.3-0.3c0.4-0.2,0.7-0.5,1-0.8
				c0.3-0.3,0.6-0.7,0.8-1.1c0.2-0.4,0.4-0.8,0.5-1.3h0.3v3.4h-0.3c-0.1-0.1-0.1-0.2-0.2-0.3c-0.1,0-0.2-0.1-0.3-0.1
				c-0.1,0-0.3,0-0.5,0.1c-0.2,0.1-0.4,0.1-0.7,0.2c-0.3,0.1-0.6,0.1-0.9,0.2c-0.3,0.1-0.6,0.1-1,0.1c-0.8,0-1.6-0.2-2.3-0.5
				c-0.7-0.3-1.4-0.7-1.9-1.3c-0.6-0.5-1-1.2-1.3-1.9c-0.3-0.7-0.5-1.5-0.5-2.4c0-0.9,0.2-1.8,0.6-2.5c0.4-0.7,0.9-1.4,1.4-1.9
				s1.2-0.9,2-1.2c0.7-0.3,1.4-0.4,2.1-0.4c0.3,0,0.7,0,1,0.1s0.6,0.1,0.8,0.2c0.3,0.1,0.5,0.1,0.7,0.2c0.2,0.1,0.4,0.1,0.5,0.1
				c0.2,0,0.3,0,0.3-0.1c0.1,0,0.1-0.1,0.2-0.3h0.3v3.3H238.3z"/>
			<path d="M242.7,68.1c0.4-0.7,0.9-1.4,1.4-1.9s1.2-0.9,2-1.2c0.7-0.3,1.4-0.4,2.1-0.4c0.7,0,1.5,0.1,2.2,0.4
				c0.7,0.3,1.4,0.7,1.9,1.2c0.6,0.5,1,1.1,1.4,1.9c0.4,0.7,0.5,1.6,0.5,2.5c0,0.8-0.2,1.6-0.5,2.3c-0.3,0.7-0.8,1.4-1.3,1.9
				c-0.6,0.6-1.2,1-1.9,1.3c-0.7,0.3-1.5,0.5-2.3,0.5c-0.8,0-1.6-0.2-2.3-0.5c-0.7-0.3-1.4-0.7-1.9-1.3c-0.6-0.5-1-1.2-1.3-1.9
				c-0.3-0.7-0.5-1.5-0.5-2.4C242.1,69.7,242.3,68.8,242.7,68.1z M245,73.4c0.1,0.7,0.3,1.3,0.6,1.8s0.6,0.7,1.1,0.9
				c0.4,0.2,1,0.3,1.6,0.3c0.8,0,1.4-0.1,1.9-0.4s0.8-0.7,1-1.2c0.2-0.5,0.4-1.1,0.4-1.9c0.1-0.7,0.1-1.5,0.1-2.3
				c0-0.8,0-1.5-0.1-2.2c0-0.7-0.2-1.3-0.4-1.8c-0.2-0.5-0.6-0.9-1-1.2c-0.5-0.3-1.1-0.5-1.9-0.5c-0.8,0-1.4,0.1-1.8,0.4
				c-0.5,0.3-0.8,0.7-1,1.2c-0.2,0.5-0.4,1.1-0.5,1.8c-0.1,0.7-0.1,1.5-0.1,2.4C244.8,71.7,244.8,72.7,245,73.4z"/>
			<path d="M262.7,64.8V65h-1.5v7.3c0,0.5,0,1,0.1,1.5c0,0.5,0.2,0.9,0.3,1.3c0.2,0.4,0.4,0.7,0.8,0.9c0.4,0.2,0.8,0.3,1.4,0.3
				c0.6,0,1.1-0.1,1.5-0.2c0.4-0.1,0.7-0.3,1-0.5c0.3-0.2,0.5-0.5,0.6-0.7c0.1-0.3,0.2-0.6,0.3-0.8c0.1-0.3,0.1-0.5,0.1-0.8
				s0-0.4,0-0.6V65h-1.5v-0.2h3.2V65h-1.5v7.6c0,0.2,0,0.4,0,0.7s-0.1,0.5-0.1,0.8c-0.1,0.3-0.2,0.6-0.3,0.9
				c-0.2,0.3-0.4,0.6-0.7,0.8c-0.3,0.2-0.7,0.4-1.1,0.6c-0.4,0.1-1,0.2-1.6,0.2c-1,0-1.9-0.1-2.5-0.3c-0.6-0.2-1.1-0.5-1.5-0.9
				c-0.3-0.4-0.6-0.8-0.7-1.3c-0.1-0.5-0.2-1-0.2-1.4V65h-1.5v-0.2H262.7z"/>
			<path d="M275.7,64.8l5.4,7.7h0V65h-1.5v-0.2h3.2V65h-1.5v11.3H281l-7.3-10.4h0v10.2h1.5v0.2h-3.2v-0.2h1.5V65h-1.5v-0.2H275.7z"
				/>
			<path d="M289.2,65c-0.4,0-0.8,0-1.1,0.1s-0.6,0.2-0.8,0.4c-0.2,0.2-0.5,0.5-0.7,0.8c-0.2,0.4-0.4,0.8-0.5,1.4h-0.2v-3H296v3h-0.2
				c-0.2-0.6-0.3-1-0.5-1.4c-0.2-0.4-0.4-0.6-0.7-0.8c-0.2-0.2-0.5-0.3-0.8-0.4c-0.3-0.1-0.7-0.1-1.1-0.1h-0.6v11.1h1.5v0.2h-5.3
				v-0.2h1.5V65H289.2z"/>
			<path d="M299.5,76.1l4.8-11.8h0.4l5.1,11.8h1.4v0.2h-5.5v-0.2h1.5l-1.9-4.3h-3.9l-1.8,4.3h1.4v0.2h-3.1v-0.2H299.5z M301.6,71.5
				h3.7l-1.9-4.4L301.6,71.5z"/>
			<path d="M317.1,64.8l5.4,7.7h0V65H321v-0.2h3.2V65h-1.5v11.3h-0.4L315,65.9h0v10.2h1.5v0.2h-3.2v-0.2h1.5V65h-1.5v-0.2H317.1z"/>
			<path d="M330.6,65c-0.4,0-0.8,0-1.1,0.1c-0.3,0.1-0.6,0.2-0.8,0.4c-0.2,0.2-0.5,0.5-0.7,0.8c-0.2,0.4-0.4,0.8-0.5,1.4h-0.2v-3
				h10.2v3h-0.2c-0.2-0.6-0.3-1-0.5-1.4c-0.2-0.4-0.4-0.6-0.7-0.8c-0.2-0.2-0.5-0.3-0.8-0.4c-0.3-0.1-0.7-0.1-1.1-0.1h-0.6v11.1h1.5
				v0.2h-5.3v-0.2h1.5V65H330.6z"/>
			<path d="M341.2,72.7c0,0.1,0.1,0.3,0.1,0.5c0.1,0.2,0.1,0.4,0.2,0.7c0.1,0.2,0.2,0.5,0.4,0.7c0.2,0.3,0.3,0.5,0.6,0.7
				c0.2,0.2,0.5,0.4,0.7,0.6c0.2,0.1,0.5,0.2,0.7,0.3c0.2,0.1,0.4,0.1,0.6,0.1c0.2,0,0.4,0,0.5,0c0.6,0,1-0.1,1.4-0.3
				s0.7-0.4,0.9-0.7c0.2-0.3,0.4-0.5,0.4-0.8c0.1-0.3,0.1-0.5,0.1-0.8c0-0.4-0.1-0.7-0.3-1c-0.2-0.3-0.4-0.5-0.8-0.6
				c-0.3-0.2-0.7-0.3-1.1-0.4c-0.4-0.1-0.8-0.2-1.2-0.4c-0.4-0.1-0.8-0.3-1.2-0.4c-0.4-0.2-0.8-0.4-1.1-0.6c-0.3-0.3-0.6-0.6-0.8-1
				c-0.2-0.4-0.3-0.9-0.3-1.5c0-0.4,0.1-0.8,0.3-1.2c0.2-0.4,0.5-0.8,0.8-1.1c0.3-0.3,0.8-0.6,1.2-0.7c0.5-0.2,1-0.3,1.6-0.3
				c0.4,0,0.7,0,0.9,0.1c0.3,0.1,0.5,0.1,0.7,0.2c0.2,0.1,0.4,0.1,0.5,0.2c0.2,0.1,0.3,0.1,0.4,0.1c0.2,0,0.3,0,0.3-0.1
				c0,0,0.1-0.1,0.2-0.3h0.3v3.1h-0.2c-0.1-0.4-0.3-0.8-0.4-1.1c-0.1-0.4-0.3-0.7-0.6-1c-0.2-0.3-0.5-0.5-0.9-0.7
				c-0.3-0.2-0.8-0.3-1.3-0.3c-0.4,0-0.8,0.1-1.1,0.2c-0.3,0.1-0.6,0.3-0.8,0.5c-0.2,0.2-0.4,0.4-0.5,0.6c-0.1,0.2-0.2,0.5-0.2,0.7
				c0,0.4,0.1,0.7,0.3,0.9c0.2,0.2,0.5,0.5,0.8,0.6c0.3,0.2,0.7,0.3,1.1,0.5c0.4,0.1,0.8,0.3,1.3,0.4c0.4,0.1,0.9,0.3,1.3,0.5
				c0.4,0.2,0.8,0.4,1.1,0.6c0.3,0.3,0.6,0.6,0.8,0.9c0.2,0.4,0.3,0.8,0.3,1.4c0,0.5-0.1,1-0.3,1.5c-0.2,0.5-0.5,0.9-0.9,1.2
				c-0.4,0.4-0.9,0.6-1.4,0.9c-0.5,0.2-1.2,0.3-1.8,0.3c-0.3,0-0.7,0-1-0.1c-0.3-0.1-0.6-0.1-0.9-0.2c-0.3-0.1-0.5-0.1-0.8-0.2
				c-0.2-0.1-0.4-0.1-0.5-0.1c-0.2,0-0.3,0-0.3,0.1c-0.1,0-0.1,0.1-0.2,0.3h-0.3v-3.6H341.2z"/>
		</g>
		<g>
			<path class="st0" d="M13.9,0.5V1H10v21.9h7c0.9,0,1.9-0.1,2.8-0.4c0.9-0.2,1.8-0.6,2.7-1.2c0.8-0.5,1.6-1.2,2.2-2.1
				c0.7-0.9,1.2-1.9,1.5-3.2h0.5v7.2H0v-0.4h3.9V1H0V0.5H13.9z"/>
			<path class="st0" d="M45.8,0.5V1h-3.9v21.9h3.9v0.4H31.8v-0.4h3.9V1h-3.9V0.5H45.8z"/>
			<path class="st0" d="M76,7c-0.7-2.1-1.8-3.7-3.3-4.9c-1.5-1.2-3.4-1.7-5.9-1.7c-1.9,0-3.5,0.3-4.7,0.8c-1.2,0.6-2.1,1.3-2.7,2.2
				c-0.6,0.9-1.1,1.9-1.2,3.1C58,7.8,57.9,9,57.9,10.2v2.8c0,1.9,0.2,3.6,0.5,4.9c0.3,1.3,0.9,2.4,1.6,3.2c0.7,0.8,1.6,1.4,2.8,1.7
				c1.1,0.4,2.5,0.5,4.1,0.5c1.3,0,2.3-0.2,3.1-0.5s1.3-0.8,1.8-1.4c0.4-0.6,0.7-1.3,0.8-2.2c0.1-0.8,0.2-1.7,0.2-2.7v-1.2h-4.4
				v-0.4h13.1v0.4h-2.7v7.3h-0.8c-0.1-0.3-0.2-0.4-0.5-0.6c-0.3-0.1-0.6-0.2-0.9-0.2c-0.7,0-1.3,0.1-1.9,0.3c-0.6,0.2-1.3,0.4-2,0.7
				c-0.7,0.2-1.5,0.5-2.4,0.7c-0.9,0.2-2,0.3-3.3,0.3c-2.1,0-4-0.3-6-0.9c-1.9-0.6-3.6-1.4-5.1-2.5c-1.5-1.1-2.6-2.3-3.5-3.7
				c-0.9-1.4-1.3-3-1.3-4.6c0-1.8,0.5-3.5,1.5-4.9c1-1.5,2.2-2.7,3.7-3.8c1.5-1,3.2-1.9,5.1-2.4C63.2,0.3,65,0,66.8,0
				c0.8,0,1.7,0.1,2.5,0.2c0.8,0.1,1.5,0.3,2.2,0.4c0.7,0.1,1.3,0.3,1.8,0.4c0.5,0.1,1,0.2,1.4,0.2c0.4,0,0.7,0,0.8-0.1
				c0.2-0.1,0.3-0.3,0.5-0.5h0.7V7H76z"/>
			<path class="st0" d="M110.5,7c-0.7-2.1-1.8-3.7-3.3-4.9c-1.5-1.2-3.4-1.7-5.9-1.7c-1.9,0-3.5,0.3-4.7,0.8
				c-1.2,0.6-2.1,1.3-2.7,2.2c-0.6,0.9-1.1,1.9-1.2,3.1c-0.2,1.2-0.3,2.3-0.3,3.5v2.8c0,1.9,0.2,3.6,0.5,4.9
				c0.3,1.3,0.9,2.4,1.6,3.2c0.7,0.8,1.6,1.4,2.8,1.7c1.1,0.4,2.5,0.5,4.1,0.5c1.3,0,2.3-0.2,3.1-0.5c0.8-0.4,1.3-0.8,1.8-1.4
				c0.4-0.6,0.7-1.3,0.8-2.2c0.1-0.8,0.2-1.7,0.2-2.7v-1.2h-4.4v-0.4h13.1v0.4h-2.7v7.3h-0.8c-0.1-0.3-0.2-0.4-0.5-0.6
				c-0.3-0.1-0.6-0.2-0.9-0.2c-0.7,0-1.3,0.1-1.9,0.3c-0.6,0.2-1.3,0.4-2,0.7c-0.7,0.2-1.5,0.5-2.4,0.7c-0.9,0.2-2,0.3-3.3,0.3
				c-2.1,0-4-0.3-6-0.9c-1.9-0.6-3.6-1.4-5.1-2.5c-1.5-1.1-2.6-2.3-3.5-3.7c-0.9-1.4-1.3-3-1.3-4.6c0-1.8,0.5-3.5,1.5-4.9
				c1-1.5,2.2-2.7,3.7-3.8c1.5-1,3.2-1.9,5.1-2.4c1.9-0.6,3.7-0.8,5.5-0.8c0.8,0,1.7,0.1,2.5,0.2c0.8,0.1,1.5,0.3,2.2,0.4
				c0.7,0.1,1.3,0.3,1.8,0.4c0.5,0.1,1,0.2,1.4,0.2c0.4,0,0.7,0,0.8-0.1c0.2-0.1,0.3-0.3,0.5-0.5h0.7V7H110.5z"/>
			<path class="st0" d="M144.9,0.5V6h-0.5c-0.1-0.4-0.4-0.8-0.7-1.4c-0.3-0.6-0.8-1.1-1.4-1.6c-0.6-0.5-1.4-1-2.3-1.4
				c-1-0.4-2.1-0.6-3.5-0.6h-6.7v9.9h2.4c1,0,1.9-0.1,2.6-0.3c0.7-0.2,1.3-0.5,1.8-1c0.5-0.4,0.9-0.9,1.2-1.5c0.3-0.6,0.6-1.2,0.8-2
				h0.5v10h-0.5c-0.2-0.6-0.4-1.2-0.7-1.8c-0.3-0.6-0.6-1.1-1.1-1.5c-0.5-0.4-1-0.8-1.7-1c-0.7-0.3-1.5-0.4-2.5-0.4h-2.8v11.6h6.9
				c1.3,0,2.5-0.2,3.5-0.5c1-0.3,2-0.8,2.8-1.4c0.8-0.6,1.5-1.3,2-2.1c0.5-0.8,0.9-1.7,1.2-2.6h0.5v7h-27v-0.4h3.9V1h-3.9V0.5H144.9
				z"/>
			<path class="st0" d="M160.5,1c-1,0-2,0.1-2.8,0.2c-0.8,0.2-1.6,0.4-2.2,0.8c-0.6,0.4-1.2,0.9-1.7,1.6c-0.5,0.7-1,1.6-1.4,2.7
				h-0.5V0.5h26.5v5.9h-0.5c-0.4-1.1-0.9-2-1.4-2.7c-0.5-0.7-1.1-1.3-1.7-1.6c-0.6-0.4-1.4-0.7-2.2-0.8C171.6,1,170.7,1,169.6,1
				h-1.5v21.9h3.9v0.4h-13.9v-0.4h3.9V1H160.5z"/>
			<path class="st0" d="M191.9,1c-1,0-2,0.1-2.8,0.2c-0.8,0.2-1.6,0.4-2.2,0.8c-0.6,0.4-1.2,0.9-1.7,1.6c-0.5,0.7-1,1.6-1.4,2.7
				h-0.5V0.5h26.5v5.9h-0.5c-0.4-1.1-0.9-2-1.4-2.7C207.3,3,206.7,2.4,206,2c-0.6-0.4-1.4-0.7-2.2-0.8C203,1,202.1,1,201.1,1h-1.5
				v21.9h3.9v0.4h-13.9v-0.4h3.9V1H191.9z"/>
		</g>
		<g>
			<path class="st0" d="M21.9,48.9c0.4-1.1,0.6-2.4,0.6-4c0-0.9-0.1-1.6-0.3-2.2c-0.2-0.5-0.5-1-0.8-1.3c-0.4-0.3-0.8-0.5-1.4-0.6
				c-0.6-0.1-1.2-0.2-1.9-0.2v-0.4h8.6v0.4c-0.7,0.1-1.2,0.2-1.6,0.3c-0.4,0.1-0.8,0.3-1,0.5c-0.3,0.3-0.5,0.7-0.6,1.2
				c-0.1,0.5-0.2,1.2-0.3,2.1c0,0.4-0.1,0.9-0.1,1.5c-0.1,0.6-0.2,1.2-0.3,1.8c-0.2,0.6-0.4,1.2-0.6,1.9c-0.3,0.6-0.6,1.2-1,1.6
				l2,2.6c0.1,0.1,0.3,0.3,0.6,0.6c0.3,0.2,0.7,0.4,1.2,0.4c0.4,0,0.8-0.1,1-0.3c0.3-0.2,0.5-0.5,0.6-0.7c0.2-0.3,0.3-0.5,0.3-0.8
				c0-0.3,0.1-0.4,0.1-0.5c0-0.1,0-0.2,0-0.3c0-0.1,0-0.2-0.1-0.3h0.6c0,0,0.1,0.1,0.1,0.2c0,0.1,0,0.2,0,0.3c0,0.1,0,0.3-0.1,0.8
				c-0.1,0.4-0.3,0.9-0.6,1.4c-0.4,0.5-0.9,0.9-1.7,1.3c-0.7,0.4-1.8,0.6-3.2,0.6c-1.2,0-2.2-0.2-2.9-0.6c-0.7-0.4-1.3-0.8-1.8-1.3
				c-0.4,0.3-0.8,0.5-1.3,0.7c-0.4,0.2-0.9,0.4-1.4,0.6c-0.5,0.2-1.1,0.3-1.8,0.4c-0.7,0.1-1.5,0.2-2.4,0.2c-2.2,0-3.9-0.3-5.2-0.8
				c-1.3-0.5-2.4-1.2-3.1-1.9c-0.7-0.7-1.3-1.5-1.5-2.3C0.1,51,0,50.4,0,49.8c0-1,0.3-1.9,0.8-2.6c0.5-0.8,1.2-1.5,2-2.1
				c0.8-0.6,1.7-1.2,2.7-1.7c1-0.5,1.9-1,2.8-1.4c-0.5-0.9-0.8-1.6-1-2.2c-0.2-0.5-0.3-1.1-0.3-1.6c0-0.7,0.2-1.3,0.5-1.9
				c0.4-0.6,0.8-1.2,1.4-1.6c0.6-0.5,1.3-0.9,2-1.2c0.8-0.3,1.5-0.4,2.3-0.4c0.5,0,1,0.1,1.5,0.2c0.5,0.1,0.9,0.3,1.3,0.6
				c0.4,0.3,0.7,0.6,0.9,1c0.2,0.4,0.3,0.9,0.3,1.5c0,0.6-0.2,1.3-0.7,2c-0.5,0.7-1.5,1.5-3,2.2l7.1,10.5
				C21,50.7,21.4,49.9,21.9,48.9z M8.8,42.9c-0.2-0.3-0.3-0.5-0.4-0.6c-0.6,0.3-1.1,0.7-1.5,0.9c-0.4,0.3-0.8,0.6-1.1,0.9
				c-0.3,0.3-0.5,0.7-0.7,1C5,45.5,4.9,46,4.9,46.5c0,0.4,0.1,0.9,0.3,1.5c0.2,0.6,0.5,1.3,0.8,2c0.4,0.7,0.8,1.4,1.3,2.1
				c0.5,0.7,1,1.3,1.6,1.9c0.6,0.6,1.2,1,1.9,1.4c0.7,0.4,1.3,0.5,2,0.5c0.8,0,1.4-0.1,2.1-0.4c0.6-0.3,1.3-0.6,2-1
				c-0.3-0.3-0.5-0.5-0.7-0.8c-0.2-0.2-0.3-0.4-0.4-0.7l-6.4-9.3C9.2,43.5,9,43.2,8.8,42.9z M16.5,35.3c-0.1-0.3-0.3-0.7-0.5-0.9
				c-0.2-0.3-0.5-0.5-0.9-0.7c-0.4-0.2-0.8-0.3-1.3-0.3c-0.1,0-0.3,0-0.6,0c-0.3,0-0.6,0.1-0.9,0.2c-0.3,0.1-0.6,0.4-0.9,0.7
				c-0.3,0.3-0.4,0.7-0.4,1.3c0,0.3,0.1,0.7,0.2,1c0.1,0.4,0.3,0.8,0.5,1.2c0.2,0.4,0.5,0.8,0.7,1.2c0.3,0.4,0.5,0.8,0.8,1.1
				c0.3-0.1,0.6-0.3,1-0.5c0.4-0.2,0.8-0.5,1.1-0.8c0.4-0.3,0.7-0.7,0.9-1.1c0.2-0.4,0.4-0.9,0.4-1.4C16.6,36,16.6,35.7,16.5,35.3z"
				/>
			<path class="st0" d="M44.8,33.5V34h-3.1l7.6,16.9h0.1l4.5-9.5L50.6,34h-2.3v-0.4H61V34H57l7.7,16.9h0.1L72.6,34H69v-0.4h7.8V34
				h-3.4L62.5,57.2h-1.2l-7-15.2h-0.1l-7.1,15.2h-1.2L35.3,34h-3.5v-0.4H44.8z"/>
			<path class="st0" d="M104.8,33.5V39h-0.6c-0.1-0.4-0.4-0.8-0.7-1.4c-0.3-0.6-0.8-1.1-1.4-1.6c-0.6-0.5-1.4-1-2.4-1.4
				c-1-0.4-2.1-0.6-3.5-0.6h-6.7v9.9h2.4c1,0,1.9-0.1,2.7-0.3c0.7-0.2,1.3-0.5,1.8-1c0.5-0.4,0.9-0.9,1.2-1.5c0.3-0.6,0.6-1.2,0.8-2
				h0.6v10h-0.6c-0.2-0.6-0.4-1.2-0.7-1.8c-0.3-0.6-0.6-1.1-1.1-1.5c-0.5-0.4-1-0.8-1.7-1c-0.7-0.3-1.5-0.4-2.5-0.4h-2.8v11.6h7
				c1.3,0,2.5-0.2,3.5-0.5c1-0.3,2-0.8,2.8-1.4c0.8-0.6,1.5-1.3,2-2.1c0.5-0.8,0.9-1.7,1.2-2.6h0.6v7H79.5v-0.4h3.9V34h-3.9v-0.4
				H104.8z"/>
			<path class="st0" d="M111.6,34v-0.4h6.4c1.2,0,2.4,0,3.5,0c1.2,0,2.3,0,3.5,0c1.1,0,2.3,0.1,3.5,0.3c1.2,0.2,2.3,0.5,3.3,0.9
				c1,0.4,1.8,1,2.5,1.6c0.6,0.7,1,1.5,1,2.6c0,0.9-0.3,1.7-1,2.3c-0.6,0.6-1.4,1.1-2.3,1.6c-0.9,0.4-1.8,0.7-2.8,0.9
				c-1,0.2-1.8,0.4-2.5,0.4v0.1c1.1,0.1,2.2,0.2,3.4,0.4c1.2,0.2,2.3,0.5,3.3,1s1.8,1.1,2.5,1.8c0.6,0.7,1,1.7,1,2.8
				c0,1.2-0.4,2.3-1.3,3.1c-0.8,0.8-1.9,1.5-3.1,1.9c-1.2,0.5-2.5,0.8-3.8,1c-1.4,0.2-2.6,0.3-3.6,0.3c-1.2,0-2.4,0-3.5,0
				c-1.2,0-2.4,0-3.5,0h-6.4v-0.4h3.9V34H111.6z M123.4,43.9c1.3,0,2.3-0.1,3-0.4c0.7-0.3,1.3-0.6,1.7-1c0.4-0.4,0.6-0.9,0.7-1.5
				c0.1-0.6,0.1-1.1,0.1-1.7c0-0.9-0.1-1.7-0.3-2.4c-0.2-0.7-0.5-1.2-0.8-1.7c-0.4-0.4-0.9-0.8-1.6-1c-0.7-0.2-1.6-0.3-2.7-0.3
				c-0.3,0-0.6,0-0.9,0c-0.3,0-0.6,0-0.9,0.1v9.9H123.4z M124.1,56c0.9,0,1.7-0.1,2.4-0.2c0.7-0.2,1.3-0.5,1.8-0.9
				c0.5-0.4,0.9-1.1,1.2-1.9s0.4-1.9,0.4-3.2c0-0.4,0-0.8-0.1-1.5c-0.1-0.6-0.3-1.2-0.7-1.8c-0.4-0.6-1-1.1-1.7-1.6
				c-0.8-0.4-1.9-0.7-3.3-0.7h-2.5v11.6C122.4,56,123.3,56,124.1,56z"/>
			<path class="st0" d="M142.3,34v-0.4h6.4c1.2,0,2.4,0,3.5,0c1.2,0,2.3,0,3.5,0c1.1,0,2.3,0.1,3.5,0.3c1.2,0.2,2.3,0.5,3.3,0.9
				c1,0.4,1.8,1,2.5,1.6c0.7,0.7,1,1.5,1,2.6c0,0.9-0.3,1.7-1,2.3c-0.6,0.6-1.4,1.1-2.3,1.6c-0.9,0.4-1.8,0.7-2.8,0.9
				c-1,0.2-1.8,0.4-2.5,0.4v0.1c1.1,0.1,2.2,0.2,3.4,0.4c1.2,0.2,2.3,0.5,3.3,1c1,0.5,1.8,1.1,2.5,1.8c0.7,0.7,1,1.7,1,2.8
				c0,1.2-0.4,2.3-1.3,3.1c-0.8,0.8-1.9,1.5-3.1,1.9c-1.2,0.5-2.5,0.8-3.8,1c-1.4,0.2-2.6,0.3-3.6,0.3c-1.2,0-2.4,0-3.5,0
				c-1.2,0-2.4,0-3.5,0h-6.4v-0.4h3.9V34H142.3z M154.1,43.9c1.3,0,2.3-0.1,3-0.4c0.7-0.3,1.3-0.6,1.7-1c0.4-0.4,0.6-0.9,0.7-1.5
				c0.1-0.6,0.1-1.1,0.1-1.7c0-0.9-0.1-1.7-0.3-2.4c-0.2-0.7-0.5-1.2-0.8-1.7c-0.4-0.4-0.9-0.8-1.6-1c-0.7-0.2-1.6-0.3-2.7-0.3
				c-0.3,0-0.6,0-0.9,0c-0.3,0-0.6,0-0.9,0.1v9.9H154.1z M154.8,56c0.9,0,1.7-0.1,2.4-0.2c0.7-0.2,1.3-0.5,1.8-0.9
				c0.5-0.4,0.9-1.1,1.2-1.9c0.3-0.8,0.4-1.9,0.4-3.2c0-0.4,0-0.8-0.1-1.5c-0.1-0.6-0.3-1.2-0.7-1.8c-0.4-0.6-1-1.1-1.7-1.6
				c-0.8-0.4-1.9-0.7-3.3-0.7h-2.5v11.6C153.1,56,153.9,56,154.8,56z"/>
			<path class="st0" d="M200.3,55.9v0.4h-14v-0.4h3.9V34h-3.9v-0.4h3.9c1.4,0,2.9,0,4.3,0c1.4,0,2.9,0,4.3,0c1.3,0,2.6,0.1,4.1,0.2
				c1.5,0.2,2.8,0.5,4.1,0.9c1.2,0.4,2.3,1,3.1,1.8c0.8,0.8,1.3,1.8,1.3,3c0,0.8-0.3,1.6-0.8,2.4c-0.5,0.7-1.4,1.4-2.5,1.9
				s-2.5,1-4.2,1.3c-1.7,0.3-3.6,0.5-5.9,0.5h-1.7v10.4H200.3z M197.7,45c2.4,0,4.1-0.4,5.2-1.2c1.1-0.8,1.6-2.2,1.6-4.2
				c0-1.9-0.5-3.3-1.4-4.3c-0.9-1-2.6-1.5-5.1-1.5c-0.3,0-0.6,0-0.9,0c-0.3,0-0.5,0-0.8,0.1V45H197.7z"/>
			<path class="st0" d="M212.9,52.8c0.6-0.4,1.3-0.7,2.1-0.7c0.8,0,1.5,0.2,2.1,0.7c0.6,0.4,0.9,1,0.9,1.6c0,0.6-0.3,1.1-0.9,1.6
				c-0.6,0.4-1.3,0.7-2.1,0.7c-0.8,0-1.5-0.2-2.1-0.7c-0.6-0.4-0.9-1-0.9-1.6C212,53.8,212.3,53.2,212.9,52.8z"/>
			<path class="st0" d="M225,55.9l12.6-23.3h1.1l13.4,23.3h3.6v0.4h-14.3v-0.4h3.9l-4.9-8.6h-10.2l-4.7,8.6h3.8v0.4h-8v-0.4H225z
				 M230.6,46.9h9.8l-5-8.7L230.6,46.9z"/>
			<path class="st0" d="M260.1,52.8c0.6-0.4,1.3-0.7,2.1-0.7c0.8,0,1.5,0.2,2.1,0.7c0.6,0.4,0.9,1,0.9,1.6c0,0.6-0.3,1.1-0.9,1.6
				c-0.6,0.4-1.3,0.7-2.1,0.7c-0.8,0-1.5-0.2-2.1-0.7c-0.6-0.4-0.9-1-0.9-1.6C259.2,53.8,259.5,53.2,260.1,52.8z"/>
		</g>
	</g>
</g>
</svg>
