<?xml version="1.0" encoding="utf-8"?>
<!-- Generator: Adobe Illustrator 20.1.0, SVG Export Plug-In . SVG Version: 6.00 Build 0)  -->
<svg version="1.1" id="Final_Outlined" xmlns="http://www.w3.org/2000/svg" xmlns:xlink="http://www.w3.org/1999/xlink" x="0px"
	 y="0px" viewBox="0 0 500 77" style="enable-background:new 0 0 500 77;" xml:space="preserve">
<style type="text/css">
	.st0{fill:#7A1600;}
	.st1{fill:#929496;}
</style>
<g>
	<g>
		<g>
			<path d="M159.3,68.3c-0.1-0.4-0.3-0.7-0.4-1.1c-0.2-0.4-0.4-0.8-0.6-1.1c-0.3-0.3-0.6-0.6-1-0.8c-0.4-0.2-0.9-0.3-1.5-0.3
				c-0.8,0-1.4,0.1-1.9,0.4c-0.5,0.3-0.8,0.7-1,1.2c-0.2,0.5-0.4,1.1-0.4,1.9c-0.1,0.7-0.1,1.5-0.1,2.4c0,1.1,0.1,2.1,0.2,2.8
				c0.1,0.7,0.3,1.3,0.6,1.8c0.3,0.4,0.6,0.7,1.1,0.9c0.4,0.2,1,0.3,1.6,0.3c0.5,0,0.9-0.1,1.3-0.3c0.4-0.2,0.7-0.5,1-0.8
				c0.3-0.3,0.6-0.7,0.8-1.1c0.2-0.4,0.4-0.8,0.5-1.3h0.3v3.4h-0.3c-0.1-0.1-0.1-0.2-0.2-0.3c-0.1,0-0.2-0.1-0.3-0.1
				c-0.1,0-0.3,0-0.5,0.1c-0.2,0.1-0.4,0.1-0.7,0.2c-0.3,0.1-0.6,0.1-0.9,0.2c-0.3,0.1-0.6,0.1-1,0.1c-0.8,0-1.6-0.2-2.3-0.5
				c-0.7-0.3-1.4-0.7-1.9-1.3c-0.6-0.5-1-1.2-1.3-1.9c-0.3-0.7-0.5-1.5-0.5-2.4c0-0.9,0.2-1.8,0.6-2.5c0.4-0.7,0.9-1.4,1.4-1.9
				c0.6-0.5,1.2-0.9,2-1.2c0.7-0.3,1.4-0.4,2.1-0.4c0.3,0,0.7,0,1,0.1c0.3,0.1,0.6,0.1,0.8,0.2c0.3,0.1,0.5,0.1,0.7,0.2
				c0.2,0.1,0.4,0.1,0.5,0.1c0.2,0,0.3,0,0.3-0.1c0.1,0,0.1-0.1,0.2-0.3h0.3v3.3H159.3z"/>
			<path d="M172.7,65v2.8h-0.2c-0.1-0.2-0.1-0.4-0.3-0.7c-0.1-0.3-0.3-0.6-0.5-0.8c-0.2-0.3-0.5-0.5-0.9-0.7
				c-0.4-0.2-0.8-0.3-1.3-0.3h-2.6v5h0.9c0.4,0,0.7-0.1,1-0.2c0.3-0.1,0.5-0.3,0.7-0.5c0.2-0.2,0.3-0.5,0.5-0.8
				c0.1-0.3,0.2-0.6,0.3-1h0.2v5h-0.2c-0.1-0.3-0.2-0.6-0.3-0.9c-0.1-0.3-0.2-0.5-0.4-0.8c-0.2-0.2-0.4-0.4-0.6-0.5
				c-0.3-0.1-0.6-0.2-0.9-0.2h-1.1v5.9h2.7c0.5,0,0.9-0.1,1.3-0.3c0.4-0.2,0.8-0.4,1.1-0.7c0.3-0.3,0.6-0.7,0.8-1.1
				c0.2-0.4,0.4-0.8,0.5-1.3h0.2v3.6H163v-0.2h1.5V65.2H163V65H172.7z"/>
			<path d="M176.6,65.2V65h2.5c0.5,0,0.9,0,1.3,0c0.4,0,0.9,0,1.3,0c0.4,0,0.9,0,1.3,0.1c0.5,0.1,0.9,0.2,1.3,0.4
				c0.4,0.2,0.7,0.5,1,0.9c0.3,0.4,0.4,0.8,0.4,1.3c0,0.4-0.1,0.8-0.3,1.1s-0.4,0.6-0.8,0.8c-0.3,0.2-0.7,0.3-1,0.4
				c-0.4,0.1-0.8,0.2-1.1,0.2v0.1c0.5,0.1,1,0.2,1.4,0.3c0.4,0.1,0.8,0.2,1.1,0.4c0.3,0.2,0.5,0.5,0.7,0.8c0.2,0.3,0.3,0.8,0.3,1.4
				c0.1,0.7,0.1,1.2,0.1,1.6c0,0.4,0.1,0.7,0.1,1c0.1,0.2,0.1,0.4,0.2,0.5c0.1,0.1,0.3,0.1,0.4,0.1c0.2,0,0.4-0.1,0.5-0.2
				c0.1-0.1,0.3-0.2,0.4-0.3l0.2,0.1c-0.1,0.1-0.2,0.2-0.3,0.3c-0.1,0.1-0.2,0.2-0.4,0.2c-0.1,0.1-0.3,0.1-0.5,0.2
				c-0.2,0-0.4,0.1-0.7,0.1c-0.6,0-1.1-0.1-1.4-0.3c-0.3-0.2-0.6-0.4-0.7-0.7c-0.2-0.3-0.3-0.6-0.3-0.9c0-0.3-0.1-0.6-0.1-0.9
				c0-0.4-0.1-0.9-0.1-1.3c0-0.4-0.1-0.8-0.3-1.1c-0.1-0.3-0.4-0.6-0.6-0.8c-0.3-0.2-0.7-0.3-1.2-0.3h-1.1v5.9h1.5v0.2h-5.3v-0.2
				h1.5V65.2H176.6z M181.1,70.2c0.5,0,0.9-0.1,1.2-0.2c0.3-0.1,0.5-0.3,0.6-0.5c0.1-0.2,0.2-0.5,0.3-0.8c0-0.3,0.1-0.6,0.1-0.9
				c0-0.5,0-0.9-0.1-1.2c-0.1-0.3-0.2-0.6-0.3-0.8c-0.2-0.2-0.4-0.4-0.6-0.5c-0.3-0.1-0.6-0.2-1-0.2c-0.1,0-0.2,0-0.4,0
				c-0.1,0-0.2,0-0.4,0v5H181.1z"/>
			<path d="M193.5,65.2c-0.4,0-0.8,0-1.1,0.1c-0.3,0.1-0.6,0.2-0.8,0.4c-0.2,0.2-0.5,0.5-0.7,0.8c-0.2,0.4-0.4,0.8-0.5,1.4h-0.2v-3
				h10.2v3h-0.2c-0.2-0.6-0.3-1-0.5-1.4c-0.2-0.4-0.4-0.6-0.7-0.8c-0.2-0.2-0.5-0.3-0.8-0.4c-0.3-0.1-0.7-0.1-1.1-0.1h-0.6v11.1h1.5
				v0.2h-5.3v-0.2h1.5V65.2H193.5z"/>
			<path d="M208.9,65v0.2h-1.5v11.1h1.5v0.2h-5.3v-0.2h1.5V65.2h-1.5V65H208.9z"/>
			<path d="M212,65.2V65h9.6v2.8h-0.2c-0.2-0.4-0.3-0.7-0.5-1.1c-0.2-0.3-0.4-0.6-0.6-0.8c-0.2-0.2-0.5-0.4-0.8-0.5
				c-0.3-0.1-0.7-0.2-1.1-0.2h-2.5v5.2h0.9c0.4,0,0.7-0.1,1-0.2s0.5-0.3,0.7-0.5s0.3-0.5,0.5-0.8c0.1-0.3,0.2-0.6,0.3-1h0.2v5h-0.2
				c-0.1-0.3-0.2-0.6-0.3-0.9c-0.1-0.3-0.2-0.5-0.4-0.8c-0.2-0.2-0.4-0.4-0.6-0.5c-0.3-0.1-0.6-0.2-0.9-0.2h-1.1v5.6h1.5v0.2H212
				v-0.2h1.5V65.2H212z"/>
			<path d="M230.3,65v0.2h-1.5v11.1h1.5v0.2H225v-0.2h1.5V65.2H225V65H230.3z"/>
			<path d="M243.1,65v2.8h-0.2c-0.1-0.2-0.1-0.4-0.3-0.7c-0.1-0.3-0.3-0.6-0.5-0.8c-0.2-0.3-0.5-0.5-0.9-0.7
				c-0.4-0.2-0.8-0.3-1.3-0.3h-2.6v5h0.9c0.4,0,0.7-0.1,1-0.2c0.3-0.1,0.5-0.3,0.7-0.5c0.2-0.2,0.3-0.5,0.5-0.8
				c0.1-0.3,0.2-0.6,0.3-1h0.2v5h-0.2c-0.1-0.3-0.2-0.6-0.3-0.9c-0.1-0.3-0.2-0.5-0.4-0.8c-0.2-0.2-0.4-0.4-0.6-0.5
				c-0.3-0.1-0.6-0.2-0.9-0.2h-1.1v5.9h2.7c0.5,0,0.9-0.1,1.3-0.3c0.4-0.2,0.8-0.4,1.1-0.7c0.3-0.3,0.6-0.7,0.8-1.1
				c0.2-0.4,0.4-0.8,0.5-1.3h0.2v3.6h-10.4v-0.2h1.5V65.2h-1.5V65H243.1z"/>
			<path d="M246.9,65.2V65h1.5c0.6,0,1.1,0,1.7,0c0.6,0,1.1,0,1.7,0c0.5,0,1,0,1.5,0.1c0.5,0.1,1.1,0.2,1.6,0.3
				c0.5,0.2,1,0.4,1.5,0.7c0.5,0.3,0.9,0.6,1.3,1.1c0.4,0.4,0.7,0.9,0.9,1.5c0.2,0.6,0.3,1.3,0.3,2.1c0,0.8-0.1,1.5-0.3,2.1
				c-0.2,0.6-0.5,1.1-0.9,1.5c-0.4,0.4-0.8,0.8-1.2,1.1c-0.5,0.3-0.9,0.5-1.5,0.7c-0.5,0.2-1,0.3-1.5,0.3c-0.5,0.1-0.9,0.1-1.4,0.1
				c-0.6,0-1.2,0-1.8,0c-0.6,0-1.2,0-1.8,0h-1.5v-0.2h1.5V65.2H246.9z M251.6,76.4c0.7,0,1.3-0.1,1.8-0.3c0.5-0.2,0.9-0.4,1.3-0.7
				c0.3-0.3,0.6-0.6,0.8-1c0.2-0.4,0.4-0.8,0.5-1.2c0.1-0.4,0.2-0.8,0.2-1.2c0-0.4,0-0.8,0-1.1c0-0.9-0.1-1.7-0.2-2.4
				c-0.1-0.7-0.3-1.3-0.6-1.8c-0.3-0.5-0.8-0.9-1.3-1.2c-0.6-0.3-1.3-0.4-2.3-0.4c-0.2,0-0.4,0-0.6,0c-0.2,0-0.3,0-0.4,0v11.1
				C251.1,76.4,251.4,76.4,251.6,76.4z"/>
			<path d="M273.8,76.3v0.2h-5.3v-0.2h1.5V65.2h-1.5V65h1.5c0.6,0,1.1,0,1.7,0c0.6,0,1.1,0,1.7,0c0.5,0,1,0,1.6,0.1
				c0.6,0.1,1.1,0.2,1.6,0.5c0.5,0.2,0.9,0.5,1.2,0.9c0.3,0.4,0.5,0.9,0.5,1.5c0,0.4-0.1,0.8-0.3,1.2s-0.5,0.7-0.9,1
				c-0.4,0.3-1,0.5-1.6,0.7c-0.6,0.2-1.4,0.2-2.3,0.2h-0.7v5.3H273.8z M272.8,70.8c0.9,0,1.6-0.2,2-0.6c0.4-0.4,0.6-1.1,0.6-2.1
				c0-0.9-0.2-1.7-0.5-2.2c-0.4-0.5-1-0.7-1.9-0.7c-0.1,0-0.2,0-0.3,0c-0.1,0-0.2,0-0.3,0v5.6H272.8z"/>
			<path d="M286.1,65v0.2h-1.5v7.3c0,0.5,0,1,0.1,1.5c0,0.5,0.2,0.9,0.3,1.3c0.2,0.4,0.4,0.7,0.8,0.9c0.4,0.2,0.8,0.3,1.4,0.3
				c0.6,0,1.1-0.1,1.5-0.2c0.4-0.1,0.7-0.3,1-0.5c0.3-0.2,0.5-0.5,0.6-0.7c0.1-0.3,0.2-0.6,0.3-0.8c0.1-0.3,0.1-0.5,0.1-0.8
				c0-0.2,0-0.4,0-0.6v-7.6h-1.5V65h3.2v0.2H291v7.6c0,0.2,0,0.4,0,0.7c0,0.3-0.1,0.5-0.1,0.8c-0.1,0.3-0.2,0.6-0.3,0.9
				c-0.2,0.3-0.4,0.6-0.7,0.8c-0.3,0.2-0.7,0.4-1.1,0.6c-0.4,0.1-1,0.2-1.6,0.2c-1,0-1.9-0.1-2.5-0.3c-0.6-0.2-1.1-0.5-1.5-0.9
				s-0.6-0.8-0.7-1.3c-0.1-0.5-0.2-1-0.2-1.4v-7.6h-1.5V65H286.1z"/>
			<path d="M295.3,65.2V65h2.5c0.5,0,0.9,0,1.3,0c0.4,0,0.9,0,1.3,0c0.4,0,0.9,0,1.3,0.1c0.5,0.1,0.9,0.2,1.3,0.4
				c0.4,0.2,0.7,0.5,0.9,0.8c0.2,0.3,0.4,0.8,0.4,1.3c0,0.5-0.1,0.9-0.4,1.2c-0.2,0.3-0.5,0.6-0.9,0.8c-0.3,0.2-0.7,0.4-1.1,0.5
				c-0.4,0.1-0.7,0.2-0.9,0.2v0.1c0.4,0,0.9,0.1,1.3,0.2s0.9,0.3,1.2,0.5c0.4,0.2,0.7,0.5,0.9,0.9c0.2,0.4,0.4,0.9,0.4,1.4
				c0,0.6-0.2,1.1-0.5,1.6c-0.3,0.4-0.7,0.7-1.2,1c-0.5,0.2-0.9,0.4-1.5,0.5c-0.5,0.1-1,0.1-1.4,0.1c-0.5,0-0.9,0-1.4,0
				c-0.4,0-0.9,0-1.4,0h-2.5v-0.2h1.5V65.2H295.3z M299.8,70.2c0.5,0,0.9-0.1,1.2-0.2c0.3-0.1,0.5-0.3,0.6-0.5
				c0.1-0.2,0.2-0.5,0.3-0.8c0-0.3,0.1-0.6,0.1-0.9c0-0.5,0-0.9-0.1-1.2c-0.1-0.3-0.2-0.6-0.3-0.8c-0.2-0.2-0.4-0.4-0.6-0.5
				c-0.3-0.1-0.6-0.2-1-0.2c-0.1,0-0.2,0-0.4,0c-0.1,0-0.2,0-0.4,0v5H299.8z M300.1,76.4c0.3,0,0.7,0,0.9-0.1
				c0.3-0.1,0.5-0.2,0.7-0.5c0.2-0.2,0.3-0.5,0.4-0.9c0.1-0.4,0.2-0.9,0.2-1.6c0-0.2,0-0.4,0-0.7c0-0.3-0.1-0.6-0.3-0.9
				c-0.1-0.3-0.4-0.6-0.7-0.8c-0.3-0.2-0.7-0.3-1.3-0.3h-0.9v5.9C299.4,76.4,299.8,76.4,300.1,76.4z"/>
			<path d="M313.8,65v0.2h-1.5v11.1h2.7c0.4,0,0.7-0.1,1.1-0.2c0.4-0.1,0.7-0.3,1-0.6c0.3-0.3,0.6-0.6,0.9-1.1
				c0.3-0.4,0.5-1,0.6-1.6h0.2v3.7h-10.3v-0.2h1.5V65.2h-1.5V65H313.8z"/>
			<path d="M327.3,65v0.2h-1.5v11.1h1.5v0.2h-5.3v-0.2h1.5V65.2h-1.5V65H327.3z"/>
			<path d="M340.2,68.3c-0.1-0.4-0.3-0.7-0.4-1.1s-0.4-0.8-0.6-1.1c-0.3-0.3-0.6-0.6-1-0.8c-0.4-0.2-0.9-0.3-1.5-0.3
				c-0.8,0-1.4,0.1-1.9,0.4c-0.5,0.3-0.8,0.7-1,1.2c-0.2,0.5-0.4,1.1-0.4,1.9c-0.1,0.7-0.1,1.5-0.1,2.4c0,1.1,0.1,2.1,0.2,2.8
				c0.1,0.7,0.3,1.3,0.6,1.8c0.3,0.4,0.6,0.7,1.1,0.9s1,0.3,1.6,0.3c0.5,0,0.9-0.1,1.3-0.3c0.4-0.2,0.7-0.5,1-0.8
				c0.3-0.3,0.6-0.7,0.8-1.1c0.2-0.4,0.4-0.8,0.5-1.3h0.3v3.4h-0.3c-0.1-0.1-0.1-0.2-0.2-0.3c-0.1,0-0.2-0.1-0.3-0.1
				c-0.1,0-0.3,0-0.5,0.1c-0.2,0.1-0.4,0.1-0.7,0.2c-0.3,0.1-0.6,0.1-0.9,0.2c-0.3,0.1-0.6,0.1-1,0.1c-0.8,0-1.6-0.2-2.3-0.5
				s-1.4-0.7-1.9-1.3c-0.6-0.5-1-1.2-1.3-1.9c-0.3-0.7-0.5-1.5-0.5-2.4c0-0.9,0.2-1.8,0.6-2.5c0.4-0.7,0.9-1.4,1.4-1.9
				c0.6-0.5,1.2-0.9,2-1.2c0.7-0.3,1.4-0.4,2.1-0.4c0.3,0,0.7,0,1,0.1s0.6,0.1,0.8,0.2c0.3,0.1,0.5,0.1,0.7,0.2
				c0.2,0.1,0.4,0.1,0.5,0.1c0.2,0,0.3,0,0.3-0.1c0.1,0,0.1-0.1,0.2-0.3h0.3v3.3H340.2z"/>
			<path d="M350.7,76.3l4.8-11.8h0.4l5.1,11.8h1.4v0.2H357v-0.2h1.5l-1.9-4.3h-3.9l-1.8,4.3h1.4v0.2h-3.1v-0.2H350.7z M352.8,71.8
				h3.7l-1.9-4.4L352.8,71.8z"/>
			<path d="M374.4,68.3c-0.1-0.4-0.3-0.7-0.4-1.1c-0.2-0.4-0.4-0.8-0.6-1.1c-0.3-0.3-0.6-0.6-1-0.8c-0.4-0.2-0.9-0.3-1.5-0.3
				c-0.8,0-1.4,0.1-1.9,0.4c-0.5,0.3-0.8,0.7-1,1.2c-0.2,0.5-0.4,1.1-0.4,1.9c-0.1,0.7-0.1,1.5-0.1,2.4c0,1.1,0.1,2.1,0.2,2.8
				c0.1,0.7,0.3,1.3,0.6,1.8c0.3,0.4,0.6,0.7,1.1,0.9c0.4,0.2,1,0.3,1.6,0.3c0.5,0,0.9-0.1,1.3-0.3c0.4-0.2,0.7-0.5,1-0.8
				c0.3-0.3,0.6-0.7,0.8-1.1c0.2-0.4,0.4-0.8,0.5-1.3h0.3v3.4h-0.3c-0.1-0.1-0.1-0.2-0.2-0.3c-0.1,0-0.2-0.1-0.3-0.1
				c-0.1,0-0.3,0-0.5,0.1c-0.2,0.1-0.4,0.1-0.7,0.2c-0.3,0.1-0.6,0.1-0.9,0.2c-0.3,0.1-0.6,0.1-1,0.1c-0.8,0-1.6-0.2-2.3-0.5
				c-0.7-0.3-1.4-0.7-1.9-1.3c-0.6-0.5-1-1.2-1.3-1.9c-0.3-0.7-0.5-1.5-0.5-2.4c0-0.9,0.2-1.8,0.6-2.5c0.4-0.7,0.9-1.4,1.4-1.9
				c0.6-0.5,1.2-0.9,2-1.2c0.7-0.3,1.4-0.4,2.1-0.4c0.3,0,0.7,0,1,0.1s0.6,0.1,0.8,0.2c0.3,0.1,0.5,0.1,0.7,0.2
				c0.2,0.1,0.4,0.1,0.5,0.1c0.2,0,0.3,0,0.3-0.1c0.1,0,0.1-0.1,0.2-0.3h0.3v3.3H374.4z"/>
			<path d="M388,68.3c-0.1-0.4-0.3-0.7-0.4-1.1s-0.4-0.8-0.6-1.1c-0.3-0.3-0.6-0.6-1-0.8c-0.4-0.2-0.9-0.3-1.5-0.3
				c-0.8,0-1.4,0.1-1.9,0.4c-0.5,0.3-0.8,0.7-1,1.2c-0.2,0.5-0.4,1.1-0.4,1.9c-0.1,0.7-0.1,1.5-0.1,2.4c0,1.1,0.1,2.1,0.2,2.8
				c0.1,0.7,0.3,1.3,0.6,1.8c0.3,0.4,0.6,0.7,1.1,0.9s1,0.3,1.6,0.3c0.5,0,0.9-0.1,1.3-0.3c0.4-0.2,0.7-0.5,1-0.8
				c0.3-0.3,0.6-0.7,0.8-1.1c0.2-0.4,0.4-0.8,0.5-1.3h0.3v3.4H388c-0.1-0.1-0.1-0.2-0.2-0.3c-0.1,0-0.2-0.1-0.3-0.1
				c-0.1,0-0.3,0-0.5,0.1c-0.2,0.1-0.4,0.1-0.7,0.2c-0.3,0.1-0.6,0.1-0.9,0.2c-0.3,0.1-0.6,0.1-1,0.1c-0.8,0-1.6-0.2-2.3-0.5
				s-1.4-0.7-1.9-1.3c-0.6-0.5-1-1.2-1.3-1.9c-0.3-0.7-0.5-1.5-0.5-2.4c0-0.9,0.2-1.8,0.6-2.5c0.4-0.7,0.9-1.4,1.4-1.9
				c0.6-0.5,1.2-0.9,2-1.2c0.7-0.3,1.4-0.4,2.1-0.4c0.3,0,0.7,0,1,0.1s0.6,0.1,0.8,0.2c0.3,0.1,0.5,0.1,0.7,0.2
				c0.2,0.1,0.4,0.1,0.5,0.1c0.2,0,0.3,0,0.3-0.1c0.1,0,0.1-0.1,0.2-0.3h0.3v3.3H388z"/>
			<path d="M392.3,68.3c0.4-0.7,0.9-1.4,1.4-1.9c0.6-0.5,1.2-0.9,2-1.2c0.7-0.3,1.4-0.4,2.1-0.4c0.7,0,1.5,0.1,2.2,0.4
				c0.7,0.3,1.4,0.7,1.9,1.2c0.6,0.5,1,1.1,1.4,1.9s0.5,1.6,0.5,2.5c0,0.8-0.2,1.6-0.5,2.3c-0.3,0.7-0.8,1.4-1.3,1.9
				c-0.6,0.6-1.2,1-1.9,1.3c-0.7,0.3-1.5,0.5-2.3,0.5c-0.8,0-1.6-0.2-2.3-0.5c-0.7-0.3-1.4-0.7-1.9-1.3c-0.6-0.5-1-1.2-1.3-1.9
				c-0.3-0.7-0.5-1.5-0.5-2.4C391.8,69.9,392,69.1,392.3,68.3z M394.6,73.6c0.1,0.7,0.3,1.3,0.6,1.8c0.3,0.4,0.6,0.7,1.1,0.9
				c0.4,0.2,1,0.3,1.6,0.3c0.8,0,1.4-0.1,1.9-0.4c0.5-0.3,0.8-0.7,1-1.2c0.2-0.5,0.4-1.1,0.4-1.9c0.1-0.7,0.1-1.5,0.1-2.3
				c0-0.8,0-1.5-0.1-2.2c0-0.7-0.2-1.3-0.4-1.8c-0.2-0.5-0.6-0.9-1-1.2c-0.5-0.3-1.1-0.5-1.9-0.5c-0.8,0-1.4,0.1-1.8,0.4
				c-0.5,0.3-0.8,0.7-1,1.2c-0.2,0.5-0.4,1.1-0.5,1.8c-0.1,0.7-0.1,1.5-0.1,2.4C394.4,71.9,394.5,72.9,394.6,73.6z"/>
			<path d="M412.4,65v0.2h-1.5v7.3c0,0.5,0,1,0.1,1.5c0,0.5,0.2,0.9,0.3,1.3s0.4,0.7,0.8,0.9c0.4,0.2,0.8,0.3,1.4,0.3
				c0.6,0,1.1-0.1,1.5-0.2c0.4-0.1,0.7-0.3,1-0.5c0.3-0.2,0.5-0.5,0.6-0.7s0.2-0.6,0.3-0.8c0.1-0.3,0.1-0.5,0.1-0.8
				c0-0.2,0-0.4,0-0.6v-7.6h-1.5V65h3.2v0.2h-1.5v7.6c0,0.2,0,0.4,0,0.7c0,0.3-0.1,0.5-0.1,0.8c-0.1,0.3-0.2,0.6-0.3,0.9
				c-0.2,0.3-0.4,0.6-0.7,0.8c-0.3,0.2-0.7,0.4-1.1,0.6s-1,0.2-1.6,0.2c-1,0-1.9-0.1-2.5-0.3c-0.6-0.2-1.1-0.5-1.5-0.9
				c-0.3-0.4-0.6-0.8-0.7-1.3c-0.1-0.5-0.2-1-0.2-1.4v-7.6H407V65H412.4z"/>
			<path d="M425.4,65l5.4,7.7h0v-7.5h-1.5V65h3.2v0.2H431v11.3h-0.4l-7.3-10.4h0v10.2h1.5v0.2h-3.2v-0.2h1.5V65.2h-1.5V65H425.4z"/>
			<path d="M438.8,65.2c-0.4,0-0.8,0-1.1,0.1c-0.3,0.1-0.6,0.2-0.8,0.4c-0.2,0.2-0.5,0.5-0.7,0.8c-0.2,0.4-0.4,0.8-0.5,1.4h-0.2v-3
				h10.2v3h-0.2c-0.2-0.6-0.3-1-0.5-1.4c-0.2-0.4-0.4-0.6-0.7-0.8c-0.2-0.2-0.5-0.3-0.8-0.4c-0.3-0.1-0.7-0.1-1.1-0.1h-0.6v11.1h1.5
				v0.2h-5.3v-0.2h1.5V65.2H438.8z"/>
			<path d="M449.1,76.3l4.8-11.8h0.4l5.1,11.8h1.4v0.2h-5.5v-0.2h1.5l-1.9-4.3h-3.9l-1.8,4.3h1.4v0.2h-3.1v-0.2H449.1z M451.3,71.8
				h3.7l-1.9-4.4L451.3,71.8z"/>
			<path d="M466.7,65l5.4,7.7h0v-7.5h-1.5V65h3.2v0.2h-1.5v11.3H472l-7.3-10.4h0v10.2h1.5v0.2h-3.2v-0.2h1.5V65.2h-1.5V65H466.7z"/>
			<path d="M480.2,65.2c-0.4,0-0.8,0-1.1,0.1c-0.3,0.1-0.6,0.2-0.8,0.4c-0.2,0.2-0.5,0.5-0.7,0.8c-0.2,0.4-0.4,0.8-0.5,1.4h-0.2v-3
				h10.2v3h-0.2c-0.2-0.6-0.3-1-0.5-1.4c-0.2-0.4-0.4-0.6-0.7-0.8c-0.2-0.2-0.5-0.3-0.8-0.4c-0.3-0.1-0.7-0.1-1.1-0.1h-0.6v11.1h1.5
				v0.2h-5.3v-0.2h1.5V65.2H480.2z"/>
			<path d="M490.8,73c0,0.1,0.1,0.3,0.1,0.5s0.1,0.4,0.2,0.7c0.1,0.2,0.2,0.5,0.4,0.7c0.2,0.3,0.3,0.5,0.6,0.7
				c0.2,0.2,0.5,0.4,0.7,0.6c0.2,0.1,0.5,0.2,0.7,0.3c0.2,0.1,0.4,0.1,0.6,0.1c0.2,0,0.4,0,0.5,0c0.6,0,1-0.1,1.4-0.3
				c0.4-0.2,0.7-0.4,0.9-0.7c0.2-0.3,0.4-0.5,0.4-0.8c0.1-0.3,0.1-0.5,0.1-0.8c0-0.4-0.1-0.7-0.3-1c-0.2-0.3-0.4-0.5-0.8-0.6
				c-0.3-0.2-0.7-0.3-1.1-0.4c-0.4-0.1-0.8-0.2-1.2-0.4c-0.4-0.1-0.8-0.3-1.2-0.4c-0.4-0.2-0.8-0.4-1.1-0.6s-0.6-0.6-0.8-1
				c-0.2-0.4-0.3-0.9-0.3-1.5c0-0.4,0.1-0.8,0.3-1.2c0.2-0.4,0.5-0.8,0.8-1.1c0.3-0.3,0.8-0.6,1.2-0.7c0.5-0.2,1-0.3,1.6-0.3
				c0.4,0,0.7,0,0.9,0.1c0.3,0.1,0.5,0.1,0.7,0.2c0.2,0.1,0.4,0.1,0.5,0.2c0.2,0.1,0.3,0.1,0.4,0.1c0.2,0,0.3,0,0.3-0.1
				c0,0,0.1-0.1,0.2-0.3h0.3v3.1h-0.2c-0.1-0.4-0.3-0.8-0.4-1.1c-0.1-0.4-0.3-0.7-0.6-1c-0.2-0.3-0.5-0.5-0.9-0.7
				c-0.3-0.2-0.8-0.3-1.3-0.3c-0.4,0-0.8,0.1-1.1,0.2c-0.3,0.1-0.6,0.3-0.8,0.5c-0.2,0.2-0.4,0.4-0.5,0.6c-0.1,0.2-0.2,0.5-0.2,0.7
				c0,0.4,0.1,0.7,0.3,0.9c0.2,0.2,0.5,0.5,0.8,0.6c0.3,0.2,0.7,0.3,1.1,0.5c0.4,0.1,0.8,0.3,1.3,0.4c0.4,0.1,0.9,0.3,1.3,0.5
				c0.4,0.2,0.8,0.4,1.1,0.6c0.3,0.3,0.6,0.6,0.8,0.9c0.2,0.4,0.3,0.8,0.3,1.4c0,0.5-0.1,1-0.3,1.5c-0.2,0.5-0.5,0.9-0.9,1.2
				c-0.4,0.4-0.9,0.6-1.4,0.9c-0.5,0.2-1.2,0.3-1.8,0.3c-0.3,0-0.7,0-1-0.1c-0.3-0.1-0.6-0.1-0.9-0.2c-0.3-0.1-0.5-0.1-0.8-0.2
				c-0.2-0.1-0.4-0.1-0.5-0.1c-0.2,0-0.3,0-0.3,0.1c-0.1,0-0.1,0.1-0.2,0.3h-0.3V73H490.8z"/>
		</g>
		<g>
			<path class="st0" d="M163.6,0.7v0.4h-3.9v21.9h7c0.9,0,1.9-0.1,2.8-0.4c0.9-0.2,1.8-0.6,2.7-1.2c0.8-0.5,1.6-1.2,2.2-2.1
				c0.7-0.9,1.2-1.9,1.5-3.2h0.5v7.2h-26.8v-0.4h3.9V1.2h-3.9V0.7H163.6z"/>
			<path class="st0" d="M195.4,0.7v0.4h-3.9v21.9h3.9v0.4h-13.9v-0.4h3.9V1.2h-3.9V0.7H195.4z"/>
			<path class="st0" d="M225.7,7.3c-0.7-2.1-1.8-3.7-3.3-4.9c-1.5-1.2-3.4-1.7-5.9-1.7c-1.9,0-3.5,0.3-4.7,0.8
				c-1.2,0.6-2.1,1.3-2.7,2.2c-0.6,0.9-1.1,1.9-1.2,3.1c-0.2,1.2-0.3,2.3-0.3,3.5v2.8c0,1.9,0.2,3.6,0.5,4.9
				c0.3,1.3,0.9,2.4,1.6,3.2c0.7,0.8,1.6,1.4,2.8,1.7c1.1,0.4,2.5,0.5,4.1,0.5c1.3,0,2.3-0.2,3.1-0.5c0.8-0.4,1.3-0.8,1.8-1.4
				c0.4-0.6,0.7-1.3,0.8-2.2c0.1-0.8,0.2-1.7,0.2-2.7v-1.2h-4.4V15H231v0.4h-2.7v7.3h-0.8c-0.1-0.3-0.2-0.4-0.5-0.6
				c-0.3-0.1-0.6-0.2-0.9-0.2c-0.7,0-1.3,0.1-1.9,0.3c-0.6,0.2-1.3,0.4-2,0.7c-0.7,0.2-1.5,0.5-2.4,0.7c-0.9,0.2-2,0.3-3.3,0.3
				c-2.1,0-4-0.3-6-0.9c-1.9-0.6-3.6-1.4-5.1-2.5c-1.5-1.1-2.6-2.3-3.5-3.7c-0.9-1.4-1.3-3-1.3-4.6c0-1.8,0.5-3.5,1.5-4.9
				s2.2-2.7,3.7-3.8c1.5-1,3.2-1.9,5.1-2.4c1.9-0.6,3.7-0.8,5.5-0.8c0.8,0,1.7,0.1,2.5,0.2c0.8,0.1,1.5,0.3,2.2,0.4
				c0.7,0.1,1.3,0.3,1.8,0.4c0.5,0.1,1,0.2,1.4,0.2c0.4,0,0.7,0,0.8-0.1c0.2-0.1,0.3-0.3,0.5-0.5h0.7v6.5H225.7z"/>
			<path class="st0" d="M260.2,7.3c-0.7-2.1-1.8-3.7-3.3-4.9c-1.5-1.2-3.4-1.7-5.9-1.7c-1.9,0-3.5,0.3-4.7,0.8
				c-1.2,0.6-2.1,1.3-2.7,2.2c-0.6,0.9-1.1,1.9-1.2,3.1c-0.2,1.2-0.3,2.3-0.3,3.5v2.8c0,1.9,0.2,3.6,0.5,4.9
				c0.3,1.3,0.9,2.4,1.6,3.2c0.7,0.8,1.6,1.4,2.8,1.7c1.1,0.4,2.5,0.5,4.1,0.5c1.3,0,2.3-0.2,3.1-0.5c0.8-0.4,1.3-0.8,1.8-1.4
				c0.4-0.6,0.7-1.3,0.8-2.2c0.1-0.8,0.2-1.7,0.2-2.7v-1.2h-4.4V15h13.1v0.4h-2.7v7.3H262c-0.1-0.3-0.2-0.4-0.5-0.6
				c-0.3-0.1-0.6-0.2-0.9-0.2c-0.7,0-1.3,0.1-1.9,0.3c-0.6,0.2-1.3,0.4-2,0.7c-0.7,0.2-1.5,0.5-2.4,0.7c-0.9,0.2-2,0.3-3.3,0.3
				c-2.1,0-4-0.3-6-0.9c-1.9-0.6-3.6-1.4-5.1-2.5c-1.5-1.1-2.6-2.3-3.5-3.7c-0.9-1.4-1.3-3-1.3-4.6c0-1.8,0.5-3.5,1.5-4.9
				s2.2-2.7,3.7-3.8c1.5-1,3.2-1.9,5.1-2.4c1.9-0.6,3.7-0.8,5.5-0.8c0.8,0,1.7,0.1,2.5,0.2c0.8,0.1,1.5,0.3,2.2,0.4
				c0.7,0.1,1.3,0.3,1.8,0.4c0.5,0.1,1,0.2,1.4,0.2c0.4,0,0.7,0,0.8-0.1c0.2-0.1,0.3-0.3,0.5-0.5h0.7v6.5H260.2z"/>
			<path class="st0" d="M294.5,0.7v5.5H294c-0.1-0.4-0.4-0.8-0.7-1.4c-0.3-0.6-0.8-1.1-1.4-1.6c-0.6-0.5-1.4-1-2.3-1.4
				c-1-0.4-2.1-0.6-3.5-0.6h-6.7v9.9h2.4c1,0,1.9-0.1,2.6-0.3c0.7-0.2,1.3-0.5,1.8-1c0.5-0.4,0.9-0.9,1.2-1.5c0.3-0.6,0.6-1.2,0.8-2
				h0.5v10H288c-0.2-0.6-0.4-1.2-0.7-1.8c-0.3-0.6-0.6-1.1-1.1-1.5c-0.5-0.4-1-0.8-1.7-1c-0.7-0.3-1.5-0.4-2.5-0.4h-2.8v11.6h6.9
				c1.3,0,2.5-0.2,3.5-0.5c1-0.3,2-0.8,2.8-1.4c0.8-0.6,1.5-1.3,2-2.1c0.5-0.8,0.9-1.7,1.2-2.6h0.5v7h-27v-0.4h3.9V1.2h-3.9V0.7
				H294.5z"/>
			<path class="st0" d="M310.1,1.2c-1,0-2,0.1-2.8,0.2c-0.8,0.2-1.6,0.4-2.2,0.8c-0.6,0.4-1.2,0.9-1.7,1.6c-0.5,0.7-1,1.6-1.4,2.7
				h-0.5V0.7H328v5.9h-0.5c-0.4-1.1-0.9-2-1.4-2.7s-1.1-1.3-1.7-1.6c-0.6-0.4-1.4-0.7-2.2-0.8c-0.8-0.2-1.7-0.2-2.8-0.2h-1.5v21.9
				h3.9v0.4h-13.9v-0.4h3.9V1.2H310.1z"/>
			<path class="st0" d="M341.5,1.2c-1,0-2,0.1-2.8,0.2c-0.8,0.2-1.6,0.4-2.2,0.8c-0.6,0.4-1.2,0.9-1.7,1.6c-0.5,0.7-1,1.6-1.4,2.7
				h-0.5V0.7h26.5v5.9h-0.5c-0.4-1.1-0.9-2-1.4-2.7s-1.1-1.3-1.7-1.6c-0.6-0.4-1.4-0.7-2.2-0.8c-0.8-0.2-1.7-0.2-2.8-0.2h-1.5v21.9
				h3.9v0.4h-13.9v-0.4h3.9V1.2H341.5z"/>
		</g>
		<g>
			<path class="st0" d="M171.5,49.1c0.4-1.1,0.6-2.4,0.6-4c0-0.9-0.1-1.6-0.3-2.2c-0.2-0.5-0.5-1-0.8-1.3c-0.4-0.3-0.8-0.5-1.4-0.6
				c-0.6-0.1-1.2-0.2-1.9-0.2v-0.4h8.6v0.4c-0.7,0.1-1.2,0.2-1.6,0.3c-0.4,0.1-0.8,0.3-1,0.5c-0.3,0.3-0.5,0.7-0.6,1.2
				c-0.1,0.5-0.2,1.2-0.3,2.1c0,0.4-0.1,0.9-0.1,1.5c-0.1,0.6-0.2,1.2-0.3,1.8c-0.2,0.6-0.4,1.2-0.6,1.9c-0.3,0.6-0.6,1.2-1,1.6
				l2,2.6c0.1,0.1,0.3,0.3,0.6,0.6c0.3,0.2,0.7,0.4,1.2,0.4c0.4,0,0.8-0.1,1-0.3c0.3-0.2,0.5-0.5,0.6-0.7c0.2-0.3,0.3-0.5,0.3-0.8
				s0.1-0.4,0.1-0.5c0-0.1,0-0.2,0-0.3c0-0.1,0-0.2-0.1-0.3h0.6c0,0,0.1,0.1,0.1,0.2c0,0.1,0,0.2,0,0.3c0,0.1,0,0.3-0.1,0.8
				c-0.1,0.4-0.3,0.9-0.6,1.4c-0.4,0.5-0.9,0.9-1.7,1.3c-0.7,0.4-1.8,0.6-3.2,0.6c-1.2,0-2.2-0.2-2.9-0.6c-0.7-0.4-1.3-0.8-1.8-1.3
				c-0.4,0.3-0.8,0.5-1.3,0.7c-0.4,0.2-0.9,0.4-1.4,0.6c-0.5,0.2-1.1,0.3-1.8,0.4c-0.7,0.1-1.5,0.2-2.4,0.2c-2.2,0-3.9-0.3-5.2-0.8
				c-1.3-0.5-2.4-1.2-3.1-1.9c-0.7-0.7-1.3-1.5-1.5-2.3c-0.3-0.8-0.4-1.5-0.4-2c0-1,0.3-1.9,0.8-2.6c0.5-0.8,1.2-1.5,2-2.1
				c0.8-0.6,1.7-1.2,2.7-1.7c1-0.5,1.9-1,2.8-1.4c-0.5-0.9-0.8-1.6-1-2.2c-0.2-0.5-0.3-1.1-0.3-1.6c0-0.7,0.2-1.3,0.5-1.9
				c0.4-0.6,0.8-1.2,1.4-1.6c0.6-0.5,1.3-0.9,2-1.2c0.8-0.3,1.5-0.4,2.3-0.4c0.5,0,1,0.1,1.5,0.2c0.5,0.1,0.9,0.3,1.3,0.6
				c0.4,0.3,0.7,0.6,0.9,1c0.2,0.4,0.3,0.9,0.3,1.5c0,0.6-0.2,1.3-0.7,2c-0.5,0.7-1.5,1.5-3,2.2l7.1,10.5
				C170.7,50.9,171.1,50.1,171.5,49.1z M158.5,43.1c-0.2-0.3-0.3-0.5-0.4-0.6c-0.6,0.3-1.1,0.7-1.5,0.9c-0.4,0.3-0.8,0.6-1.1,0.9
				c-0.3,0.3-0.5,0.7-0.7,1c-0.1,0.4-0.2,0.8-0.2,1.3c0,0.4,0.1,0.9,0.3,1.5c0.2,0.6,0.5,1.3,0.8,2c0.4,0.7,0.8,1.4,1.3,2.1
				c0.5,0.7,1,1.3,1.6,1.9c0.6,0.6,1.2,1,1.9,1.4c0.7,0.4,1.3,0.5,2,0.5c0.8,0,1.4-0.1,2.1-0.4c0.6-0.3,1.3-0.6,2-1
				c-0.3-0.3-0.5-0.5-0.7-0.8c-0.2-0.2-0.3-0.4-0.4-0.7L159,44C158.8,43.7,158.6,43.4,158.5,43.1z M166.1,35.6
				c-0.1-0.3-0.3-0.7-0.5-0.9c-0.2-0.3-0.5-0.5-0.9-0.7c-0.4-0.2-0.8-0.3-1.3-0.3c-0.1,0-0.3,0-0.6,0c-0.3,0-0.6,0.1-0.9,0.2
				c-0.3,0.1-0.6,0.4-0.9,0.7c-0.3,0.3-0.4,0.7-0.4,1.3c0,0.3,0.1,0.7,0.2,1c0.1,0.4,0.3,0.8,0.5,1.2c0.2,0.4,0.5,0.8,0.7,1.2
				c0.3,0.4,0.5,0.8,0.8,1.1c0.3-0.1,0.6-0.3,1-0.5c0.4-0.2,0.8-0.5,1.1-0.8c0.4-0.3,0.7-0.7,0.9-1.1c0.2-0.4,0.4-0.9,0.4-1.4
				C166.3,36.2,166.2,35.9,166.1,35.6z"/>
			<path class="st0" d="M194.5,33.8v0.4h-3.1l7.6,16.9h0.1l4.5-9.5l-3.3-7.3h-2.3v-0.4h12.7v0.4h-3.9l7.7,16.9h0.1l7.8-16.9h-3.6
				v-0.4h7.8v0.4H223l-10.9,23.2h-1.2l-7-15.2h-0.1l-7.1,15.2h-1.2L185,34.2h-3.5v-0.4H194.5z"/>
			<path class="st0" d="M254.5,33.8v5.5h-0.6c-0.1-0.4-0.4-0.8-0.7-1.4c-0.3-0.6-0.8-1.1-1.4-1.6c-0.6-0.5-1.4-1-2.4-1.4
				c-1-0.4-2.1-0.6-3.5-0.6h-6.7v9.9h2.4c1,0,1.9-0.1,2.7-0.3c0.7-0.2,1.3-0.5,1.8-1c0.5-0.4,0.9-0.9,1.2-1.5c0.3-0.6,0.6-1.2,0.8-2
				h0.6v10H248c-0.2-0.6-0.4-1.2-0.7-1.8c-0.3-0.6-0.6-1.1-1.1-1.5c-0.5-0.4-1-0.8-1.7-1c-0.7-0.3-1.5-0.4-2.5-0.4h-2.8v11.6h7
				c1.3,0,2.5-0.2,3.5-0.5c1-0.3,2-0.8,2.8-1.4c0.8-0.6,1.5-1.3,2-2.1c0.5-0.8,0.9-1.7,1.2-2.6h0.6v7h-27.1v-0.4h3.9V34.2h-3.9v-0.4
				H254.5z"/>
			<path class="st0" d="M261.3,34.2v-0.4h6.4c1.2,0,2.4,0,3.5,0c1.2,0,2.3,0,3.5,0c1.1,0,2.3,0.1,3.5,0.3c1.2,0.2,2.3,0.5,3.3,0.9
				c1,0.4,1.8,1,2.5,1.6c0.6,0.7,1,1.5,1,2.6c0,0.9-0.3,1.7-1,2.3c-0.6,0.6-1.4,1.1-2.3,1.6c-0.9,0.4-1.8,0.7-2.8,0.9
				c-1,0.2-1.8,0.4-2.5,0.4v0.1c1.1,0.1,2.2,0.2,3.4,0.4s2.3,0.5,3.3,1s1.8,1.1,2.5,1.8c0.6,0.7,1,1.7,1,2.8c0,1.2-0.4,2.3-1.3,3.1
				c-0.8,0.8-1.9,1.5-3.1,1.9c-1.2,0.5-2.5,0.8-3.8,1c-1.4,0.2-2.6,0.3-3.6,0.3c-1.2,0-2.4,0-3.5,0c-1.2,0-2.4,0-3.5,0h-6.4v-0.4
				h3.9V34.2H261.3z M273.1,44.1c1.3,0,2.3-0.1,3-0.4c0.7-0.3,1.3-0.6,1.7-1c0.4-0.4,0.6-0.9,0.7-1.5c0.1-0.6,0.1-1.1,0.1-1.7
				c0-0.9-0.1-1.7-0.3-2.4c-0.2-0.7-0.5-1.2-0.8-1.7c-0.4-0.4-0.9-0.8-1.6-1c-0.7-0.2-1.6-0.3-2.7-0.3c-0.3,0-0.6,0-0.9,0
				c-0.3,0-0.6,0-0.9,0.1v9.9H273.1z M273.8,56.2c0.9,0,1.7-0.1,2.4-0.2c0.7-0.2,1.3-0.5,1.8-0.9c0.5-0.4,0.9-1.1,1.2-1.9
				c0.3-0.8,0.4-1.9,0.4-3.2c0-0.4,0-0.8-0.1-1.5s-0.3-1.2-0.7-1.8c-0.4-0.6-1-1.1-1.7-1.6c-0.8-0.4-1.9-0.7-3.3-0.7h-2.5v11.6
				C272.1,56.2,272.9,56.2,273.8,56.2z"/>
			<path class="st0" d="M292,34.2v-0.4h6.4c1.2,0,2.4,0,3.5,0c1.2,0,2.3,0,3.5,0c1.1,0,2.3,0.1,3.5,0.3c1.2,0.2,2.3,0.5,3.3,0.9
				c1,0.4,1.8,1,2.5,1.6c0.7,0.7,1,1.5,1,2.6c0,0.9-0.3,1.7-1,2.3c-0.6,0.6-1.4,1.1-2.3,1.6c-0.9,0.4-1.8,0.7-2.8,0.9
				c-1,0.2-1.8,0.4-2.5,0.4v0.1c1.1,0.1,2.2,0.2,3.4,0.4s2.3,0.5,3.3,1c1,0.5,1.8,1.1,2.5,1.8c0.7,0.7,1,1.7,1,2.8
				c0,1.2-0.4,2.3-1.3,3.1c-0.8,0.8-1.9,1.5-3.1,1.9c-1.2,0.5-2.5,0.8-3.8,1c-1.4,0.2-2.6,0.3-3.6,0.3c-1.2,0-2.4,0-3.5,0
				c-1.2,0-2.4,0-3.5,0H292v-0.4h3.9V34.2H292z M303.8,44.1c1.3,0,2.3-0.1,3-0.4c0.7-0.3,1.3-0.6,1.7-1c0.4-0.4,0.6-0.9,0.7-1.5
				c0.1-0.6,0.1-1.1,0.1-1.7c0-0.9-0.1-1.7-0.3-2.4c-0.2-0.7-0.5-1.2-0.8-1.7c-0.4-0.4-0.9-0.8-1.6-1c-0.7-0.2-1.6-0.3-2.7-0.3
				c-0.3,0-0.6,0-0.9,0c-0.3,0-0.6,0-0.9,0.1v9.9H303.8z M304.5,56.2c0.9,0,1.7-0.1,2.4-0.2c0.7-0.2,1.3-0.5,1.8-0.9
				c0.5-0.4,0.9-1.1,1.2-1.9c0.3-0.8,0.4-1.9,0.4-3.2c0-0.4,0-0.8-0.1-1.5c-0.1-0.6-0.3-1.2-0.7-1.8c-0.4-0.6-1-1.1-1.7-1.6
				c-0.8-0.4-1.9-0.7-3.3-0.7H302v11.6C302.8,56.2,303.6,56.2,304.5,56.2z"/>
			<path class="st0" d="M350,56.1v0.4h-14v-0.4h3.9V34.2H336v-0.4h3.9c1.4,0,2.9,0,4.3,0c1.4,0,2.9,0,4.3,0c1.3,0,2.6,0.1,4.1,0.2
				c1.5,0.2,2.8,0.5,4.1,0.9c1.2,0.4,2.3,1,3.1,1.8c0.8,0.8,1.3,1.8,1.3,3c0,0.8-0.3,1.6-0.8,2.4c-0.5,0.7-1.4,1.4-2.5,1.9
				s-2.5,1-4.2,1.3c-1.7,0.3-3.6,0.5-5.9,0.5h-1.7v10.4H350z M347.4,45.3c2.4,0,4.1-0.4,5.2-1.2c1.1-0.8,1.6-2.2,1.6-4.2
				c0-1.9-0.5-3.3-1.4-4.3c-0.9-1-2.6-1.5-5.1-1.5c-0.3,0-0.6,0-0.9,0c-0.3,0-0.5,0-0.8,0.1v11.1H347.4z"/>
			<path class="st0" d="M362.5,53c0.6-0.4,1.3-0.7,2.1-0.7c0.8,0,1.5,0.2,2.1,0.7c0.6,0.4,0.9,1,0.9,1.6c0,0.6-0.3,1.1-0.9,1.6
				c-0.6,0.4-1.3,0.7-2.1,0.7c-0.8,0-1.5-0.2-2.1-0.7c-0.6-0.4-0.9-1-0.9-1.6C361.6,54,361.9,53.5,362.5,53z"/>
			<path class="st0" d="M374.6,56.1l12.6-23.3h1.1l13.4,23.3h3.6v0.4h-14.3v-0.4h3.9l-4.9-8.6H380l-4.7,8.6h3.8v0.4h-8v-0.4H374.6z
				 M380.2,47.1h9.8l-5-8.7L380.2,47.1z"/>
			<path class="st0" d="M409.7,53c0.6-0.4,1.3-0.7,2.1-0.7c0.8,0,1.5,0.2,2.1,0.7c0.6,0.4,0.9,1,0.9,1.6c0,0.6-0.3,1.1-0.9,1.6
				c-0.6,0.4-1.3,0.7-2.1,0.7c-0.8,0-1.5-0.2-2.1-0.7c-0.6-0.4-0.9-1-0.9-1.6C408.8,54,409.1,53.5,409.7,53z"/>
		</g>
	</g>
	<g>
		<path class="st1" d="M59.4,0.2v1.5h-8.1l20,54.6h0.2l11.6-30.9L74.4,1.7h-6V0.2h33.2v1.5H91.3l20.1,54.7h0.2l20.5-54.7h-9.5V0.2
			H143v1.5h-9l-28.5,75.1h-3.2l-18.2-49h-0.2l-18.6,49H62L34.5,1.7h-9.1V0.2H59.4z"/>
		<path class="st0" d="M73,56.3l-7.8,20.5H1v-1.5h10.2V1.7H1V0.2h36.5v1.5H27.3v73.6h18.3c6.3,0,12.2-2.5,14.5-4.2
			c3.1-2.4,8.7-9.7,11.4-14.8L73,56.3z"/>
	</g>
</g>
</svg>
