<!-- Generator: Adobe Illustrator 21.0.0, SVG Export Plug-In  -->
<svg version="1.1"
	 xmlns="http://www.w3.org/2000/svg" xmlns:xlink="http://www.w3.org/1999/xlink" xmlns:a="http://ns.adobe.com/AdobeSVGViewerExtensions/3.0/"
	 x="0px" y="0px" width="481.7px" height="46.4px" viewBox="0 0 481.7 46.4" style="enable-background:new 0 0 481.7 46.4;"
	 xml:space="preserve">
<style type="text/css">
	.st0{fill:#7A1600;}
</style>
<defs>
</defs>
<g>
	<path d="M9.6,37.9c-0.1-0.4-0.3-0.7-0.4-1.1C9,36.4,8.8,36,8.5,35.7c-0.3-0.3-0.6-0.6-1-0.8c-0.4-0.2-0.9-0.3-1.5-0.3
		c-0.8,0-1.4,0.1-1.9,0.4c-0.5,0.3-0.8,0.7-1,1.2c-0.2,0.5-0.4,1.1-0.4,1.9c-0.1,0.7-0.1,1.5-0.1,2.4c0,1.1,0.1,2.1,0.2,2.8
		C3,44,3.2,44.5,3.4,45s0.6,0.7,1.1,0.9c0.4,0.2,1,0.3,1.6,0.3c0.5,0,0.9-0.1,1.3-0.3c0.4-0.2,0.7-0.5,1-0.8C8.8,44.8,9,44.4,9.2,44
		c0.2-0.4,0.4-0.8,0.5-1.3h0.3v3.4H9.7c-0.1-0.1-0.1-0.2-0.2-0.3c-0.1,0-0.2-0.1-0.3-0.1c-0.1,0-0.3,0-0.5,0.1
		c-0.2,0.1-0.4,0.1-0.7,0.2c-0.3,0.1-0.6,0.1-0.9,0.2c-0.3,0.1-0.6,0.1-1,0.1c-0.8,0-1.6-0.2-2.3-0.5c-0.7-0.3-1.4-0.7-1.9-1.3
		c-0.6-0.5-1-1.2-1.3-1.9C0.2,42,0,41.2,0,40.4c0-0.9,0.2-1.8,0.6-2.5C0.9,37.2,1.4,36.5,2,36s1.2-0.9,2-1.2
		c0.7-0.3,1.4-0.4,2.1-0.4c0.3,0,0.7,0,1,0.1c0.3,0.1,0.6,0.1,0.8,0.2c0.3,0.1,0.5,0.1,0.7,0.2c0.2,0.1,0.4,0.1,0.5,0.1
		c0.2,0,0.3,0,0.3-0.1c0.1,0,0.1-0.1,0.2-0.3h0.3v3.3H9.6z"/>
	<path d="M23.1,34.6v2.8h-0.2c-0.1-0.2-0.1-0.4-0.3-0.7c-0.1-0.3-0.3-0.6-0.5-0.8c-0.2-0.3-0.5-0.5-0.9-0.7
		c-0.4-0.2-0.8-0.3-1.3-0.3h-2.6v5h0.9c0.4,0,0.7-0.1,1-0.2c0.3-0.1,0.5-0.3,0.7-0.5c0.2-0.2,0.3-0.5,0.5-0.8c0.1-0.3,0.2-0.6,0.3-1
		h0.2v5h-0.2c-0.1-0.3-0.2-0.6-0.3-0.9c-0.1-0.3-0.2-0.5-0.4-0.8c-0.2-0.2-0.4-0.4-0.6-0.5c-0.3-0.1-0.6-0.2-0.9-0.2h-1.1v5.9h2.7
		c0.5,0,0.9-0.1,1.3-0.3s0.8-0.4,1.1-0.7c0.3-0.3,0.6-0.7,0.8-1.1c0.2-0.4,0.4-0.8,0.5-1.3h0.2v3.6H13.4v-0.2h1.5V34.8h-1.5v-0.2
		H23.1z"/>
	<path d="M26.9,34.8v-0.2h2.5c0.5,0,0.9,0,1.3,0c0.4,0,0.9,0,1.3,0c0.4,0,0.9,0,1.3,0.1s0.9,0.2,1.3,0.4c0.4,0.2,0.7,0.5,1,0.9
		c0.3,0.4,0.4,0.8,0.4,1.3c0,0.4-0.1,0.8-0.3,1.1S35.3,39,35,39.2c-0.3,0.2-0.7,0.3-1,0.4c-0.4,0.1-0.8,0.2-1.1,0.2v0.1
		c0.5,0.1,1,0.2,1.4,0.3c0.4,0.1,0.8,0.2,1.1,0.4c0.3,0.2,0.5,0.5,0.7,0.8c0.2,0.3,0.3,0.8,0.3,1.4c0.1,0.7,0.1,1.2,0.1,1.6
		s0.1,0.7,0.1,1c0.1,0.2,0.1,0.4,0.2,0.5C37,46,37.1,46,37.3,46c0.2,0,0.4-0.1,0.5-0.2c0.1-0.1,0.3-0.2,0.4-0.3l0.2,0.1
		c-0.1,0.1-0.2,0.2-0.3,0.3c-0.1,0.1-0.2,0.2-0.4,0.2c-0.1,0.1-0.3,0.1-0.5,0.2c-0.2,0-0.4,0.1-0.7,0.1c-0.6,0-1.1-0.1-1.4-0.3
		c-0.3-0.2-0.6-0.4-0.7-0.7c-0.2-0.3-0.3-0.6-0.3-0.9c0-0.3-0.1-0.6-0.1-0.9c0-0.4-0.1-0.9-0.1-1.3c0-0.4-0.1-0.8-0.3-1.1
		c-0.1-0.3-0.4-0.6-0.6-0.8c-0.3-0.2-0.7-0.3-1.2-0.3h-1.1v5.9h1.5v0.2h-5.3v-0.2h1.5V34.8H26.9z M31.4,39.8c0.5,0,0.9-0.1,1.2-0.2
		s0.5-0.3,0.6-0.5c0.1-0.2,0.2-0.5,0.3-0.8c0-0.3,0.1-0.6,0.1-0.9c0-0.5,0-0.9-0.1-1.2c-0.1-0.3-0.2-0.6-0.3-0.8
		c-0.2-0.2-0.4-0.4-0.6-0.5c-0.3-0.1-0.6-0.2-1-0.2c-0.1,0-0.2,0-0.4,0c-0.1,0-0.2,0-0.4,0v5H31.4z"/>
	<path d="M43.9,34.8c-0.4,0-0.8,0-1.1,0.1c-0.3,0.1-0.6,0.2-0.8,0.4c-0.2,0.2-0.5,0.5-0.7,0.8c-0.2,0.4-0.4,0.8-0.5,1.4h-0.2v-3
		h10.2v3h-0.2c-0.2-0.6-0.3-1-0.5-1.4c-0.2-0.4-0.4-0.6-0.7-0.8c-0.2-0.2-0.5-0.3-0.8-0.4c-0.3-0.1-0.7-0.1-1.1-0.1h-0.6v11.1h1.5
		v0.2H43v-0.2h1.5V34.8H43.9z"/>
	<path d="M59.2,34.6v0.2h-1.5v11.1h1.5v0.2h-5.3v-0.2h1.5V34.8h-1.5v-0.2H59.2z"/>
	<path d="M62.3,34.8v-0.2h9.6v2.8h-0.2c-0.2-0.4-0.3-0.7-0.5-1.1c-0.2-0.3-0.4-0.6-0.6-0.8c-0.2-0.2-0.5-0.4-0.8-0.5
		c-0.3-0.1-0.7-0.2-1.1-0.2h-2.5V40h0.9c0.4,0,0.7-0.1,1-0.2c0.3-0.1,0.5-0.3,0.7-0.5c0.2-0.2,0.3-0.5,0.5-0.8
		c0.1-0.3,0.2-0.6,0.3-1h0.2v5h-0.2c-0.1-0.3-0.2-0.6-0.3-0.9c-0.1-0.3-0.2-0.5-0.4-0.8c-0.2-0.2-0.4-0.4-0.6-0.5
		c-0.3-0.1-0.6-0.2-0.9-0.2h-1.1v5.6h1.5v0.2h-5.4v-0.2h1.5V34.8H62.3z"/>
	<path d="M80.7,34.6v0.2h-1.5v11.1h1.5v0.2h-5.3v-0.2h1.5V34.8h-1.5v-0.2H80.7z"/>
	<path d="M93.5,34.6v2.8h-0.2c-0.1-0.2-0.1-0.4-0.3-0.7c-0.1-0.3-0.3-0.6-0.5-0.8c-0.2-0.3-0.5-0.5-0.9-0.7
		c-0.4-0.2-0.8-0.3-1.3-0.3h-2.6v5h0.9c0.4,0,0.7-0.1,1-0.2c0.3-0.1,0.5-0.3,0.7-0.5c0.2-0.2,0.3-0.5,0.5-0.8c0.1-0.3,0.2-0.6,0.3-1
		h0.2v5H91c-0.1-0.3-0.2-0.6-0.3-0.9c-0.1-0.3-0.2-0.5-0.4-0.8c-0.2-0.2-0.4-0.4-0.6-0.5c-0.3-0.1-0.6-0.2-0.9-0.2h-1.1v5.9h2.7
		c0.5,0,0.9-0.1,1.3-0.3c0.4-0.2,0.8-0.4,1.1-0.7c0.3-0.3,0.6-0.7,0.8-1.1c0.2-0.4,0.4-0.8,0.5-1.3h0.2v3.6H83.8v-0.2h1.5V34.8h-1.5
		v-0.2H93.5z"/>
	<path d="M97.3,34.8v-0.2h1.5c0.6,0,1.1,0,1.7,0c0.6,0,1.1,0,1.7,0c0.5,0,1,0,1.5,0.1c0.5,0.1,1.1,0.2,1.6,0.3
		c0.5,0.2,1,0.4,1.5,0.7c0.5,0.3,0.9,0.6,1.3,1.1c0.4,0.4,0.7,0.9,0.9,1.5c0.2,0.6,0.3,1.3,0.3,2.1c0,0.8-0.1,1.5-0.3,2.1
		c-0.2,0.6-0.5,1.1-0.9,1.5c-0.4,0.4-0.8,0.8-1.2,1.1c-0.5,0.3-0.9,0.5-1.5,0.7c-0.5,0.2-1,0.3-1.5,0.3c-0.5,0.1-0.9,0.1-1.4,0.1
		c-0.6,0-1.2,0-1.8,0c-0.6,0-1.2,0-1.8,0h-1.5v-0.2h1.5V34.8H97.3z M102,46c0.7,0,1.3-0.1,1.8-0.3c0.5-0.2,0.9-0.4,1.3-0.7
		c0.3-0.3,0.6-0.6,0.8-1s0.4-0.8,0.5-1.2c0.1-0.4,0.2-0.8,0.2-1.2c0-0.4,0-0.8,0-1.1c0-0.9-0.1-1.7-0.2-2.4
		c-0.1-0.7-0.3-1.3-0.6-1.8c-0.3-0.5-0.8-0.9-1.3-1.2c-0.6-0.3-1.3-0.4-2.3-0.4c-0.2,0-0.4,0-0.6,0c-0.2,0-0.3,0-0.4,0v11.1
		C101.4,45.9,101.7,46,102,46z"/>
	<path d="M124.1,45.9v0.2h-5.3v-0.2h1.5V34.8h-1.5v-0.2h1.5c0.6,0,1.1,0,1.7,0c0.6,0,1.1,0,1.7,0c0.5,0,1,0,1.6,0.1s1.1,0.2,1.6,0.5
		c0.5,0.2,0.9,0.5,1.2,0.9c0.3,0.4,0.5,0.9,0.5,1.5c0,0.4-0.1,0.8-0.3,1.2c-0.2,0.4-0.5,0.7-0.9,1c-0.4,0.3-1,0.5-1.6,0.7
		c-0.6,0.2-1.4,0.2-2.3,0.2h-0.7v5.3H124.1z M123.1,40.4c0.9,0,1.6-0.2,2-0.6c0.4-0.4,0.6-1.1,0.6-2.1c0-0.9-0.2-1.7-0.5-2.2
		c-0.4-0.5-1-0.7-1.9-0.7c-0.1,0-0.2,0-0.3,0c-0.1,0-0.2,0-0.3,0v5.6H123.1z"/>
	<path d="M136.5,34.6v0.2H135v7.3c0,0.5,0,1,0.1,1.5c0,0.5,0.2,0.9,0.3,1.3s0.4,0.7,0.8,0.9c0.4,0.2,0.8,0.3,1.4,0.3
		c0.6,0,1.1-0.1,1.5-0.2c0.4-0.1,0.7-0.3,1-0.5c0.3-0.2,0.5-0.5,0.6-0.7s0.2-0.6,0.3-0.8c0.1-0.3,0.1-0.5,0.1-0.8c0-0.2,0-0.4,0-0.6
		v-7.6h-1.5v-0.2h3.2v0.2h-1.5v7.6c0,0.2,0,0.4,0,0.7c0,0.3-0.1,0.5-0.1,0.8c-0.1,0.3-0.2,0.6-0.3,0.9c-0.2,0.3-0.4,0.6-0.7,0.8
		c-0.3,0.2-0.7,0.4-1.1,0.6c-0.4,0.1-1,0.2-1.6,0.2c-1,0-1.9-0.1-2.5-0.3c-0.6-0.2-1.1-0.5-1.5-0.9c-0.3-0.4-0.6-0.8-0.7-1.3
		c-0.1-0.5-0.2-1-0.2-1.4v-7.6h-1.5v-0.2H136.5z"/>
	<path d="M145.7,34.8v-0.2h2.5c0.5,0,0.9,0,1.3,0c0.4,0,0.9,0,1.3,0c0.4,0,0.9,0,1.3,0.1c0.5,0.1,0.9,0.2,1.3,0.4
		c0.4,0.2,0.7,0.5,0.9,0.8c0.2,0.3,0.4,0.8,0.4,1.3c0,0.5-0.1,0.9-0.4,1.2c-0.2,0.3-0.5,0.6-0.9,0.8c-0.3,0.2-0.7,0.4-1.1,0.5
		s-0.7,0.2-0.9,0.2v0.1c0.4,0,0.9,0.1,1.3,0.2c0.5,0.1,0.9,0.3,1.2,0.5c0.4,0.2,0.7,0.5,0.9,0.9c0.2,0.4,0.4,0.9,0.4,1.4
		c0,0.6-0.2,1.1-0.5,1.6s-0.7,0.7-1.2,1c-0.5,0.2-0.9,0.4-1.5,0.5c-0.5,0.1-1,0.1-1.4,0.1c-0.5,0-0.9,0-1.4,0c-0.4,0-0.9,0-1.4,0
		h-2.5v-0.2h1.5V34.8H145.7z M150.2,39.8c0.5,0,0.9-0.1,1.2-0.2s0.5-0.3,0.6-0.5c0.1-0.2,0.2-0.5,0.3-0.8c0-0.3,0.1-0.6,0.1-0.9
		c0-0.5,0-0.9-0.1-1.2c-0.1-0.3-0.2-0.6-0.3-0.8c-0.2-0.2-0.4-0.4-0.6-0.5c-0.3-0.1-0.6-0.2-1-0.2c-0.1,0-0.2,0-0.4,0
		c-0.1,0-0.2,0-0.4,0v5H150.2z M150.4,46c0.3,0,0.7,0,0.9-0.1c0.3-0.1,0.5-0.2,0.7-0.5c0.2-0.2,0.3-0.5,0.4-0.9
		c0.1-0.4,0.2-0.9,0.2-1.6c0-0.2,0-0.4,0-0.7c0-0.3-0.1-0.6-0.3-0.9c-0.1-0.3-0.4-0.6-0.7-0.8s-0.7-0.3-1.3-0.3h-0.9v5.9
		C149.8,45.9,150.1,46,150.4,46z"/>
	<path d="M164.2,34.6v0.2h-1.5v11.1h2.7c0.4,0,0.7-0.1,1.1-0.2c0.4-0.1,0.7-0.3,1-0.6c0.3-0.3,0.6-0.6,0.9-1.1
		c0.3-0.4,0.5-1,0.6-1.6h0.2v3.7h-10.3v-0.2h1.5V34.8h-1.5v-0.2H164.2z"/>
	<path d="M177.6,34.6v0.2h-1.5v11.1h1.5v0.2h-5.3v-0.2h1.5V34.8h-1.5v-0.2H177.6z"/>
	<path d="M190.6,37.9c-0.1-0.4-0.3-0.7-0.4-1.1s-0.4-0.8-0.6-1.1c-0.3-0.3-0.6-0.6-1-0.8c-0.4-0.2-0.9-0.3-1.5-0.3
		c-0.8,0-1.4,0.1-1.9,0.4c-0.5,0.3-0.8,0.7-1,1.2s-0.4,1.1-0.4,1.9c-0.1,0.7-0.1,1.5-0.1,2.4c0,1.1,0.1,2.1,0.2,2.8
		c0.1,0.7,0.3,1.3,0.6,1.8c0.3,0.4,0.6,0.7,1.1,0.9c0.4,0.2,1,0.3,1.6,0.3c0.5,0,0.9-0.1,1.3-0.3c0.4-0.2,0.7-0.5,1-0.8
		c0.3-0.3,0.6-0.7,0.8-1.1c0.2-0.4,0.4-0.8,0.5-1.3h0.3v3.4h-0.3c-0.1-0.1-0.1-0.2-0.2-0.3c-0.1,0-0.2-0.1-0.3-0.1
		c-0.1,0-0.3,0-0.5,0.1c-0.2,0.1-0.4,0.1-0.7,0.2c-0.3,0.1-0.6,0.1-0.9,0.2c-0.3,0.1-0.6,0.1-1,0.1c-0.8,0-1.6-0.2-2.3-0.5
		c-0.7-0.3-1.4-0.7-1.9-1.3c-0.6-0.5-1-1.2-1.3-1.9c-0.3-0.7-0.5-1.5-0.5-2.4c0-0.9,0.2-1.8,0.6-2.5c0.4-0.7,0.9-1.4,1.4-1.9
		s1.2-0.9,2-1.2c0.7-0.3,1.4-0.4,2.1-0.4c0.3,0,0.7,0,1,0.1c0.3,0.1,0.6,0.1,0.8,0.2c0.3,0.1,0.5,0.1,0.7,0.2
		c0.2,0.1,0.4,0.1,0.5,0.1c0.2,0,0.3,0,0.3-0.1c0.1,0,0.1-0.1,0.2-0.3h0.3v3.3H190.6z"/>
	<path d="M201,45.9l4.8-11.8h0.4l5.1,11.8h1.4v0.2h-5.5v-0.2h1.5l-1.9-4.3h-3.9l-1.8,4.3h1.4v0.2h-3.1v-0.2H201z M203.2,41.3h3.7
		l-1.9-4.4L203.2,41.3z"/>
	<path d="M224.7,37.9c-0.1-0.4-0.3-0.7-0.4-1.1c-0.2-0.4-0.4-0.8-0.6-1.1c-0.3-0.3-0.6-0.6-1-0.8c-0.4-0.2-0.9-0.3-1.5-0.3
		c-0.8,0-1.4,0.1-1.9,0.4c-0.5,0.3-0.8,0.7-1,1.2s-0.4,1.1-0.4,1.9c-0.1,0.7-0.1,1.5-0.1,2.4c0,1.1,0.1,2.1,0.2,2.8
		c0.1,0.7,0.3,1.3,0.6,1.8c0.3,0.4,0.6,0.7,1.1,0.9c0.4,0.2,1,0.3,1.6,0.3c0.5,0,0.9-0.1,1.3-0.3c0.4-0.2,0.7-0.5,1-0.8
		c0.3-0.3,0.6-0.7,0.8-1.1c0.2-0.4,0.4-0.8,0.5-1.3h0.3v3.4h-0.3c-0.1-0.1-0.1-0.2-0.2-0.3c-0.1,0-0.2-0.1-0.3-0.1
		c-0.1,0-0.3,0-0.5,0.1c-0.2,0.1-0.4,0.1-0.7,0.2c-0.3,0.1-0.6,0.1-0.9,0.2c-0.3,0.1-0.6,0.1-1,0.1c-0.8,0-1.6-0.2-2.3-0.5
		c-0.7-0.3-1.4-0.7-1.9-1.3c-0.6-0.5-1-1.2-1.3-1.9c-0.3-0.7-0.5-1.5-0.5-2.4c0-0.9,0.2-1.8,0.6-2.5c0.4-0.7,0.9-1.4,1.4-1.9
		s1.2-0.9,2-1.2c0.7-0.3,1.4-0.4,2.1-0.4c0.3,0,0.7,0,1,0.1c0.3,0.1,0.6,0.1,0.8,0.2c0.3,0.1,0.5,0.1,0.7,0.2
		c0.2,0.1,0.4,0.1,0.5,0.1c0.2,0,0.3,0,0.3-0.1c0.1,0,0.1-0.1,0.2-0.3h0.3v3.3H224.7z"/>
	<path d="M238.3,37.9c-0.1-0.4-0.3-0.7-0.4-1.1s-0.4-0.8-0.6-1.1c-0.3-0.3-0.6-0.6-1-0.8c-0.4-0.2-0.9-0.3-1.5-0.3
		c-0.8,0-1.4,0.1-1.9,0.4c-0.5,0.3-0.8,0.7-1,1.2c-0.2,0.5-0.4,1.1-0.4,1.9c-0.1,0.7-0.1,1.5-0.1,2.4c0,1.1,0.1,2.1,0.2,2.8
		c0.1,0.7,0.3,1.3,0.6,1.8c0.3,0.4,0.6,0.7,1.1,0.9c0.4,0.2,1,0.3,1.6,0.3c0.5,0,0.9-0.1,1.3-0.3c0.4-0.2,0.7-0.5,1-0.8
		c0.3-0.3,0.6-0.7,0.8-1.1c0.2-0.4,0.4-0.8,0.5-1.3h0.3v3.4h-0.3c-0.1-0.1-0.1-0.2-0.2-0.3c-0.1,0-0.2-0.1-0.3-0.1
		c-0.1,0-0.3,0-0.5,0.1c-0.2,0.1-0.4,0.1-0.7,0.2c-0.3,0.1-0.6,0.1-0.9,0.2c-0.3,0.1-0.6,0.1-1,0.1c-0.8,0-1.6-0.2-2.3-0.5
		c-0.7-0.3-1.4-0.7-1.9-1.3c-0.6-0.5-1-1.2-1.3-1.9c-0.3-0.7-0.5-1.5-0.5-2.4c0-0.9,0.2-1.8,0.6-2.5c0.4-0.7,0.9-1.4,1.4-1.9
		s1.2-0.9,2-1.2c0.7-0.3,1.4-0.4,2.1-0.4c0.3,0,0.7,0,1,0.1c0.3,0.1,0.6,0.1,0.8,0.2c0.3,0.1,0.5,0.1,0.7,0.2
		c0.2,0.1,0.4,0.1,0.5,0.1c0.2,0,0.3,0,0.3-0.1c0.1,0,0.1-0.1,0.2-0.3h0.3v3.3H238.3z"/>
	<path d="M242.7,37.9c0.4-0.7,0.9-1.4,1.4-1.9s1.2-0.9,2-1.2c0.7-0.3,1.4-0.4,2.1-0.4c0.7,0,1.5,0.1,2.2,0.4
		c0.7,0.3,1.4,0.7,1.9,1.2c0.6,0.5,1,1.1,1.4,1.9c0.4,0.7,0.5,1.6,0.5,2.5c0,0.8-0.2,1.6-0.5,2.3c-0.3,0.7-0.8,1.4-1.3,1.9
		c-0.6,0.6-1.2,1-1.9,1.3c-0.7,0.3-1.5,0.5-2.3,0.5c-0.8,0-1.6-0.2-2.3-0.5c-0.7-0.3-1.4-0.7-1.9-1.3c-0.6-0.5-1-1.2-1.3-1.9
		c-0.3-0.7-0.5-1.5-0.5-2.4C242.1,39.5,242.3,38.6,242.7,37.9z M245,43.2c0.1,0.7,0.3,1.3,0.6,1.8s0.6,0.7,1.1,0.9
		c0.4,0.2,1,0.3,1.6,0.3c0.8,0,1.4-0.1,1.9-0.4c0.5-0.3,0.8-0.7,1-1.2c0.2-0.5,0.4-1.1,0.4-1.9c0.1-0.7,0.1-1.5,0.1-2.3
		c0-0.8,0-1.5-0.1-2.2c0-0.7-0.2-1.3-0.4-1.8c-0.2-0.5-0.6-0.9-1-1.2c-0.5-0.3-1.1-0.5-1.9-0.5c-0.8,0-1.4,0.1-1.8,0.4
		c-0.5,0.3-0.8,0.7-1,1.2c-0.2,0.5-0.4,1.1-0.5,1.8c-0.1,0.7-0.1,1.5-0.1,2.4C244.8,41.5,244.8,42.5,245,43.2z"/>
	<path d="M262.7,34.6v0.2h-1.5v7.3c0,0.5,0,1,0.1,1.5c0,0.5,0.2,0.9,0.3,1.3c0.2,0.4,0.4,0.7,0.8,0.9c0.4,0.2,0.8,0.3,1.4,0.3
		c0.6,0,1.1-0.1,1.5-0.2c0.4-0.1,0.7-0.3,1-0.5c0.3-0.2,0.5-0.5,0.6-0.7c0.1-0.3,0.2-0.6,0.3-0.8c0.1-0.3,0.1-0.5,0.1-0.8
		s0-0.4,0-0.6v-7.6h-1.5v-0.2h3.2v0.2h-1.5v7.6c0,0.2,0,0.4,0,0.7c0,0.3-0.1,0.5-0.1,0.8c-0.1,0.3-0.2,0.6-0.3,0.9
		c-0.2,0.3-0.4,0.6-0.7,0.8c-0.3,0.2-0.7,0.4-1.1,0.6c-0.4,0.1-1,0.2-1.6,0.2c-1,0-1.9-0.1-2.5-0.3c-0.6-0.2-1.1-0.5-1.5-0.9
		c-0.3-0.4-0.6-0.8-0.7-1.3c-0.1-0.5-0.2-1-0.2-1.4v-7.6h-1.5v-0.2H262.7z"/>
	<path d="M275.7,34.6l5.4,7.7h0v-7.5h-1.5v-0.2h3.2v0.2h-1.5v11.3H281l-7.3-10.4h0v10.2h1.5v0.2h-3.2v-0.2h1.5V34.8h-1.5v-0.2H275.7
		z"/>
	<path d="M289.2,34.8c-0.4,0-0.8,0-1.1,0.1s-0.6,0.2-0.8,0.4c-0.2,0.2-0.5,0.5-0.7,0.8c-0.2,0.4-0.4,0.8-0.5,1.4h-0.2v-3H296v3h-0.2
		c-0.2-0.6-0.3-1-0.5-1.4c-0.2-0.4-0.4-0.6-0.7-0.8c-0.2-0.2-0.5-0.3-0.8-0.4c-0.3-0.1-0.7-0.1-1.1-0.1h-0.6v11.1h1.5v0.2h-5.3v-0.2
		h1.5V34.8H289.2z"/>
	<path d="M299.5,45.9l4.8-11.8h0.4l5.1,11.8h1.4v0.2h-5.5v-0.2h1.5l-1.9-4.3h-3.9l-1.8,4.3h1.4v0.2h-3.1v-0.2H299.5z M301.6,41.3
		h3.7l-1.9-4.4L301.6,41.3z"/>
	<path d="M317.1,34.6l5.4,7.7h0v-7.5H321v-0.2h3.2v0.2h-1.5v11.3h-0.4L315,35.7h0v10.2h1.5v0.2h-3.2v-0.2h1.5V34.8h-1.5v-0.2H317.1z
		"/>
	<path d="M330.6,34.8c-0.4,0-0.8,0-1.1,0.1c-0.3,0.1-0.6,0.2-0.8,0.4c-0.2,0.2-0.5,0.5-0.7,0.8c-0.2,0.4-0.4,0.8-0.5,1.4h-0.2v-3
		h10.2v3h-0.2c-0.2-0.6-0.3-1-0.5-1.4c-0.2-0.4-0.4-0.6-0.7-0.8c-0.2-0.2-0.5-0.3-0.8-0.4c-0.3-0.1-0.7-0.1-1.1-0.1h-0.6v11.1h1.5
		v0.2h-5.3v-0.2h1.5V34.8H330.6z"/>
	<path d="M341.2,42.5c0,0.1,0.1,0.3,0.1,0.5s0.1,0.4,0.2,0.7c0.1,0.2,0.2,0.5,0.4,0.7c0.2,0.3,0.3,0.5,0.6,0.7
		c0.2,0.2,0.5,0.4,0.7,0.6c0.2,0.1,0.5,0.2,0.7,0.3c0.2,0.1,0.4,0.1,0.6,0.1c0.2,0,0.4,0,0.5,0c0.6,0,1-0.1,1.4-0.3
		c0.4-0.2,0.7-0.4,0.9-0.7c0.2-0.3,0.4-0.5,0.4-0.8c0.1-0.3,0.1-0.5,0.1-0.8c0-0.4-0.1-0.7-0.3-1c-0.2-0.3-0.4-0.5-0.8-0.6
		c-0.3-0.2-0.7-0.3-1.1-0.4c-0.4-0.1-0.8-0.2-1.2-0.4c-0.4-0.1-0.8-0.3-1.2-0.4c-0.4-0.2-0.8-0.4-1.1-0.6c-0.3-0.3-0.6-0.6-0.8-1
		c-0.2-0.4-0.3-0.9-0.3-1.5c0-0.4,0.1-0.8,0.3-1.2c0.2-0.4,0.5-0.8,0.8-1.1c0.3-0.3,0.8-0.6,1.2-0.7c0.5-0.2,1-0.3,1.6-0.3
		c0.4,0,0.7,0,0.9,0.1c0.3,0.1,0.5,0.1,0.7,0.2c0.2,0.1,0.4,0.1,0.5,0.2c0.2,0.1,0.3,0.1,0.4,0.1c0.2,0,0.3,0,0.3-0.1
		c0,0,0.1-0.1,0.2-0.3h0.3v3.1h-0.2c-0.1-0.4-0.3-0.8-0.4-1.1c-0.1-0.4-0.3-0.7-0.6-1c-0.2-0.3-0.5-0.5-0.9-0.7
		c-0.3-0.2-0.8-0.3-1.3-0.3c-0.4,0-0.8,0.1-1.1,0.2c-0.3,0.1-0.6,0.3-0.8,0.5c-0.2,0.2-0.4,0.4-0.5,0.6c-0.1,0.2-0.2,0.5-0.2,0.7
		c0,0.4,0.1,0.7,0.3,0.9c0.2,0.2,0.5,0.5,0.8,0.6c0.3,0.2,0.7,0.3,1.1,0.5c0.4,0.1,0.8,0.3,1.3,0.4c0.4,0.1,0.9,0.3,1.3,0.5
		c0.4,0.2,0.8,0.4,1.1,0.6c0.3,0.3,0.6,0.6,0.8,0.9c0.2,0.4,0.3,0.8,0.3,1.4c0,0.5-0.1,1-0.3,1.5c-0.2,0.5-0.5,0.9-0.9,1.2
		c-0.4,0.4-0.9,0.6-1.4,0.9c-0.5,0.2-1.2,0.3-1.8,0.3c-0.3,0-0.7,0-1-0.1c-0.3-0.1-0.6-0.1-0.9-0.2c-0.3-0.1-0.5-0.1-0.8-0.2
		c-0.2-0.1-0.4-0.1-0.5-0.1c-0.2,0-0.3,0-0.3,0.1c-0.1,0-0.1,0.1-0.2,0.3h-0.3v-3.6H341.2z"/>
</g>
<g>
	<path class="st0" d="M13.9,0.9v0.4H10v21.9h7c0.9,0,1.9-0.1,2.8-0.4c0.9-0.2,1.8-0.6,2.7-1.2c0.8-0.5,1.6-1.2,2.2-2.1
		c0.7-0.9,1.2-1.9,1.5-3.2h0.5v7.2H0v-0.4h3.9V1.4H0V0.9H13.9z"/>
	<path class="st0" d="M45.8,0.9v0.4h-3.9v21.9h3.9v0.4H31.8v-0.4h3.9V1.4h-3.9V0.9H45.8z"/>
	<path class="st0" d="M76,7.4c-0.7-2.1-1.8-3.7-3.3-4.9c-1.5-1.2-3.4-1.7-5.9-1.7c-1.9,0-3.5,0.3-4.7,0.8C61,2.3,60.1,3,59.4,3.9
		c-0.6,0.9-1.1,1.9-1.2,3.1c-0.2,1.2-0.3,2.3-0.3,3.5v2.8c0,1.9,0.2,3.6,0.5,4.9c0.3,1.3,0.9,2.4,1.6,3.2c0.7,0.8,1.6,1.4,2.8,1.7
		c1.1,0.4,2.5,0.5,4.1,0.5c1.3,0,2.3-0.2,3.1-0.5s1.3-0.8,1.8-1.4c0.4-0.6,0.7-1.3,0.8-2.2c0.1-0.8,0.2-1.7,0.2-2.7v-1.2h-4.4v-0.4
		h13.1v0.4h-2.7V23h-0.8c-0.1-0.3-0.2-0.4-0.5-0.6c-0.3-0.1-0.6-0.2-0.9-0.2c-0.7,0-1.3,0.1-1.9,0.3c-0.6,0.2-1.3,0.4-2,0.7
		c-0.7,0.2-1.5,0.5-2.4,0.7c-0.9,0.2-2,0.3-3.3,0.3c-2.1,0-4-0.3-6-0.9c-1.9-0.6-3.6-1.4-5.1-2.5c-1.5-1.1-2.6-2.3-3.5-3.7
		c-0.9-1.4-1.3-3-1.3-4.6c0-1.8,0.5-3.5,1.5-4.9c1-1.5,2.2-2.7,3.7-3.8c1.5-1,3.2-1.9,5.1-2.4c1.9-0.6,3.7-0.8,5.5-0.8
		c0.8,0,1.7,0.1,2.5,0.2C70,0.7,70.8,0.9,71.5,1c0.7,0.1,1.3,0.3,1.8,0.4c0.5,0.1,1,0.2,1.4,0.2c0.4,0,0.7,0,0.8-0.1
		c0.2-0.1,0.3-0.3,0.5-0.5h0.7v6.5H76z"/>
	<path class="st0" d="M110.5,7.4c-0.7-2.1-1.8-3.7-3.3-4.9c-1.5-1.2-3.4-1.7-5.9-1.7c-1.9,0-3.5,0.3-4.7,0.8
		c-1.2,0.6-2.1,1.3-2.7,2.2c-0.6,0.9-1.1,1.9-1.2,3.1c-0.2,1.2-0.3,2.3-0.3,3.5v2.8c0,1.9,0.2,3.6,0.5,4.9c0.3,1.3,0.9,2.4,1.6,3.2
		c0.7,0.8,1.6,1.4,2.8,1.7c1.1,0.4,2.5,0.5,4.1,0.5c1.3,0,2.3-0.2,3.1-0.5c0.8-0.4,1.3-0.8,1.8-1.4c0.4-0.6,0.7-1.3,0.8-2.2
		c0.1-0.8,0.2-1.7,0.2-2.7v-1.2h-4.4v-0.4h13.1v0.4h-2.7V23h-0.8c-0.1-0.3-0.2-0.4-0.5-0.6c-0.3-0.1-0.6-0.2-0.9-0.2
		c-0.7,0-1.3,0.1-1.9,0.3c-0.6,0.2-1.3,0.4-2,0.7c-0.7,0.2-1.5,0.5-2.4,0.7c-0.9,0.2-2,0.3-3.3,0.3c-2.1,0-4-0.3-6-0.9
		c-1.9-0.6-3.6-1.4-5.1-2.5c-1.5-1.1-2.6-2.3-3.5-3.7c-0.9-1.4-1.3-3-1.3-4.6c0-1.8,0.5-3.5,1.5-4.9c1-1.5,2.2-2.7,3.7-3.8
		c1.5-1,3.2-1.9,5.1-2.4c1.9-0.6,3.7-0.8,5.5-0.8c0.8,0,1.7,0.1,2.5,0.2c0.8,0.1,1.5,0.3,2.2,0.4c0.7,0.1,1.3,0.3,1.8,0.4
		c0.5,0.1,1,0.2,1.4,0.2c0.4,0,0.7,0,0.8-0.1c0.2-0.1,0.3-0.3,0.5-0.5h0.7v6.5H110.5z"/>
	<path class="st0" d="M144.9,0.9v5.5h-0.5c-0.1-0.4-0.4-0.8-0.7-1.4c-0.3-0.6-0.8-1.1-1.4-1.6c-0.6-0.5-1.4-1-2.3-1.4
		c-1-0.4-2.1-0.6-3.5-0.6h-6.7v9.9h2.4c1,0,1.9-0.1,2.6-0.3c0.7-0.2,1.3-0.5,1.8-1c0.5-0.4,0.9-0.9,1.2-1.5c0.3-0.6,0.6-1.2,0.8-2
		h0.5v10h-0.5c-0.2-0.6-0.4-1.2-0.7-1.8c-0.3-0.6-0.6-1.1-1.1-1.5c-0.5-0.4-1-0.8-1.7-1c-0.7-0.3-1.5-0.4-2.5-0.4h-2.8v11.6h6.9
		c1.3,0,2.5-0.2,3.5-0.5c1-0.3,2-0.8,2.8-1.4c0.8-0.6,1.5-1.3,2-2.1c0.5-0.8,0.9-1.7,1.2-2.6h0.5v7h-27v-0.4h3.9V1.4h-3.9V0.9H144.9
		z"/>
	<path class="st0" d="M160.5,1.4c-1,0-2,0.1-2.8,0.2c-0.8,0.2-1.6,0.4-2.2,0.8c-0.6,0.4-1.2,0.9-1.7,1.6c-0.5,0.7-1,1.6-1.4,2.7
		h-0.5V0.9h26.5v5.9h-0.5c-0.4-1.1-0.9-2-1.4-2.7c-0.5-0.7-1.1-1.3-1.7-1.6c-0.6-0.4-1.4-0.7-2.2-0.8c-0.8-0.2-1.7-0.2-2.8-0.2h-1.5
		v21.9h3.9v0.4h-13.9v-0.4h3.9V1.4H160.5z"/>
	<path class="st0" d="M191.9,1.4c-1,0-2,0.1-2.8,0.2c-0.8,0.2-1.6,0.4-2.2,0.8c-0.6,0.4-1.2,0.9-1.7,1.6c-0.5,0.7-1,1.6-1.4,2.7
		h-0.5V0.9h26.5v5.9h-0.5c-0.4-1.1-0.9-2-1.4-2.7c-0.5-0.7-1.1-1.3-1.7-1.6c-0.6-0.4-1.4-0.7-2.2-0.8c-0.8-0.2-1.7-0.2-2.8-0.2h-1.5
		v21.9h3.9v0.4h-13.9v-0.4h3.9V1.4H191.9z"/>
</g>
<path class="st0" d="M238.4,16.2c0.4-1.1,0.6-2.4,0.6-4c0-0.9-0.1-1.6-0.3-2.2c-0.2-0.5-0.5-1-0.8-1.3c-0.4-0.3-0.8-0.5-1.4-0.6
	C236,8.1,235.3,8,234.6,8V7.6h8.6V8c-0.7,0.1-1.2,0.2-1.6,0.3c-0.4,0.1-0.8,0.3-1,0.5c-0.3,0.3-0.5,0.7-0.6,1.2
	c-0.1,0.5-0.2,1.2-0.3,2.1c0,0.4-0.1,0.9-0.1,1.5c-0.1,0.6-0.2,1.2-0.3,1.8c-0.2,0.6-0.4,1.2-0.6,1.9c-0.3,0.6-0.6,1.2-1,1.6l2,2.6
	c0.1,0.1,0.3,0.3,0.6,0.6c0.3,0.2,0.7,0.4,1.2,0.4c0.4,0,0.8-0.1,1-0.3c0.3-0.2,0.5-0.5,0.6-0.7c0.2-0.3,0.3-0.5,0.3-0.8
	s0.1-0.4,0.1-0.5c0-0.1,0-0.2,0-0.3c0-0.1,0-0.2-0.1-0.3h0.6c0,0,0.1,0.1,0.1,0.2c0,0.1,0,0.2,0,0.3c0,0.1,0,0.3-0.1,0.8
	c-0.1,0.4-0.3,0.9-0.6,1.4c-0.4,0.5-0.9,0.9-1.7,1.3c-0.7,0.4-1.8,0.6-3.2,0.6c-1.2,0-2.2-0.2-2.9-0.6c-0.7-0.4-1.3-0.8-1.8-1.3
	c-0.4,0.3-0.8,0.5-1.3,0.7c-0.4,0.2-0.9,0.4-1.4,0.6c-0.5,0.2-1.1,0.3-1.8,0.4c-0.7,0.1-1.5,0.2-2.4,0.2c-2.2,0-3.9-0.3-5.2-0.8
	c-1.3-0.5-2.4-1.2-3.1-1.9c-0.7-0.7-1.3-1.5-1.5-2.3c-0.3-0.8-0.4-1.5-0.4-2c0-1,0.3-1.9,0.8-2.6c0.5-0.8,1.2-1.5,2-2.1
	c0.8-0.6,1.7-1.2,2.7-1.7c1-0.5,1.9-1,2.8-1.4c-0.5-0.9-0.8-1.6-1-2.2c-0.2-0.5-0.3-1.1-0.3-1.6c0-0.7,0.2-1.3,0.5-1.9
	c0.4-0.6,0.8-1.2,1.4-1.6c0.6-0.5,1.3-0.9,2-1.2s1.5-0.4,2.3-0.4c0.5,0,1,0.1,1.5,0.2c0.5,0.1,0.9,0.3,1.3,0.6
	c0.4,0.3,0.7,0.6,0.9,1c0.2,0.4,0.3,0.9,0.3,1.5c0,0.6-0.2,1.3-0.7,2c-0.5,0.7-1.5,1.5-3,2.2l7.1,10.5C237.5,18,238,17.3,238.4,16.2
	z M225.4,10.3c-0.2-0.3-0.3-0.5-0.4-0.6c-0.6,0.3-1.1,0.7-1.5,0.9c-0.4,0.3-0.8,0.6-1.1,0.9c-0.3,0.3-0.5,0.7-0.7,1
	c-0.1,0.4-0.2,0.8-0.2,1.3c0,0.4,0.1,0.9,0.3,1.5c0.2,0.6,0.5,1.3,0.8,2c0.4,0.7,0.8,1.4,1.3,2.1c0.5,0.7,1,1.3,1.6,1.9
	c0.6,0.6,1.2,1,1.9,1.4c0.7,0.4,1.3,0.5,2,0.5c0.8,0,1.4-0.1,2.1-0.4c0.6-0.3,1.3-0.6,2-1c-0.3-0.3-0.5-0.5-0.7-0.8
	c-0.2-0.2-0.3-0.4-0.4-0.7l-6.4-9.3C225.7,10.9,225.5,10.6,225.4,10.3z M233,2.7c-0.1-0.3-0.3-0.7-0.5-0.9c-0.2-0.3-0.5-0.5-0.9-0.7
	c-0.4-0.2-0.8-0.3-1.3-0.3c-0.1,0-0.3,0-0.6,0c-0.3,0-0.6,0.1-0.9,0.2c-0.3,0.1-0.6,0.4-0.9,0.7c-0.3,0.3-0.4,0.7-0.4,1.3
	c0,0.3,0.1,0.7,0.2,1c0.1,0.4,0.3,0.8,0.5,1.2c0.2,0.4,0.5,0.8,0.7,1.2c0.3,0.4,0.5,0.8,0.8,1.1c0.3-0.1,0.6-0.3,1-0.5
	c0.4-0.2,0.8-0.5,1.1-0.8c0.4-0.3,0.7-0.7,0.9-1.1c0.2-0.4,0.4-0.9,0.4-1.4C233.2,3.4,233.1,3,233,2.7z"/>
<g>
	<g>
		<path class="st0" d="M261.3,0.9v0.4h-3.1l7.6,16.9h0.1l4.5-9.5l-3.3-7.3h-2.3V0.9h12.7v0.4h-3.9l7.7,16.9h0.1l7.8-16.9h-3.6V0.9
			h7.8v0.4h-3.4L279,24.6h-1.2l-7-15.2h-0.1l-7.1,15.2h-1.2L251.8,1.3h-3.5V0.9H261.3z"/>
		<path class="st0" d="M321.4,0.9v5.5h-0.6c-0.1-0.4-0.4-0.8-0.7-1.4c-0.3-0.6-0.8-1.1-1.4-1.6c-0.6-0.5-1.4-1-2.4-1.4
			c-1-0.4-2.1-0.6-3.5-0.6H306v9.9h2.4c1,0,1.9-0.1,2.7-0.3c0.7-0.2,1.3-0.5,1.8-1c0.5-0.4,0.9-0.9,1.2-1.5c0.3-0.6,0.6-1.2,0.8-2
			h0.6v10h-0.6c-0.2-0.6-0.4-1.2-0.7-1.8c-0.3-0.6-0.6-1.1-1.1-1.5c-0.5-0.4-1-0.8-1.7-1c-0.7-0.3-1.5-0.4-2.5-0.4H306v11.6h7
			c1.3,0,2.5-0.2,3.5-0.5c1-0.3,2-0.8,2.8-1.4c0.8-0.6,1.5-1.3,2-2.1c0.5-0.8,0.9-1.7,1.2-2.6h0.6v7H296v-0.4h3.9V1.3H296V0.9H321.4
			z"/>
		<path class="st0" d="M328.2,1.3V0.9h6.4c1.2,0,2.4,0,3.5,0c1.2,0,2.3,0,3.5,0c1.1,0,2.3,0.1,3.5,0.3c1.2,0.2,2.3,0.5,3.3,0.9
			c1,0.4,1.8,1,2.5,1.6c0.6,0.7,1,1.5,1,2.6c0,0.9-0.3,1.7-1,2.3c-0.6,0.6-1.4,1.1-2.3,1.6c-0.9,0.4-1.8,0.7-2.8,0.9
			c-1,0.2-1.8,0.4-2.5,0.4v0.1c1.1,0.1,2.2,0.2,3.4,0.4c1.2,0.2,2.3,0.5,3.3,1c1,0.5,1.8,1.1,2.5,1.8c0.6,0.7,1,1.7,1,2.8
			c0,1.2-0.4,2.3-1.3,3.1c-0.8,0.8-1.9,1.5-3.1,1.9s-2.5,0.8-3.8,1c-1.4,0.2-2.6,0.3-3.6,0.3c-1.2,0-2.4,0-3.5,0c-1.2,0-2.4,0-3.5,0
			h-6.4v-0.4h3.9V1.3H328.2z M339.9,11.2c1.3,0,2.3-0.1,3-0.4c0.7-0.3,1.3-0.6,1.7-1c0.4-0.4,0.6-0.9,0.7-1.5
			c0.1-0.6,0.1-1.1,0.1-1.7c0-0.9-0.1-1.7-0.3-2.4c-0.2-0.7-0.5-1.2-0.8-1.7c-0.4-0.4-0.9-0.8-1.6-1c-0.7-0.2-1.6-0.3-2.7-0.3
			c-0.3,0-0.6,0-0.9,0c-0.3,0-0.6,0-0.9,0.1v9.9H339.9z M340.7,23.4c0.9,0,1.7-0.1,2.4-0.2c0.7-0.2,1.3-0.5,1.8-0.9
			c0.5-0.4,0.9-1.1,1.2-1.9c0.3-0.8,0.4-1.9,0.4-3.2c0-0.4,0-0.8-0.1-1.5c-0.1-0.6-0.3-1.2-0.7-1.8c-0.4-0.6-1-1.1-1.7-1.6
			c-0.8-0.4-1.9-0.7-3.3-0.7h-2.5v11.6C339,23.3,339.8,23.4,340.7,23.4z"/>
		<path class="st0" d="M358.8,1.3V0.9h6.4c1.2,0,2.4,0,3.5,0c1.2,0,2.3,0,3.5,0c1.1,0,2.3,0.1,3.5,0.3c1.2,0.2,2.3,0.5,3.3,0.9
			c1,0.4,1.8,1,2.5,1.6c0.7,0.7,1,1.5,1,2.6c0,0.9-0.3,1.7-1,2.3c-0.6,0.6-1.4,1.1-2.3,1.6c-0.9,0.4-1.8,0.7-2.8,0.9
			c-1,0.2-1.8,0.4-2.5,0.4v0.1c1.1,0.1,2.2,0.2,3.4,0.4c1.2,0.2,2.3,0.5,3.3,1c1,0.5,1.8,1.1,2.5,1.8c0.7,0.7,1,1.7,1,2.8
			c0,1.2-0.4,2.3-1.3,3.1c-0.8,0.8-1.9,1.5-3.1,1.9c-1.2,0.5-2.5,0.8-3.8,1c-1.4,0.2-2.6,0.3-3.6,0.3c-1.2,0-2.4,0-3.5,0
			c-1.2,0-2.4,0-3.5,0h-6.4v-0.4h3.9V1.3H358.8z M370.6,11.2c1.3,0,2.3-0.1,3-0.4c0.7-0.3,1.3-0.6,1.7-1c0.4-0.4,0.6-0.9,0.7-1.5
			c0.1-0.6,0.1-1.1,0.1-1.7c0-0.9-0.1-1.7-0.3-2.4c-0.2-0.7-0.5-1.2-0.8-1.7c-0.4-0.4-0.9-0.8-1.6-1c-0.7-0.2-1.6-0.3-2.7-0.3
			c-0.3,0-0.6,0-0.9,0c-0.3,0-0.6,0-0.9,0.1v9.9H370.6z M371.3,23.4c0.9,0,1.7-0.1,2.4-0.2c0.7-0.2,1.3-0.5,1.8-0.9
			c0.5-0.4,0.9-1.1,1.2-1.9c0.3-0.8,0.4-1.9,0.4-3.2c0-0.4,0-0.8-0.1-1.5c-0.1-0.6-0.3-1.2-0.7-1.8c-0.4-0.6-1-1.1-1.7-1.6
			c-0.8-0.4-1.9-0.7-3.3-0.7h-2.5v11.6C369.6,23.3,370.5,23.4,371.3,23.4z"/>
	</g>
	<g>
		<path class="st0" d="M416.8,23.3v0.4h-14v-0.4h3.9V1.3h-3.9V0.9h3.9c1.4,0,2.9,0,4.3,0c1.4,0,2.9,0,4.3,0c1.3,0,2.6,0.1,4.1,0.2
			c1.5,0.2,2.8,0.5,4.1,0.9c1.2,0.4,2.3,1,3.1,1.8c0.8,0.8,1.3,1.8,1.3,3c0,0.8-0.3,1.6-0.8,2.4c-0.5,0.7-1.4,1.4-2.5,1.9
			c-1.1,0.5-2.5,1-4.2,1.3c-1.7,0.3-3.6,0.5-5.9,0.5h-1.7v10.4H416.8z M414.2,12.4c2.4,0,4.1-0.4,5.2-1.2c1.1-0.8,1.6-2.2,1.6-4.2
			c0-1.9-0.5-3.3-1.4-4.3c-0.9-1-2.6-1.5-5.1-1.5c-0.3,0-0.6,0-0.9,0c-0.3,0-0.5,0-0.8,0.1v11.1H414.2z"/>
		<path class="st0" d="M429.4,20.1c0.6-0.4,1.3-0.7,2.1-0.7c0.8,0,1.5,0.2,2.1,0.7c0.6,0.4,0.9,1,0.9,1.6c0,0.6-0.3,1.1-0.9,1.6
			c-0.6,0.4-1.3,0.7-2.1,0.7c-0.8,0-1.5-0.2-2.1-0.7c-0.6-0.4-0.9-1-0.9-1.6C428.5,21.1,428.8,20.6,429.4,20.1z"/>
		<path class="st0" d="M441.5,23.3L454.2,0h1.1l13.4,23.3h3.6v0.4h-14.3v-0.4h3.9l-4.9-8.6h-10.2l-4.7,8.6h3.8v0.4h-8v-0.4H441.5z
			 M447.1,14.2h9.8l-5-8.7L447.1,14.2z"/>
		<path class="st0" d="M476.6,20.1c0.6-0.4,1.3-0.7,2.1-0.7c0.8,0,1.5,0.2,2.1,0.7c0.6,0.4,0.9,1,0.9,1.6c0,0.6-0.3,1.1-0.9,1.6
			c-0.6,0.4-1.3,0.7-2.1,0.7c-0.8,0-1.5-0.2-2.1-0.7c-0.6-0.4-0.9-1-0.9-1.6C475.7,21.1,476,20.6,476.6,20.1z"/>
	</g>
</g>
</svg>
